<?xml version="1.0" standalone="no"?>
<!DOCTYPE svg PUBLIC "-//W3C//DTD SVG 20010904//EN"
 "http://www.w3.org/TR/2001/REC-SVG-20010904/DTD/svg10.dtd">
<svg version="1.0" xmlns="http://www.w3.org/2000/svg"
 width="1472.000000pt" height="2000.000000pt" viewBox="0 0 1472.000000 2000.000000"
 preserveAspectRatio="xMidYMid meet">

<g transform="translate(0.000000,2000.000000) scale(0.100000,-0.100000)"
fill="#000000" stroke="none">
<path d="M0 13445 c0 -3605 2 -6555 4 -6555 2 0 31 13 64 30 34 16 65 30 69
30 5 0 26 9 47 21 21 11 44 18 50 16 7 -3 21 6 31 19 31 41 192 69 225 39 10
-9 20 -11 30 -5 19 12 73 13 66 1 -11 -18 117 -23 163 -6 24 8 49 15 56 15 19
0 26 -28 12 -51 -8 -14 -9 -22 -1 -27 6 -4 14 -19 18 -34 7 -29 20 -36 31 -18
3 6 30 10 58 10 41 0 62 6 97 30 25 16 51 30 58 30 27 0 70 40 113 105 24 36
47 65 52 65 4 0 7 7 7 16 0 11 6 15 20 11 18 -5 25 3 21 26 0 4 6 7 14 7 9 0
18 7 21 15 10 25 22 17 29 -17 4 -18 16 -43 28 -55 16 -19 18 -25 7 -38 -10
-12 -10 -18 0 -30 15 -18 30 -11 30 14 0 15 9 19 54 20 70 1 131 22 209 71 34
22 68 40 75 40 6 0 12 5 12 10 0 10 110 131 175 193 37 35 105 67 143 67 28 0
81 -45 95 -81 3 -8 6 -2 6 14 1 15 6 27 11 27 6 0 10 7 10 15 0 23 30 65 46
65 8 0 14 -4 14 -10 0 -5 -4 -10 -9 -10 -5 0 -9 -21 -9 -47 -1 -50 31 -123 55
-123 7 0 15 -11 19 -25 3 -14 11 -25 18 -25 6 0 34 -24 61 -53 28 -29 62 -60
75 -70 13 -9 19 -17 12 -17 -6 0 -12 -4 -12 -10 0 -5 7 -10 16 -10 8 0 35 -14
60 -31 24 -16 48 -28 53 -25 5 3 11 0 14 -8 4 -9 16 -13 34 -11 28 3 113 -30
113 -44 0 -5 20 -21 45 -37 35 -22 42 -30 30 -37 -8 -4 -15 -12 -15 -17 0 -6
-10 -20 -22 -32 -18 -18 -23 -19 -32 -6 -6 8 -18 18 -26 21 -8 4 -1 5 15 3 17
-3 37 -1 45 4 16 10 18 9 -55 27 -22 6 -46 12 -54 14 -8 2 -17 -7 -22 -23 -7
-25 -5 -28 19 -29 21 -1 23 -2 7 -6 -11 -3 -28 -14 -38 -24 -10 -10 -22 -19
-27 -19 -6 0 -10 -5 -10 -10 0 -6 11 -8 25 -4 32 8 32 -9 0 -30 -33 -22 -32
-38 3 -30 27 6 53 17 175 73 73 34 86 32 101 -17 9 -28 18 -28 52 1 25 21 30
22 62 11 45 -15 64 -41 57 -75 -7 -32 13 -69 32 -62 7 3 13 0 13 -7 0 -8 10
-9 31 -5 28 6 30 5 27 -17 -2 -14 -10 -23 -21 -23 -10 0 -21 -5 -25 -11 -10
-17 -68 -44 -99 -48 -16 -1 -48 -13 -73 -26 -25 -13 -67 -26 -94 -29 -43 -5
-52 -11 -68 -39 -23 -41 -83 -102 -101 -102 -7 0 -41 -22 -75 -50 -34 -27 -64
-50 -67 -50 -3 0 -25 -15 -49 -34 -24 -18 -61 -37 -81 -40 -26 -5 -53 -23 -86
-55 -35 -34 -69 -55 -121 -75 -40 -15 -86 -34 -103 -41 -82 -37 -105 -45 -143
-51 -24 -4 -45 -11 -48 -15 -3 -5 -15 -9 -27 -9 -11 0 -37 -11 -56 -24 -20
-13 -61 -31 -91 -41 -30 -10 -62 -21 -70 -26 -48 -28 -146 -69 -178 -75 -20
-4 -45 -14 -54 -23 -35 -33 -48 -42 -61 -39 -6 1 -24 -8 -38 -21 -35 -32 -196
-87 -262 -90 -28 -1 -92 -6 -142 -13 -49 -6 -146 -10 -215 -10 -173 2 -203 4
-218 15 -10 8 -16 7 -22 -3 -5 -8 -31 -14 -72 -16 -34 -1 -103 -5 -153 -10
-50 -4 -106 -8 -125 -8 -19 -1 -38 -5 -41 -9 -4 -5 -25 -10 -47 -10 -22 -1
-39 -6 -39 -12 1 -5 -8 -10 -20 -9 l-23 1 0 -2789 0 -2788 7360 0 7360 0 0
4854 c0 3875 -3 4855 -12 4859 -10 3 -10 7 -1 19 10 12 13 1072 13 5141 l0
5127 -7360 0 -7360 0 0 -6555z m6690 6025 c0 -5 -7 -10 -16 -10 -8 0 -12 5 -9
10 3 6 10 10 16 10 5 0 9 -4 9 -10z m-1455 -130 c3 -5 -1 -10 -10 -10 -9 0
-13 5 -10 10 3 6 8 10 10 10 2 0 7 -4 10 -10z m-1110 -50 c3 -5 1 -10 -4 -10
-6 0 -11 5 -11 10 0 6 2 10 4 10 3 0 8 -4 11 -10z m-1855 -10 c0 -5 -2 -10 -4
-10 -3 0 -8 5 -11 10 -3 6 -1 10 4 10 6 0 11 -4 11 -10z m6535 -360 c3 -5 1
-10 -4 -10 -6 0 -11 5 -11 10 0 6 2 10 4 10 3 0 8 -4 11 -10z m-6195 -416 c0
-2 -7 -4 -15 -4 -8 0 -15 4 -15 10 0 5 7 7 15 4 8 -4 15 -8 15 -10z m4247
-132 c-12 -13 -14 -21 -6 -29 8 -8 6 -20 -7 -42 -20 -33 -39 -32 -28 2 6 19 3
19 -22 -7 -29 -28 -29 -28 -32 -6 -2 13 5 31 17 43 17 17 22 18 35 7 17 -13
19 -9 16 28 -1 17 4 22 21 22 21 0 21 -1 6 -18z m-161 -22 c20 0 17 -14 -8
-36 -36 -30 -66 -45 -73 -34 -3 6 -15 5 -30 -2 -19 -8 -28 -8 -40 2 -9 7 -15
8 -15 2 0 -6 6 -13 13 -15 23 -10 -14 -26 -39 -17 -16 6 -26 5 -34 -6 -7 -7
-17 -14 -21 -14 -10 0 16 44 38 68 16 17 17 30 1 14 -27 -27 -37 -9 -13 22 16
21 52 28 132 26 32 0 54 4 59 12 7 10 9 9 12 -4 2 -10 10 -18 18 -18z m344
-37 c-1 -23 -60 -57 -60 -35 0 10 39 41 53 41 4 1 7 -2 7 -6z m-609 -58 c-10
-30 -21 -45 -31 -43 -27 6 -23 40 7 64 40 33 43 30 24 -21z m599 0 c0 -8 -4
-15 -10 -15 -5 0 -10 7 -10 15 0 8 5 15 10 15 6 0 10 -7 10 -15z m270 -43 c0
-16 -41 -52 -52 -46 -7 5 -1 16 18 31 32 26 34 26 34 15z m-1750 -61 c0 -6 -4
-13 -10 -16 -19 -12 -11 -40 13 -42 12 -1 37 -5 55 -9 28 -5 34 -3 39 15 3 11
10 18 15 15 5 -3 7 -13 4 -21 -4 -9 1 -21 10 -28 15 -11 15 -13 0 -37 -17 -26
-86 -55 -105 -44 -17 11 -13 -10 4 -24 21 -18 19 -33 -5 -27 -11 3 -23 1 -26
-5 -3 -5 -15 -7 -26 -5 -15 4 -18 1 -13 -14 4 -13 2 -19 -9 -19 -9 0 -25 -9
-36 -20 -11 -11 -26 -20 -33 -20 -8 0 -19 -11 -25 -25 -8 -17 -20 -25 -37 -25
-14 0 -25 -5 -25 -11 0 -6 -7 -9 -15 -5 -17 6 -21 -9 -4 -19 5 -4 -14 -19 -43
-34 -29 -15 -53 -32 -54 -37 -1 -17 -17 -49 -27 -56 -6 -3 -25 -4 -44 -1 -35
6 -43 -6 -18 -27 12 -10 13 -16 4 -26 -6 -8 -15 -11 -20 -8 -5 3 -9 1 -9 -4 0
-6 -10 -8 -22 -4 -22 5 -22 5 -5 -21 16 -25 9 -45 -12 -33 -17 11 -41 -6 -41
-28 0 -29 -10 -39 -26 -25 -17 14 -44 4 -44 -16 0 -19 -19 -20 -26 0 -4 8 -11
15 -16 15 -6 0 -3 -11 6 -25 15 -23 15 -26 1 -31 -21 -8 -19 -40 5 -64 18 -18
27 -40 16 -40 -18 0 -36 15 -36 31 0 21 -1 22 -24 13 -13 -5 -13 -10 4 -42 22
-40 19 -52 -6 -31 -16 13 -17 11 -12 -13 4 -20 1 -28 -9 -28 -9 0 -11 -5 -6
-12 4 -7 8 -20 9 -28 1 -8 2 -25 3 -38 0 -13 6 -20 11 -17 12 7 12 3 4 -19 -3
-9 -15 -16 -26 -16 -17 0 -18 -2 -8 -15 11 -13 10 -18 -6 -30 -10 -7 -19 -24
-19 -37 0 -19 -5 -23 -26 -20 -20 2 -27 -2 -25 -15 1 -13 -5 -17 -18 -15 -17
3 -18 2 -7 -12 8 -10 9 -16 3 -16 -6 0 -18 10 -26 22 -21 30 -33 15 -12 -16
20 -32 20 -40 0 -32 -8 3 -12 2 -9 -3 3 -5 0 -13 -6 -16 -7 -5 -3 -15 11 -30
18 -19 19 -23 6 -28 -9 -4 -13 -13 -10 -21 4 -10 -4 -16 -26 -21 -27 -6 -37
-2 -61 21 -17 16 -27 35 -24 42 3 8 -1 20 -10 26 -19 14 -32 76 -16 76 7 0 9
4 6 10 -4 6 -11 5 -19 -3 -8 -6 -11 -16 -8 -22 4 -5 -8 1 -25 15 -18 15 -34
38 -37 58 -4 17 -11 32 -16 32 -4 0 -6 -9 -3 -20 4 -14 0 -20 -11 -20 -9 0
-16 3 -16 8 0 4 -3 17 -6 29 -6 23 -2 24 84 14 6 0 12 -8 12 -16 0 -18 37 -38
56 -31 7 3 11 12 8 19 -3 8 2 17 10 20 10 4 14 19 13 48 -1 26 3 44 11 47 20
6 55 82 44 95 -5 7 -9 19 -9 27 0 8 -3 31 -6 51 -5 25 -2 41 7 48 8 7 12 20 9
30 -3 10 0 22 6 25 6 4 11 24 12 44 1 33 2 34 9 12 7 -23 8 -22 9 10 2 43 9
54 40 58 23 2 24 1 8 -16 -17 -18 -16 -19 10 -18 21 1 29 7 31 24 2 14 -2 22
-11 22 -25 0 -28 38 -4 55 34 24 38 18 31 -35 -7 -55 0 -65 18 -22 11 26 12
26 15 5 3 -13 8 -23 12 -23 15 0 30 26 27 46 -2 10 -1 14 1 7 2 -6 11 -14 20
-17 11 -4 14 -2 10 9 -4 8 -2 17 2 20 5 3 7 13 4 23 -6 26 22 48 42 32 12 -10
15 -8 20 12 3 12 5 32 4 43 -4 42 1 85 11 85 6 0 10 -18 10 -40 0 -22 4 -40 9
-40 5 0 7 45 5 103 -3 72 -2 96 5 80 6 -13 13 -23 16 -23 4 0 4 4 0 9 -3 6 4
25 15 43 19 32 20 32 26 11 7 -27 19 -30 28 -7 5 13 16 16 56 12 27 -3 54 0
60 6 7 7 10 6 10 -2 0 -7 5 -12 10 -12 6 0 10 7 10 15 0 8 5 15 11 15 11 0 59
46 59 56 0 16 33 32 78 39 50 7 52 8 62 46 13 45 25 53 17 9 -6 -29 9 -53 18
-28 20 56 26 68 35 68 5 0 10 -4 10 -9z m208 -51 c7 -11 9 -20 4 -20 -10 0
-32 22 -32 32 0 15 15 8 28 -12z m554 -31 c3 -9 10 -8 25 1 18 12 23 11 38 -3
9 -10 21 -15 26 -12 5 4 9 1 9 -5 0 -6 -7 -13 -15 -16 -25 -10 1 -31 40 -32
36 -1 46 13 23 36 -9 9 -7 12 10 12 13 0 22 -6 22 -16 0 -9 9 -18 19 -21 12
-3 17 -11 14 -19 -4 -11 1 -11 24 2 22 13 38 15 68 9 23 -5 33 -10 23 -12 -19
-5 -25 -23 -8 -23 24 0 7 -28 -20 -34 -29 -5 -30 -7 -19 -28 8 -14 14 -18 17
-10 2 7 12 17 22 22 15 8 17 6 14 -13 -2 -12 -2 -16 2 -9 10 20 27 14 63 -23
19 -20 46 -38 60 -42 14 -3 28 -10 31 -14 3 -5 25 -10 48 -11 25 -2 42 -8 42
-15 0 -7 5 -13 11 -13 7 0 9 14 5 40 -3 22 -1 40 4 40 5 0 12 9 15 21 8 25 30
19 31 -9 2 -28 31 -72 48 -72 14 0 66 -68 66 -87 0 -7 5 -15 11 -19 8 -5 10 8
5 45 -5 45 -4 51 12 51 9 0 25 -12 34 -27 17 -27 17 -27 18 -5 0 13 6 22 16
22 11 0 14 5 10 16 -7 17 21 90 31 81 9 -9 44 23 37 34 -3 5 6 9 20 9 14 0 26
5 26 10 0 6 -13 10 -30 10 -22 0 -28 4 -24 15 5 11 19 14 57 13 27 -2 52 2 54
7 2 6 -25 10 -67 11 -113 0 -108 20 7 27 54 3 108 9 121 12 14 5 22 3 22 -5 0
-6 -9 -14 -20 -17 -11 -3 -20 -10 -20 -15 0 -6 6 -8 14 -5 8 3 20 -1 26 -9 7
-8 20 -14 29 -14 20 0 44 -51 35 -74 -8 -20 -18 -20 -34 -1 -12 15 -40 21 -40
9 0 -7 80 -124 98 -142 19 -21 14 -32 -18 -39 -30 -5 -52 -23 -30 -23 6 0 4
-8 -6 -17 -13 -13 -19 -14 -22 -5 -6 18 -33 44 -40 37 -3 -3 0 -11 6 -17 16
-16 16 -95 0 -101 -10 -3 -10 -9 0 -26 6 -11 12 -37 12 -56 0 -21 6 -38 14
-41 7 -3 23 -27 36 -55 16 -32 30 -49 42 -49 10 0 18 -4 18 -9 0 -5 9 -7 19
-4 14 3 40 -16 95 -69 42 -41 76 -82 76 -91 0 -9 13 -30 29 -47 22 -25 61
-123 61 -155 0 -18 -97 42 -108 67 -2 5 -8 5 -14 2 -17 -11 -80 6 -75 20 5 13
-44 76 -60 76 -16 1 -124 156 -142 206 -26 68 -55 119 -69 119 -20 0 -25 15
-23 70 2 60 -6 86 -19 65 -4 -7 -3 -28 2 -48 7 -23 6 -37 -1 -41 -6 -4 -7 -12
-1 -21 6 -8 10 -22 10 -30 -1 -11 -4 -10 -15 4 -11 15 -18 17 -26 9 -17 -17
-39 -4 -39 22 0 12 -7 28 -15 35 -17 14 -21 0 -4 -17 13 -13 8 -85 -7 -90 -17
-6 -37 53 -36 100 1 23 -3 49 -9 57 -7 11 -9 -7 -5 -63 4 -57 2 -77 -6 -75
-14 5 -37 87 -39 138 l-1 35 -7 -36 c-7 -36 4 -163 18 -210 6 -18 4 -26 -4
-26 -6 0 -12 5 -12 11 -1 26 -26 100 -30 88 -3 -7 0 -26 6 -43 13 -37 7 -51
-17 -42 -14 6 -15 4 -5 -8 16 -20 29 -99 15 -99 -5 0 -13 11 -16 25 -5 19 -12
24 -28 21 -12 -1 -24 -8 -26 -14 -2 -7 -11 -12 -21 -12 -9 0 -22 -5 -29 -12
-9 -9 -12 -9 -12 2 0 7 -3 11 -6 8 -3 -4 1 -17 10 -30 10 -15 14 -39 11 -71
-2 -28 2 -62 11 -82 22 -54 19 -75 -12 -75 -24 0 -26 -3 -22 -31 4 -23 0 -33
-16 -41 -20 -11 -20 -11 4 -21 l25 -10 -23 -5 c-13 -2 -21 -7 -19 -10 2 -4 9
-22 16 -40 11 -28 17 -33 37 -28 19 5 24 2 24 -14 0 -13 -7 -20 -20 -20 -15 0
-20 -7 -20 -25 0 -14 4 -25 9 -25 5 0 7 8 4 19 -3 12 2 20 16 24 30 7 45 -16
33 -51 -11 -32 0 -62 23 -62 8 0 15 -5 15 -10 0 -7 7 -7 21 0 30 16 49 -3 45
-46 -1 -19 1 -37 5 -40 10 -6 4 -118 -8 -137 -4 -7 -16 -16 -26 -20 -11 -4
-16 -14 -14 -29 2 -13 2 -17 0 -10 -7 18 -21 15 -28 -8 -3 -11 -12 -20 -19
-20 -17 0 -61 -86 -58 -116 1 -20 -3 -24 -28 -24 -23 0 -30 -4 -30 -20 0 -22
-11 -25 -38 -11 -9 5 -26 12 -36 16 -18 5 -17 8 10 36 l29 31 -24 19 c-28 23
-51 25 -51 4 0 -9 -9 -15 -25 -15 -16 0 -25 -6 -25 -15 0 -8 -4 -15 -10 -15
-5 0 -10 -9 -10 -19 0 -11 -7 -26 -15 -35 -8 -8 -15 -19 -15 -24 0 -6 -7 -12
-15 -16 -8 -3 -15 -15 -15 -26 0 -13 -7 -20 -20 -20 -15 0 -20 -7 -20 -25 0
-20 -5 -25 -26 -25 -24 0 -26 -3 -20 -27 12 -53 12 -84 0 -91 -17 -10 -28 -52
-14 -52 6 0 -2 -12 -19 -26 -30 -25 -42 -64 -21 -64 19 0 10 -45 -12 -60 -13
-8 -26 -13 -30 -12 -5 1 -8 -3 -8 -8 0 -6 -12 -16 -27 -23 -26 -11 -23 -12 40
-15 54 -2 67 -6 67 -19 0 -9 3 -14 6 -10 8 7 42 -26 37 -36 -3 -4 -11 -3 -19
4 -17 14 -19 -2 -1 -20 10 -10 9 -11 -6 -6 -13 6 -18 1 -23 -23 -3 -17 -14
-32 -23 -35 -9 -2 -25 -19 -34 -38 -9 -19 -17 -27 -17 -18 0 23 -26 31 -41 13
-22 -26 -49 -37 -64 -24 -7 6 -19 10 -27 9 -7 -2 -23 0 -34 4 -12 4 -32 3 -46
-2 -15 -5 -31 -5 -41 1 -22 12 -42 1 -28 -16 8 -10 9 -21 2 -55 -1 -2 -8 2
-16 9 -21 17 -89 3 -120 -26 -42 -39 -105 -26 -105 22 0 20 -5 24 -30 24 -16
0 -30 5 -30 10 0 15 -30 12 -31 -2 0 -10 -2 -10 -6 0 -2 6 -11 12 -19 12 -8 0
-14 4 -14 9 0 5 -12 12 -27 14 -26 4 -26 4 5 6 38 1 139 60 107 62 -11 1 -25
1 -31 0 -7 -1 -15 6 -18 16 -6 14 -9 15 -15 4 -6 -10 -11 -5 -16 18 -4 19 -13
31 -23 31 -9 0 -30 9 -46 19 -31 21 -56 18 -56 -6 0 -10 -6 -13 -16 -9 -11 4
-18 -1 -21 -14 -3 -11 -11 -20 -18 -20 -7 0 -16 -6 -19 -12 -5 -10 -7 -10 -12
-1 -3 7 -12 9 -20 6 -13 -5 -13 -7 -2 -14 10 -7 9 -9 -3 -9 -9 0 -19 9 -22 21
-5 20 -7 20 -29 5 -12 -9 -35 -16 -50 -16 -38 0 -44 -17 -8 -25 16 -4 32 -11
35 -16 4 -5 25 -9 49 -9 54 0 106 -18 106 -36 0 -8 -7 -14 -15 -14 -9 0 -18
-7 -21 -15 -4 -8 -12 -15 -19 -15 -7 0 -15 -4 -17 -9 -1 -5 -39 -11 -83 -13
-75 -3 -85 -6 -85 -26 0 -20 91 -44 175 -46 57 -1 60 -2 60 -26 0 -23 -4 -25
-40 -23 -22 1 -85 2 -140 4 -79 1 -107 6 -134 22 -26 16 -35 17 -41 7 -5 -7
-19 -11 -34 -8 -26 5 -37 -14 -16 -27 16 -10 12 -25 -5 -19 -8 4 -15 1 -15 -5
0 -6 7 -11 15 -11 9 0 28 -8 42 -17 26 -17 27 -17 20 0 -8 21 1 21 41 2 28
-14 35 -14 86 3 l56 19 0 -21 c0 -21 19 -60 20 -41 0 6 23 11 50 12 38 2 52
-1 55 -12 3 -8 8 -23 12 -32 3 -10 7 -25 9 -33 2 -8 8 -16 13 -18 6 -2 11 -12
11 -22 0 -10 6 -20 13 -23 9 -3 9 -7 -2 -20 -7 -10 -10 -17 -5 -17 5 -1 -3 -8
-18 -16 -16 -8 -28 -21 -28 -29 0 -11 -8 -13 -30 -8 -25 4 -29 3 -24 -10 3 -8
12 -18 20 -21 9 -3 12 -10 9 -16 -4 -6 -13 -7 -23 -1 -25 12 -46 3 -31 -15 9
-11 7 -20 -6 -40 l-17 -26 -15 21 c-16 24 -30 20 -43 -14 -5 -13 -19 -25 -32
-27 -18 -2 -23 -9 -21 -28 3 -39 -5 -56 -19 -42 -16 16 -28 15 -28 -2 0 -9 -8
-12 -26 -8 -23 4 -41 -1 -95 -29 -21 -10 -29 -2 -29 27 0 28 -17 41 -33 25 -9
-9 -8 -14 3 -21 13 -8 13 -11 1 -19 -7 -5 -10 -14 -7 -20 4 -6 0 -11 -8 -11
-9 0 -16 -9 -16 -20 0 -11 -5 -20 -12 -20 -6 0 -22 -10 -35 -22 -32 -30 -39
-17 -19 36 14 35 15 50 6 66 -11 20 -13 20 -35 6 -23 -15 -24 -15 -27 12 -2
15 0 45 5 67 4 21 5 50 2 63 -5 21 -3 23 21 20 16 -2 29 2 31 10 3 8 -6 12
-25 12 -22 0 -33 6 -37 20 -3 11 -12 20 -20 20 -7 0 -21 20 -30 44 -15 39 -15
49 -2 107 20 89 21 129 2 129 -27 0 -16 20 13 21 15 1 34 3 42 4 8 1 25 3 38
4 30 1 18 21 -14 21 -15 0 -24 6 -24 15 0 8 -6 15 -12 15 -9 0 -8 4 2 10 13 9
13 12 -2 21 -10 5 -18 16 -18 23 0 8 -14 16 -31 20 -19 4 -28 10 -23 17 4 7 1
10 -7 7 -16 -5 -49 32 -49 55 0 8 -6 20 -14 26 -7 6 -16 29 -19 50 -2 21 -21
62 -42 92 -21 30 -35 46 -32 37 5 -15 4 -16 -13 -6 -14 9 -16 16 -8 25 9 12 5
17 -14 14 -3 0 -11 13 -17 30 -8 24 -7 31 4 35 11 5 12 11 5 24 -10 19 -24
149 -22 210 0 29 4 102 14 290 0 8 4 20 8 25 4 6 8 32 9 59 0 27 5 54 11 60 5
5 10 18 10 28 0 10 4 18 9 18 9 0 21 31 27 70 5 36 5 41 -2 79 -5 27 -3 37 12
48 11 8 13 13 5 13 -11 0 -11 3 -1 15 9 11 9 21 0 48 -11 28 -10 38 4 65 9 18
13 32 9 32 -5 0 0 5 10 11 9 6 15 15 11 20 -3 6 3 13 15 16 12 3 21 13 21 23
0 10 13 29 28 42 23 19 30 36 36 78 8 61 44 105 86 105 14 0 25 3 25 7 0 13
39 36 52 31 8 -3 13 3 13 16 0 12 4 21 8 21 4 0 16 14 26 31 10 17 28 34 39
39 20 8 20 9 3 9 -18 1 -18 2 -3 19 10 10 17 24 17 30 0 7 7 12 16 12 12 0 15
7 12 25 -3 13 -2 26 2 27 3 2 14 21 23 43 l16 40 0 -42 c1 -47 20 -60 22 -15
l2 27 4 -27 c7 -44 20 -33 25 21 6 58 34 96 50 68 13 -25 28 -21 28 8 0 14 8
29 19 35 24 13 44 13 36 1 -3 -5 0 -13 6 -17 6 -3 15 -1 19 6 6 9 10 6 15 -10
8 -26 25 -15 29 21 3 32 16 59 27 59 5 0 9 -8 10 -17 0 -15 2 -15 9 2 8 19 9
19 9 -2 1 -12 6 -25 12 -29 8 -5 10 0 6 17 -8 30 9 61 21 41 6 -9 18 -11 37
-6 25 6 26 8 12 19 -27 19 -21 24 36 27 45 3 52 6 55 26 2 12 10 22 19 22 13
0 13 3 3 15 -16 19 -5 49 15 41 9 -3 15 0 15 9 0 28 63 75 100 75 11 0 25 9
32 20 7 11 18 20 24 20 19 0 35 26 37 61 3 51 23 60 142 63 58 2 109 6 112 10
10 9 21 7 25 -5z m1068 -15 c0 -2 -7 -4 -15 -4 -8 0 -15 4 -15 10 0 5 7 7 15
4 8 -4 15 -8 15 -10z m-122 -1 c-10 -2 -28 -2 -40 0 -13 2 -5 4 17 4 22 1 32
-1 23 -4z m-1584 -149 c22 -8 10 -24 -19 -24 -25 0 -39 12 -28 24 8 8 27 8 47
0z m153 -60 c-3 -3 -12 -4 -19 -1 -8 3 -5 6 6 6 11 1 17 -2 13 -5z m-167 -138
c0 -3 -4 -8 -10 -11 -5 -3 -10 -1 -10 4 0 6 5 11 10 11 6 0 10 -2 10 -4z
m-813 -98 c-3 -7 -5 -2 -5 12 0 14 2 19 5 13 2 -7 2 -19 0 -25z m2633 -114
c19 -50 11 -59 -20 -24 -35 39 -37 50 -10 50 13 0 24 -10 30 -26z m-2390 -54
c0 -13 -11 -13 -30 0 -12 8 -11 10 8 10 12 0 22 -4 22 -10z m-443 -42 c-3 -8
-6 -5 -6 6 -1 11 2 17 5 13 3 -3 4 -12 1 -19z m2710 -70 c-3 -8 -6 -5 -6 6 -1
11 2 17 5 13 3 -3 4 -12 1 -19z m-207 -8 c0 -5 -4 -10 -10 -10 -5 0 -10 5 -10
10 0 6 5 10 10 10 6 0 10 -4 10 -10z m-2037 -30 c3 -11 1 -20 -4 -20 -5 0 -9
9 -9 20 0 11 2 20 4 20 2 0 6 -9 9 -20z m2157 -76 c22 -51 25 -68 10 -59 -15
9 -12 -5 10 -50 23 -48 24 -55 8 -55 -18 1 -68 69 -68 92 0 10 7 18 16 18 17
0 16 14 -2 78 -11 39 6 24 26 -24z m17 4 c-3 -8 -6 -5 -6 6 -1 11 2 17 5 13 3
-3 4 -12 1 -19z m103 2 c0 9 6 7 18 -6 17 -19 52 -110 52 -135 0 -8 11 -26 25
-41 14 -15 25 -32 25 -38 0 -5 3 -9 8 -8 4 1 19 -4 34 -10 20 -8 26 -17 23
-33 -3 -13 -1 -27 4 -33 5 -6 12 -31 15 -56 l7 -45 -20 23 c-11 13 -23 39 -27
58 -3 19 -12 34 -20 34 -16 0 -29 -42 -21 -70 6 -23 -8 -36 -19 -18 -5 8 -10
4 -15 -11 -7 -18 -12 -20 -29 -11 -19 10 -20 9 -15 -12 3 -13 2 -35 -3 -48
-11 -27 -14 -22 -27 33 -6 31 -28 32 -30 1 -1 -10 -5 -36 -9 -56 -6 -34 -9
-36 -31 -28 -21 8 -24 6 -30 -21 -4 -16 -13 -29 -20 -29 -8 0 -19 -16 -26 -35
-15 -40 -29 -46 -29 -12 0 12 -5 29 -10 37 -8 12 -10 10 -10 -11 0 -31 -19
-57 -44 -61 -16 -2 -21 7 -31 57 -8 35 -9 65 -4 71 5 6 5 15 1 19 -4 5 1 5 10
2 10 -3 20 -2 23 3 13 21 36 9 42 -22 l7 -33 8 30 c5 17 6 50 3 75 -4 29 -3
40 3 31 11 -16 16 -3 27 69 10 62 17 69 31 35 l13 -30 1 43 c0 34 3 42 19 42
32 0 45 25 31 61 -11 25 -11 32 0 39 11 7 10 19 -4 67 -26 86 -29 102 -12 66
20 -44 28 -42 20 5 l-7 37 22 -19 c15 -14 21 -15 21 -6z m-70 -67 c0 -10 3
-28 6 -40 4 -13 2 -23 -2 -23 -16 0 -33 37 -27 59 6 25 23 28 23 4z m163 -23
c3 -11 1 -18 -4 -14 -5 3 -9 12 -9 20 0 20 7 17 13 -6z m-303 -41 c0 -7 14
-25 30 -41 30 -28 36 -43 22 -52 -9 -5 -55 40 -58 58 -1 6 -5 19 -9 29 -4 10
-3 17 4 17 6 0 11 -5 11 -11z m54 -6 c3 -10 9 -25 12 -33 3 -8 -4 -4 -15 10
-22 27 -26 40 -12 40 5 0 11 -8 15 -17z m-2814 -43 c0 -5 -4 -10 -10 -10 -5 0
-10 5 -10 10 0 6 5 10 10 10 6 0 10 -4 10 -10z m50 -99 c-26 -17 -26 -35 0
-28 26 7 50 -21 29 -34 -12 -7 -12 -9 1 -9 13 0 35 -39 53 -92 4 -10 15 -18
25 -18 24 0 48 -25 33 -35 -6 -3 -26 -3 -46 1 -28 5 -35 3 -35 -10 0 -16 -12
-21 -23 -9 -4 3 -2 12 4 19 8 10 1 19 -30 39 -23 14 -40 31 -38 38 1 6 -4 11
-10 10 -8 -2 -13 8 -13 27 0 17 5 30 13 30 6 0 3 6 -8 12 -11 6 -21 12 -23 13
-8 6 12 35 24 35 8 0 14 4 14 10 0 5 -6 7 -14 4 -7 -3 -16 2 -20 12 -6 16 -6
16 41 -3 7 -3 16 3 19 12 5 13 9 14 15 3 6 -9 2 -18 -11 -27z m3051 -174 c-16
-16 -25 19 -9 36 11 13 13 12 16 -5 2 -11 -1 -25 -7 -31z m-2864 -114 c-15
-16 -17 -16 -17 -1 0 9 6 18 13 21 20 7 22 -2 4 -20z m58 -3 c-3 -5 -1 -10 6
-10 7 0 5 -8 -6 -20 -10 -11 -15 -20 -11 -20 4 0 0 -10 -8 -22 -9 -12 -16 -33
-16 -46 0 -21 2 -22 15 -12 21 17 19 2 -7 -52 -18 -36 -30 -48 -55 -55 l-32
-8 23 -47 c24 -50 22 -62 -21 -106 -18 -18 -61 -5 -80 25 -23 35 -23 122 0
135 9 5 17 15 17 23 0 8 8 19 19 24 10 6 21 21 25 33 3 13 24 43 46 67 22 25
40 50 40 57 0 7 10 20 22 28 26 19 32 20 23 6z m-55 -454 c0 -3 -4 -8 -10 -11
-5 -3 -10 -1 -10 4 0 6 5 11 10 11 6 0 10 -2 10 -4z m25 -103 c-3 -13 -10 -21
-15 -18 -14 9 -12 72 3 98 11 21 12 20 15 -17 2 -22 1 -50 -3 -63z m-31 -89
c3 -8 2 -12 -4 -9 -6 3 -10 10 -10 16 0 14 7 11 14 -7z m30 1 c3 -8 1 -15 -4
-15 -6 0 -10 7 -10 15 0 8 2 15 4 15 2 0 6 -7 10 -15z m2086 -470 c0 -8 -6
-15 -13 -15 -7 0 -23 -11 -35 -25 -12 -14 -30 -25 -40 -25 -10 0 -22 -3 -28
-7 -5 -5 11 13 37 40 48 47 79 60 79 32z m-358 -122 c43 -5 46 -8 44 -32 -2
-22 -6 -26 -29 -24 -15 1 -25 -2 -22 -6 9 -15 -31 -42 -50 -35 -14 6 -17 4
-12 -9 8 -20 3 -21 -23 -5 -16 10 -24 10 -40 0 -11 -6 -27 -12 -35 -12 -10 0
-13 -5 -9 -12 4 -7 -2 -5 -13 5 -21 18 -22 18 -32 -2 -16 -29 -51 -23 -52 9
-1 14 -1 31 0 38 3 18 -46 5 -73 -20 -12 -10 -28 -24 -36 -31 -20 -16 -87 -10
-94 9 -9 22 30 54 67 54 17 0 50 5 72 11 22 5 58 15 80 20 22 6 50 17 63 25
28 18 99 34 127 28 11 -3 41 -7 67 -11z m343 -42 c-11 -5 -23 -7 -27 -4 -8 4
-12 -11 -9 -34 1 -7 -3 -13 -9 -13 -5 0 -10 -6 -10 -14 0 -9 -13 -13 -40 -13
-22 0 -46 -6 -55 -13 -13 -11 -12 -15 3 -36 9 -13 25 -24 35 -24 17 0 77 -51
77 -64 0 -3 -9 -6 -20 -6 -11 0 -20 -7 -20 -15 0 -13 -18 -20 -42 -16 -5 0 -8
-3 -8 -9 0 -5 -12 -10 -26 -10 -14 0 -23 -4 -19 -9 3 -5 0 -13 -6 -16 -6 -4
-8 -18 -5 -31 10 -39 -31 -53 -169 -58 -44 -2 -87 -6 -96 -10 -10 -4 -25 -6
-35 -4 -13 2 -19 -3 -19 -16 0 -21 -40 -33 -50 -16 -10 16 -28 12 -21 -5 3 -8
1 -15 -3 -15 -18 0 -41 12 -41 22 0 5 5 6 10 3 6 -3 10 1 10 9 0 11 -10 16
-31 16 -25 0 -29 -3 -21 -13 7 -9 8 -24 3 -43 l-9 -29 -13 33 c-14 35 -28 43
-25 15 1 -13 -7 -18 -26 -18 -15 -1 -30 -4 -34 -7 -3 -4 -16 5 -29 19 -20 24
-21 30 -9 68 l12 42 -50 1 c-53 1 -86 25 -67 48 5 6 8 26 6 45 -3 34 -2 34 58
51 33 10 71 17 86 18 14 0 30 5 36 11 8 8 17 8 29 1 12 -7 23 -6 35 1 13 8 26
8 46 1 29 -11 66 -1 126 32 16 9 38 13 50 10 13 -3 45 2 72 10 28 9 68 18 90
20 21 3 44 8 50 12 5 4 12 7 15 8 16 3 46 19 52 28 9 13 106 45 138 45 23 0
23 -1 5 -8z m-1275 -91 c-8 -5 -22 -10 -30 -10 -13 0 -13 1 0 10 8 5 22 10 30
10 13 0 13 -1 0 -10z m870 -5 c0 -2 -13 -5 -30 -7 -22 -3 -27 -2 -19 8 8 10
49 9 49 -1z m-236 -24 c3 -5 -8 -11 -24 -13 -35 -5 -41 8 -7 15 12 2 23 5 24
6 1 0 4 -3 7 -8z m217 -368 c-9 -4 -10 -8 -2 -12 6 -4 -5 -7 -24 -8 -24 -1
-35 3 -35 13 0 10 12 14 38 13 20 0 31 -3 23 -6z m924 -233 c9 -15 -16 -43
-27 -32 -10 10 0 42 12 42 5 0 12 -5 15 -10z m-1995 -22 c11 -12 20 -27 20
-34 0 -7 20 -27 45 -45 28 -20 49 -44 56 -66 13 -39 45 -73 69 -73 10 0 28
-10 42 -22 27 -26 64 -46 92 -50 11 -2 21 -9 24 -16 2 -7 -2 -10 -12 -6 -9 3
-16 2 -16 -4 0 -16 -27 -22 -59 -12 -34 9 -42 -4 -18 -29 10 -11 10 -14 0 -18
-17 -6 -16 -32 3 -68 9 -18 11 -31 5 -33 -5 -2 -7 -10 -4 -18 7 -19 -11 -18
-27 1 -7 8 -16 15 -21 15 -28 0 -169 148 -169 177 0 7 -6 13 -14 13 -17 0 -49
87 -34 92 6 2 3 12 -8 22 -18 18 -49 170 -38 187 10 16 43 9 64 -13z m718 -15
c28 -21 30 -26 18 -39 -8 -8 -22 -14 -31 -14 -10 0 -15 -7 -13 -17 4 -19 66
-36 110 -30 23 3 28 -1 33 -24 12 -53 14 -118 5 -124 -5 -3 -7 -12 -4 -19 3
-8 1 -17 -5 -21 -6 -3 -11 -15 -11 -26 0 -11 -4 -17 -10 -14 -5 3 -10 2 -10
-2 0 -15 -51 -63 -61 -58 -5 4 -7 10 -4 15 3 4 -5 6 -17 2 -17 -4 -20 -2 -15
12 7 18 -11 66 -25 66 -4 0 -8 -12 -8 -27 -1 -25 -2 -26 -14 -11 -7 10 -16 15
-19 11 -13 -12 -8 -113 6 -118 6 -3 13 -18 14 -34 2 -26 -2 -29 -37 -35 -21
-3 -41 -12 -43 -18 -3 -8 -6 -6 -6 5 -1 21 -29 23 -38 2 -5 -14 -8 -14 -24 1
-23 20 -46 13 -51 -17 -3 -25 -36 -33 -77 -17 -17 6 -22 14 -18 28 3 12 -1 24
-11 30 -12 6 -13 9 -3 10 8 0 11 6 7 16 -9 23 10 51 39 58 15 4 25 14 25 24 0
9 12 23 28 29 15 7 39 24 54 38 15 14 31 25 35 25 4 0 21 31 37 68 16 37 43
87 59 111 27 42 28 48 17 84 -8 29 -8 42 1 53 12 15 18 13 67 -23z m1199 -97
c-3 -7 0 -19 6 -25 8 -8 8 -11 -2 -11 -8 0 -11 -7 -8 -20 4 -15 0 -20 -13 -20
-19 0 -23 29 -5 42 6 5 5 8 -3 8 -10 0 -10 4 0 20 14 23 33 27 25 6z m-47
-136 c0 -5 -4 -10 -9 -10 -6 0 -13 5 -16 10 -3 6 1 10 9 10 9 0 16 -4 16 -10z
m-50 -65 c0 -19 0 -38 0 -42 0 -5 -5 -8 -12 -8 -7 0 -17 -17 -23 -37 -6 -21
-18 -43 -26 -50 -9 -7 -19 -19 -21 -27 -2 -8 -17 -15 -32 -17 -16 -2 -36 -10
-45 -18 -15 -14 -20 -13 -46 4 -38 25 -55 25 -55 1 0 -10 -6 -24 -13 -30 -11
-8 -16 -5 -25 14 -13 29 -32 33 -32 8 0 -12 -3 -14 -11 -6 -8 8 -8 21 1 48 7
20 9 39 6 43 -9 8 51 32 81 32 13 0 21 4 18 10 -3 6 0 10 9 10 8 0 16 -5 18
-12 2 -6 13 -12 24 -12 11 -1 25 -5 32 -10 8 -5 12 1 12 19 0 30 52 81 93 90
15 4 27 11 27 16 0 5 5 9 10 9 6 0 10 -16 10 -35z m-433 -67 c-3 -8 -6 -5 -6
6 -1 11 2 17 5 13 3 -3 4 -12 1 -19z m81 -95 c2 -1 -1 -10 -7 -20 -10 -17 -10
-17 -11 0 0 10 -7 20 -15 23 -8 4 -15 13 -15 22 0 13 4 12 23 -4 12 -10 24
-20 25 -21z m-1149 -17 c-12 -10 -60 -16 -54 -6 3 5 18 10 32 10 15 0 24 -2
22 -4z m25 -45 c4 -5 -3 -7 -14 -4 -23 6 -26 13 -6 13 8 0 17 -4 20 -9z m324
-48 c3 -46 18 -58 25 -20 l4 22 8 -22 c10 -30 25 -29 25 1 0 14 5 28 10 31 6
4 8 11 5 16 -4 5 -1 9 4 9 6 0 11 -2 11 -4 0 -2 3 -11 6 -20 4 -11 1 -16 -10
-16 -9 0 -16 -7 -16 -16 0 -11 6 -15 19 -11 16 4 20 -1 23 -27 l3 -31 15 30
c17 34 50 44 70 20 10 -12 11 -27 2 -68 -10 -50 -9 -72 4 -145 5 -23 2 -38
-11 -52 -9 -10 -19 -37 -22 -59 -3 -23 -10 -41 -14 -41 -5 0 -9 -8 -9 -17 -1
-15 -4 -14 -20 6 -12 14 -20 38 -20 62 0 43 -17 60 -35 36 -14 -19 -26 -12
-18 10 4 11 1 14 -13 11 -16 -3 -19 -11 -16 -46 2 -41 -10 -57 -22 -26 -11 28
-28 3 -23 -32 4 -21 18 -46 39 -64 18 -16 29 -30 24 -30 -4 0 5 -15 21 -34 20
-22 30 -43 29 -62 -1 -28 -3 -29 -43 -26 -36 3 -43 1 -44 -15 -1 -16 -2 -16
-6 -1 -4 14 -7 15 -17 5 -7 -6 -15 -20 -19 -30 -3 -9 -12 -16 -19 -15 -8 2
-14 -9 -16 -27 -2 -16 -8 -34 -14 -40 -7 -7 -9 8 -6 47 4 54 3 57 -21 61 -34
7 -41 1 -41 -30 0 -22 -2 -24 -15 -13 -13 11 -17 8 -26 -19 -6 -17 -15 -31
-19 -31 -4 0 -20 -20 -34 -45 -15 -25 -33 -45 -40 -45 -8 0 -17 -7 -20 -16 -9
-22 -20 -10 -22 24 -3 53 -4 56 -12 46 -14 -15 -35 -120 -29 -143 3 -13 0 -21
-7 -21 -22 0 -56 40 -56 67 0 19 -4 24 -18 21 -27 -7 -25 28 2 50 25 19 44 62
27 62 -5 0 -13 -4 -16 -10 -3 -5 -14 -10 -23 -10 -11 0 -13 3 -6 8 29 19 55
132 31 132 -9 0 -12 21 -10 83 2 45 5 88 8 95 2 6 0 12 -5 12 -5 0 -12 -11
-16 -25 -7 -27 -34 -35 -34 -10 0 8 4 15 8 15 13 0 42 57 42 83 0 14 4 28 10
32 5 3 7 12 3 20 -3 9 0 22 7 30 9 10 9 15 1 15 -19 0 -12 18 9 25 21 7 54
-11 45 -24 -3 -6 25 -45 85 -118 6 -7 16 -25 22 -40 7 -15 17 -32 23 -36 7 -6
6 -10 -2 -14 -15 -5 -18 -23 -5 -23 5 0 19 8 30 19 28 23 68 23 64 -2 -2 -9 2
-17 8 -17 5 0 10 8 10 18 0 9 9 28 20 42 11 14 20 40 20 57 0 23 7 37 25 49
22 14 24 21 19 55 -4 25 -1 52 10 78 13 33 14 53 6 113 -5 40 -13 84 -16 96
-6 21 -4 23 17 20 20 -2 24 -9 27 -45z m-504 -272 c3 -5 -1 -11 -9 -14 -9 -4
-12 -1 -8 9 6 16 10 17 17 5z m-12 -283 c-7 -7 -12 -8 -12 -2 0 14 12 26 19
19 2 -3 -1 -11 -7 -17z m1629 -23 c18 -41 19 -47 5 -61 -15 -14 -16 -12 -16
20 0 22 -6 38 -17 44 -10 6 -14 16 -10 26 10 25 16 20 38 -29z m146 -92 c-3
-10 -5 -4 -5 12 0 17 2 24 5 18 2 -7 2 -21 0 -30z m113 -64 c0 -5 -4 -9 -10
-9 -5 0 -10 7 -10 16 0 8 5 12 10 9 6 -3 10 -10 10 -16z m40 -90 c0 -22 -4
-38 -8 -35 -8 5 -4 76 4 76 2 0 4 -18 4 -41z m-1889 -62 c-6 -6 -11 -21 -11
-33 0 -13 -5 -26 -12 -30 -8 -5 -9 -2 -5 10 4 10 7 31 7 47 0 22 4 27 16 22
11 -4 12 -9 5 -16z m605 -63 c-6 -15 13 -34 29 -28 6 3 18 -2 25 -11 11 -14
14 -13 26 2 12 17 13 17 14 1 0 -9 -8 -22 -17 -27 -16 -9 -16 -12 -3 -21 12
-8 13 -11 1 -19 -8 -5 -9 -11 -3 -15 6 -3 14 -2 17 4 6 10 45 -24 45 -39 -1
-17 -20 -33 -33 -28 -9 3 -18 -1 -21 -9 -13 -34 -6 -41 39 -39 39 2 45 -1 45
-17 0 -24 22 -19 26 6 3 24 13 33 22 20 4 -6 13 -13 20 -15 8 -3 14 -28 17
-69 2 -36 9 -78 15 -94 8 -23 8 -31 -2 -37 -9 -6 -16 1 -22 24 -7 26 -10 28
-14 12 -2 -11 -10 -24 -17 -30 -11 -8 -11 -21 -2 -63 8 -39 8 -55 0 -63 -9 -9
-14 -5 -19 15 -7 29 -35 34 -78 15 -19 -9 -26 -21 -28 -47 -4 -49 -30 -56 -26
-8 1 19 -1 38 -5 42 -4 4 -1 17 7 29 9 14 11 27 5 36 -7 11 -10 9 -15 -8 -4
-13 -10 -23 -15 -23 -5 0 -15 -11 -21 -25 -6 -14 -15 -25 -20 -25 -14 0 -9 34
12 72 17 31 17 38 5 48 -8 7 -15 25 -15 40 0 16 -7 30 -15 34 -9 3 -15 18 -15
37 0 20 -4 29 -12 26 -7 -2 -12 -11 -12 -20 1 -9 -7 -19 -17 -22 -11 -4 -19
-12 -19 -20 0 -7 -12 -16 -27 -20 -32 -8 -57 17 -47 47 4 14 0 18 -18 18 -15
0 -29 11 -41 31 -14 26 -22 30 -42 25 -23 -6 -25 -4 -19 19 4 16 0 34 -10 50
-9 14 -16 45 -16 74 0 42 3 50 23 55 12 3 28 19 35 36 27 59 62 32 62 -49 0
-33 1 -34 15 -15 8 10 15 27 15 38 0 11 5 16 14 13 7 -3 31 11 52 32 36 35 41
37 72 27 19 -5 31 -15 28 -22z m1226 -6 c-7 -7 -12 -8 -12 -2 0 14 12 26 19
19 2 -3 -1 -11 -7 -17z m-1072 -182 c0 -3 -4 -8 -10 -11 -5 -3 -10 -1 -10 4 0
6 5 11 10 11 6 0 10 -2 10 -4z m370 -41 c10 -18 17 -22 25 -15 21 18 53 -58
40 -95 -5 -17 -14 -33 -19 -37 -12 -8 -53 22 -59 42 -3 8 -5 2 -6 -15 l-1 -29
-16 22 c-8 12 -21 41 -29 65 -7 23 -13 34 -14 23 -1 -12 -6 -16 -16 -12 -8 3
-15 1 -15 -5 0 -6 9 -13 20 -16 23 -6 26 -36 9 -80 -10 -24 -12 -26 -18 -10
-6 15 -9 16 -17 5 -6 -7 -14 -21 -17 -31 -8 -22 -27 -13 -27 13 0 26 -17 34
-62 31 -32 -2 -38 0 -38 18 0 11 5 23 10 26 6 3 7 17 4 31 -4 14 -2 24 5 24 6
0 11 -4 11 -10 0 -5 5 -10 10 -10 6 0 10 13 10 29 0 28 2 29 46 28 27 0 48 -6
51 -13 3 -9 10 -7 25 8 11 11 28 18 39 15 12 -3 19 0 19 9 0 22 15 16 30 -11z
m187 -27 c17 -36 22 -56 15 -62 -3 -4 -7 -27 -8 -51 -2 -33 1 -47 14 -55 12
-8 14 -13 5 -16 -7 -3 -13 -13 -13 -22 0 -10 -6 -5 -16 13 -11 21 -13 43 -9
77 6 44 5 48 -14 48 -18 0 -21 6 -21 38 0 21 3 42 7 45 13 13 30 7 40 -15z
m77 -43 c-6 -14 -44 -8 -44 7 0 5 5 6 10 3 6 -3 11 0 11 7 1 12 2 17 8 43 2 6
7 -3 11 -18 5 -16 6 -35 4 -42z m197 2 c-10 -9 -11 -8 -5 6 3 10 9 15 12 12 3
-3 0 -11 -7 -18z m-331 -17 c0 -5 -4 -10 -10 -10 -5 0 -10 5 -10 10 0 6 5 10
10 10 6 0 10 -4 10 -10z m150 -55 c0 -8 -4 -15 -9 -15 -13 0 -22 16 -14 24 11
11 23 6 23 -9z m97 -42 c-3 -10 -5 -4 -5 12 0 17 2 24 5 18 2 -7 2 -21 0 -30z
m-331 -29 c1 -19 -3 -34 -7 -34 -5 0 -9 19 -9 42 0 49 14 42 16 -8z m91 24
c-3 -8 -6 -5 -6 6 -1 11 2 17 5 13 3 -3 4 -12 1 -19z m163 -8 c-20 -13 -43
-13 -35 0 3 6 16 10 28 10 18 0 19 -2 7 -10z m-877 -50 c-5 -19 -23 -29 -23
-12 0 7 20 32 26 32 1 0 0 -9 -3 -20z m297 4 c0 -8 -5 -12 -10 -9 -6 4 -8 11
-5 16 9 14 15 11 15 -7z m234 -70 c9 -23 7 -46 -3 -40 -11 7 -21 56 -11 56 4
0 11 -7 14 -16z m466 12 c0 -3 -4 -8 -10 -11 -5 -3 -10 -1 -10 4 0 6 5 11 10
11 6 0 10 -2 10 -4z m75 -8 c-2 -7 -9 -32 -15 -55 -6 -24 -15 -43 -20 -43 -10
0 -7 64 5 93 8 19 37 24 30 5z m2 -120 c-3 -8 -6 -5 -6 6 -1 11 2 17 5 13 3
-3 4 -12 1 -19z m453 -744 c0 -8 5 -12 10 -9 18 11 10 -1 -17 -26 -20 -18 -25
-20 -20 -6 8 23 -9 22 -35 -3 -31 -29 -46 -25 -18 5 13 14 34 25 46 25 17 0
22 4 18 15 -4 8 -1 15 5 15 6 0 11 -7 11 -16z m-50 -78 c0 -3 -4 -8 -10 -11
-5 -3 -10 -1 -10 4 0 6 5 11 10 11 6 0 10 -2 10 -4z m-36 -30 c-3 -8 -13 -17
-22 -21 -13 -5 -13 -2 3 15 21 24 26 25 19 6z m-54 -10 c0 -2 -7 -7 -16 -10
-8 -3 -12 -2 -9 4 6 10 25 14 25 6z m-205 -166 c-16 -16 -33 -30 -39 -30 -5 0
3 14 19 30 16 17 33 30 39 30 5 0 -3 -13 -19 -30z m-85 -280 c0 -5 -2 -10 -4
-10 -3 0 -8 5 -11 10 -3 6 -1 10 4 10 6 0 11 -4 11 -10z m3360 -1490 c0 -5 -5
-10 -11 -10 -5 0 -7 5 -4 10 3 6 8 10 11 10 2 0 4 -4 4 -10z m-2023 -506 c-3
-3 -12 -4 -19 -1 -8 3 -5 6 6 6 11 1 17 -2 13 -5z m-1122 -588 c-4 -20 -11
-36 -16 -36 -5 0 -7 6 -5 13 3 6 7 25 11 41 9 41 18 25 10 -18z m72 -58 c-3
-8 -6 -5 -6 6 -1 11 2 17 5 13 3 -3 4 -12 1 -19z m-4100 -64 c-3 -3 -12 -4
-19 -1 -8 3 -5 6 6 6 11 1 17 -2 13 -5z m5971 -188 c-7 -8 -17 -12 -22 -9 -4
3 -2 9 5 14 22 13 31 11 17 -5z m32 -54 c0 -17 -87 -82 -110 -82 -5 0 -10 9
-10 20 0 13 7 20 19 20 10 0 25 7 32 16 20 24 69 42 69 26z m-2029 -73 c-5
-13 -10 -19 -10 -12 -1 15 10 45 15 40 3 -2 0 -15 -5 -28z m1819 -9 c0 -11 -4
-20 -10 -20 -5 0 -10 9 -10 20 0 11 5 20 10 20 6 0 10 -9 10 -20z m-622 -91
c-18 -12 -23 8 -6 28 12 15 13 15 16 -2 2 -10 -2 -21 -10 -26z m52 15 c0 -4
-8 -14 -19 -23 -10 -9 -21 -25 -24 -36 -4 -17 -5 -16 -6 4 0 13 7 32 17 42 17
18 32 24 32 13z m320 -29 c0 -8 -2 -15 -4 -15 -2 0 -6 7 -10 15 -3 8 -1 15 4
15 6 0 10 -7 10 -15z m-7089 -29 c7 -14 17 -22 25 -19 8 3 14 0 14 -6 0 -5 8
-18 18 -28 15 -15 17 -24 10 -50 -5 -18 -15 -33 -22 -33 -8 0 -17 -7 -20 -16
-8 -21 4 -41 14 -24 6 9 12 10 26 1 17 -9 17 -10 2 -11 -10 0 -18 -5 -18 -12
0 -6 -7 -19 -16 -29 -17 -18 -12 -39 9 -39 7 0 18 -12 25 -27 11 -25 10 -29
-10 -45 -13 -10 -17 -18 -10 -18 6 0 12 -8 12 -17 0 -14 -3 -13 -23 5 -13 12
-34 22 -47 22 -22 0 -22 -1 -7 -18 29 -32 21 -44 -23 -38 -30 4 -40 2 -40 -8
0 -8 7 -16 15 -20 20 -7 19 -39 -2 -64 -21 -24 -76 -21 -66 4 3 8 0 14 -7 14
-7 0 -10 6 -7 14 5 13 -11 26 -32 26 -4 0 -8 -22 -10 -49 -1 -38 2 -52 15 -59
16 -9 15 -13 -12 -40 -16 -16 -40 -32 -52 -36 -12 -4 -22 -12 -22 -17 0 -14
-22 -11 -41 7 -16 15 -16 18 4 60 20 41 25 45 56 42 34 -3 53 14 32 27 -6 3
-11 1 -11 -5 0 -7 -8 -9 -22 -4 -31 9 -30 7 -14 38 9 18 16 23 21 16 12 -19
33 22 31 60 -3 47 10 70 38 70 24 0 41 24 30 41 -3 5 -12 9 -20 9 -8 0 -14 7
-14 15 0 8 5 15 10 15 6 0 10 -5 10 -11 0 -5 4 -8 8 -5 5 3 9 23 10 45 1 21 6
50 11 64 5 14 7 28 4 31 -4 3 5 6 18 6 34 0 56 15 34 23 -13 6 -14 10 -3 29 7
13 11 27 10 31 -1 4 5 10 13 13 8 4 15 15 15 25 0 27 18 24 31 -5z m-380 -26
c5 0 9 -4 9 -8 0 -5 -13 -7 -30 -4 -16 2 -27 9 -24 14 3 5 13 7 21 4 8 -3 19
-6 24 -6z m-42 -25 c16 5 21 2 19 -12 -3 -44 1 -50 42 -51 34 -2 40 1 40 19 0
23 18 21 34 -4 8 -12 7 -20 -3 -29 -9 -8 -12 -9 -7 -1 3 6 2 14 -4 18 -5 3
-10 -1 -10 -10 0 -9 -5 -25 -11 -36 -9 -17 -13 -18 -25 -8 -13 10 -17 10 -23
0 -5 -7 -20 -19 -35 -26 -24 -13 -32 -12 -64 3 -43 20 -55 64 -22 82 27 15 32
13 26 -12 -3 -13 -3 -17 0 -10 3 6 13 12 22 12 16 1 16 2 0 13 -9 7 -17 22
-18 32 -4 32 0 41 9 26 5 -8 16 -11 30 -6z m7460 -17 c-2 -22 12 -56 27 -62
18 -7 23 4 20 37 -2 15 1 27 5 27 5 0 9 -4 9 -10 0 -12 36 -14 43 -2 2 4 2 1
1 -6 -2 -7 2 -15 9 -18 9 -3 12 -16 9 -35 -3 -19 -9 -28 -17 -25 -8 3 -16 -2
-19 -10 -10 -26 -7 -96 6 -130 9 -27 9 -37 -6 -58 -18 -28 -54 -34 -74 -14
-16 16 -15 48 1 48 20 0 40 39 27 55 -9 11 -21 11 -66 0 -58 -13 -59 -13 -66
29 -2 11 -9 21 -15 24 -9 2 -13 -10 -13 -41 0 -40 -3 -46 -29 -57 -20 -8 -35
-9 -48 -2 -10 6 -22 11 -28 12 -5 1 -21 7 -35 12 -16 6 -26 6 -28 -1 -2 -6
-15 -11 -28 -11 -19 0 -24 5 -24 26 0 17 -6 28 -20 31 -11 3 -20 11 -20 19 0
17 36 27 81 22 32 -3 34 -1 32 26 -2 26 22 57 47 62 3 0 18 6 34 13 16 6 30
10 31 9 1 -2 7 -12 13 -23 13 -27 69 -29 64 -3 -1 9 2 19 7 22 6 4 9 -13 8
-41 -1 -27 2 -48 8 -48 6 0 9 11 7 24 -2 17 1 22 12 18 8 -3 20 0 26 8 9 11 7
17 -9 27 -26 16 -27 45 -3 51 9 3 18 5 20 6 2 0 2 -5 1 -11z m611 -8 c0 -5 -4
-10 -10 -10 -5 0 -10 5 -10 10 0 6 5 10 10 10 6 0 10 -4 10 -10z m-7910 -10
c0 -5 -2 -10 -4 -10 -3 0 -8 5 -11 10 -3 6 -1 10 4 10 6 0 11 -4 11 -10z
m7880 -4 c0 -8 -7 -21 -15 -30 -8 -8 -15 -22 -15 -31 0 -9 -6 -15 -12 -13 -22
8 -21 39 3 64 26 27 39 31 39 10z m-680 -16 c0 -5 -4 -10 -10 -10 -5 0 -10 5
-10 10 0 6 5 10 10 10 6 0 10 -4 10 -10z m-7472 -42 c-2 -25 2 -34 20 -44 13
-6 19 -15 14 -18 -6 -3 -13 -2 -17 4 -3 5 -15 10 -26 10 -21 0 -24 16 -9 54
13 35 21 33 18 -6z m8029 -63 c18 -13 22 -13 33 0 19 22 30 18 30 -11 0 -14
-4 -23 -10 -19 -6 4 -10 -6 -10 -24 0 -33 -19 -81 -32 -81 -4 0 -8 11 -8 24 0
14 -5 28 -11 32 -6 3 -9 14 -6 24 2 10 1 24 -4 31 -6 9 -9 -1 -9 -28 0 -24 5
-43 10 -43 6 0 10 -8 10 -17 -1 -15 -5 -13 -24 9 -16 18 -30 25 -44 21 -18 -4
-20 -2 -14 19 9 30 44 77 57 78 6 0 20 -7 32 -15z m-8027 -19 c0 -18 -14 -28
-24 -18 -4 4 -13 7 -18 7 -27 0 -15 21 12 23 21 2 30 -2 30 -12z m120 10 c0
-2 -11 -6 -25 -8 -14 -3 -25 -1 -25 3 0 5 11 9 25 9 14 0 25 -2 25 -4z m-60
-16 c0 -5 -7 -10 -15 -10 -8 0 -15 5 -15 10 0 6 7 10 15 10 8 0 15 -4 15 -10z
m-6 -29 c3 -4 -6 -13 -20 -20 -20 -9 -24 -9 -18 1 6 10 4 11 -7 1 -16 -16 -29
-17 -29 -3 0 19 64 38 74 21z m-84 -86 c24 -39 21 -76 -5 -55 -8 7 -16 9 -16
4 -1 -5 -2 -15 -3 -23 0 -8 -11 -15 -23 -16 -12 -1 -21 1 -20 4 1 3 -2 6 -8 6
-5 0 -10 -10 -10 -22 1 -16 -3 -19 -11 -12 -21 18 -69 5 -72 -19 -2 -12 -8
-22 -14 -22 -5 0 -7 7 -4 16 3 9 6 23 6 33 0 9 18 35 41 58 30 31 45 39 62 35
12 -3 25 -9 28 -14 8 -13 39 2 39 18 0 8 -7 14 -15 14 -16 0 -20 12 -8 23 9
10 9 10 33 -28z m-404 -80 c9 -8 11 -15 6 -15 -5 0 -15 7 -22 15 -7 8 -9 15
-6 15 4 0 14 -7 22 -15z m7749 -4 c7 -12 -22 -20 -60 -16 -39 4 -37 3 -30 15
8 13 82 13 90 1z m-3915 -5 c0 -3 -4 -8 -10 -11 -5 -3 -10 -1 -10 4 0 6 5 11
10 11 6 0 10 -2 10 -4z m3350 -4 c0 -4 -16 -12 -35 -18 -39 -12 -47 -5 -12 12
27 14 47 17 47 6z m159 -13 c20 -7 31 -18 31 -30 0 -23 -3 -23 -43 -3 -41 21
-40 21 -32 33 8 13 5 13 44 0z m181 -63 c0 -19 -3 -47 -6 -64 -6 -29 -7 -29
-41 -19 -66 21 -68 107 -2 118 45 7 49 4 49 -35z m560 25 c0 -9 -98 -21 -113
-14 -4 3 -5 9 -2 14 8 12 115 12 115 0z m-7776 -17 c9 -24 8 -25 -13 -12 -11
7 -17 16 -15 20 8 13 21 9 28 -8z m8005 2 c19 -22 -4 -60 -31 -52 -12 3 -31 0
-42 -7 -12 -6 -23 -12 -26 -12 -3 -1 -22 -9 -44 -18 -49 -22 -47 -22 -35 13 6
17 17 30 24 30 8 0 26 11 40 24 38 35 95 46 114 22z m152 -12 c7 -9 21 -19 30
-23 16 -6 16 -8 -1 -41 l-18 -35 -14 33 -13 34 -28 -22 c-15 -12 -27 -31 -27
-44 0 -13 -8 -30 -18 -39 -17 -16 -20 -15 -40 4 -27 24 -37 19 -46 -22 -3 -18
-11 -29 -18 -27 -30 10 -20 81 14 99 18 10 24 8 35 -7 12 -17 13 -16 13 5 0
25 14 57 38 84 19 22 75 22 93 1z m-8211 -9 c-1 -5 13 -16 31 -24 40 -20 48
-38 17 -43 -13 -2 -21 -7 -20 -12 2 -5 -2 -13 -10 -17 -11 -8 -11 -10 1 -18 9
-6 10 -10 2 -16 -7 -3 -9 -15 -6 -26 4 -11 2 -19 -5 -19 -21 0 -44 -33 -42
-59 3 -33 -5 -44 -47 -64 -39 -19 -47 -17 -32 11 5 10 7 29 4 42 -5 20 -3 22
19 18 29 -5 52 20 37 43 -5 8 -9 20 -9 28 0 11 3 11 14 1 9 -7 20 -8 28 -3 15
9 18 83 3 83 -5 0 -1 8 10 16 20 15 19 15 -5 12 -14 -2 -24 -9 -22 -16 2 -10
-12 -17 -21 -9 -12 8 -37 -37 -37 -67 0 -20 -4 -36 -10 -36 -17 0 -11 63 9 93
10 16 16 37 14 48 -5 19 14 25 56 19 9 -1 12 4 7 15 -3 10 -2 15 5 13 6 -2 10
-8 9 -13z m625 -15 c-3 -5 -11 -10 -16 -10 -6 0 -7 5 -4 10 3 6 11 10 16 10 6
0 7 -4 4 -10z m-47 -71 c-2 -5 -9 -5 -17 0 -9 6 -11 16 -6 32 l8 24 9 -24 c5
-13 7 -28 6 -32z m7542 -147 c14 -55 4 -70 -24 -39 -26 28 -41 83 -25 93 6 3
8 13 5 23 -4 9 3 5 13 -9 11 -14 25 -44 31 -68z m-7667 59 c28 -1 37 -5 37
-19 0 -24 -104 -50 -126 -31 -28 23 -7 61 30 54 12 -2 38 -4 59 -4z m-780 -31
c3 -13 0 -20 -8 -20 -18 0 -28 17 -21 36 7 19 22 11 29 -16z m27 14 c0 -8 -4
-12 -10 -9 -5 3 -10 10 -10 16 0 5 5 9 10 9 6 0 10 -7 10 -16z m334 -120 c14
-5 10 -13 -19 -41 -43 -42 -55 -37 -29 12 20 37 23 39 48 29z m6937 -20 c9
-11 7 -14 -12 -14 -30 0 -53 15 -45 28 8 13 42 4 57 -14z m459 -20 c0 -8 -7
-17 -16 -21 -8 -3 -13 -12 -10 -19 3 -8 1 -14 -4 -14 -17 0 -50 -34 -50 -51 0
-19 -18 -29 -38 -22 -10 4 -10 8 -1 19 7 8 15 31 18 51 5 30 12 38 41 49 19 7
27 13 18 13 -10 1 -18 5 -18 9 0 5 14 7 30 4 17 -2 30 -10 30 -18z m-330 -37
c0 -18 -24 -67 -32 -67 -11 0 -10 38 2 45 5 3 7 12 3 20 -3 9 1 15 11 15 9 0
16 -6 16 -13z m585 -6 c3 -5 1 -12 -5 -16 -5 -3 -10 1 -10 9 0 18 6 21 15 7z
m33 -13 c2 -9 -4 -18 -12 -21 -12 -5 -15 0 -14 18 3 27 21 29 26 3z m-661 -12
c-8 -16 -14 -21 -19 -13 -13 21 -9 37 11 37 17 0 18 -3 8 -24z m-7174 -3 c-7
-2 -19 -2 -25 0 -7 3 -2 5 12 5 14 0 19 -2 13 -5z m8040 0 c-7 -2 -19 -2 -25
0 -7 3 -2 5 12 5 14 0 19 -2 13 -5z m-633 -28 c0 -16 -6 -25 -16 -25 -11 0
-14 5 -10 16 3 9 6 20 6 25 0 5 5 9 10 9 6 0 10 -11 10 -25z m645 5 c4 -6 -7
-10 -24 -10 -17 0 -31 5 -31 10 0 6 11 10 24 10 14 0 28 -4 31 -10z m127 -13
c-32 -6 -45 -15 -52 -32 -7 -17 -14 -22 -29 -18 -16 4 -21 1 -21 -16 0 -14 -6
-21 -18 -21 -10 0 -23 -5 -30 -12 -18 -18 -22 -6 -12 36 9 42 23 56 58 56 12
0 22 4 22 9 0 11 85 19 110 11 8 -2 -4 -8 -28 -13z m18 -76 c0 -20 -35 -69
-43 -61 -3 3 -8 19 -11 35 -5 25 -3 32 16 41 28 13 38 9 38 -15z m-6360 -1 c0
-5 -2 -10 -4 -10 -3 0 -8 5 -11 10 -3 6 -1 10 4 10 6 0 11 -4 11 -10z m6447
-122 c-3 -8 -6 -5 -6 6 -1 11 2 17 5 13 3 -3 4 -12 1 -19z m-988 -74 c-32 -34
-36 -22 -8 23 19 30 24 34 27 20 2 -11 -6 -30 -19 -43z m589 -216 c-2 -7 4
-13 12 -13 15 0 35 -16 59 -47 11 -15 11 -21 0 -35 -11 -13 -11 -17 -1 -20 6
-3 12 -11 12 -18 0 -22 -29 -70 -42 -70 -7 -1 -26 -9 -41 -19 -28 -19 -28 -19
-53 7 -13 14 -24 33 -24 40 0 20 26 41 35 27 9 -15 22 -12 29 7 5 11 1 22 -9
29 -20 15 -26 58 -13 96 10 27 41 41 36 16z m449 -110 c-3 -8 -6 -5 -6 6 -1
11 2 17 5 13 3 -3 4 -12 1 -19z m-120 -80 c-3 -8 -6 -5 -6 6 -1 11 2 17 5 13
3 -3 4 -12 1 -19z m139 -3 c-21 -16 -32 -13 -21 4 3 6 14 11 23 11 15 -1 15
-2 -2 -15z m-1387 -1595 c9 0 21 -4 27 -10 9 -9 38 -25 184 -101 59 -30 150
-103 150 -119 0 -4 -18 -15 -41 -25 -22 -10 -47 -28 -55 -39 -8 -12 -18 -20
-21 -18 -4 2 -9 -1 -11 -6 -1 -5 13 -13 33 -16 19 -4 35 -11 35 -16 0 -6 5
-10 11 -10 6 0 9 6 6 13 -8 21 11 57 31 57 10 0 23 5 29 11 6 6 23 9 39 7 36
-4 43 -32 14 -56 -33 -27 -31 -100 3 -150 32 -46 35 -78 7 -87 -23 -7 -40 1
-40 19 0 7 -11 18 -25 24 -14 6 -25 17 -24 24 0 10 2 10 6 1 5 -15 23 -18 23
-5 0 5 -11 14 -25 20 -14 6 -24 17 -23 24 2 7 -3 12 -11 10 -7 -2 -21 4 -31
13 -17 15 -19 15 -32 -4 -8 -11 -13 -36 -12 -55 3 -29 -1 -36 -27 -46 -16 -7
-34 -21 -40 -32 -5 -10 -14 -16 -20 -13 -5 4 -9 -3 -9 -14 0 -12 4 -21 9 -21
5 0 11 -9 14 -20 3 -11 13 -23 24 -26 10 -3 30 -12 45 -20 14 -8 31 -14 38
-14 13 0 199 -89 218 -105 7 -5 18 -15 25 -21 7 -5 20 -13 30 -17 11 -4 21
-16 24 -27 5 -19 39 -37 50 -26 4 3 1 6 -5 6 -7 0 -12 5 -12 10 0 19 25 10 70
-25 61 -47 80 -66 80 -81 0 -8 6 -11 15 -8 9 4 19 -3 26 -20 9 -18 20 -26 38
-26 35 -1 111 -36 112 -52 1 -7 1 -18 0 -24 -1 -7 10 -15 24 -18 14 -4 33 -13
43 -22 39 -35 112 -84 124 -84 15 0 99 -57 151 -102 30 -25 30 -27 10 -28 -12
0 -25 5 -28 10 -3 6 -16 10 -27 10 -12 0 -37 12 -56 27 -28 21 -34 23 -29 8 6
-15 5 -16 -7 -6 -11 9 -15 9 -19 -1 -3 -10 -9 -9 -25 5 -15 14 -21 15 -25 5
-4 -10 -7 -10 -15 1 -13 18 -42 7 -49 -19 -7 -27 -20 -25 -27 5 -4 16 0 34 10
51 13 19 14 28 5 37 -8 8 -11 8 -11 -1 0 -7 -4 -12 -10 -12 -5 0 -10 7 -10 15
0 9 -7 15 -17 13 -10 -2 -19 5 -22 17 -6 21 -26 25 -48 12 -8 -5 -13 -4 -13 2
0 20 -16 11 -33 -18 -9 -16 -14 -36 -11 -45 7 -19 -11 -22 -22 -4 -14 22 -10
147 4 153 12 4 8 18 -16 55 -2 2 -6 0 -10 -5 -4 -6 -16 -15 -27 -21 -17 -9
-21 -23 -23 -85 -4 -98 5 -159 24 -159 8 0 17 7 20 15 4 8 12 15 20 15 8 0 11
-6 8 -15 -4 -10 0 -15 11 -15 26 0 14 -33 -18 -48 -19 -9 -27 -21 -27 -38 0
-17 -7 -28 -20 -31 -22 -6 -28 -33 -7 -33 7 0 28 -8 48 -18 19 -10 50 -16 69
-15 19 2 37 -2 42 -9 6 -10 8 -10 8 0 0 8 15 12 44 12 46 0 106 -17 106 -30 0
-6 42 -20 75 -25 6 0 33 -8 60 -17 28 -10 71 -20 98 -24 26 -3 47 -10 47 -14
0 -4 14 -10 31 -14 17 -3 43 -15 59 -26 15 -11 34 -20 42 -20 8 0 23 -7 34
-15 27 -20 34 -19 34 10 0 42 48 33 117 -22 32 -26 60 -50 63 -53 3 -3 22 -18
42 -33 50 -37 64 -63 45 -85 -8 -9 -14 -31 -13 -49 0 -17 -2 -29 -6 -26 -5 2
-8 13 -8 24 0 10 -4 19 -10 19 -5 0 -10 -5 -10 -11 0 -8 -5 -8 -15 1 -8 7 -15
19 -15 26 0 8 -11 19 -25 26 -28 12 -36 35 -21 60 17 28 -4 35 -24 8 -16 -21
-22 -23 -37 -12 -10 6 -29 17 -43 23 -13 5 -28 15 -32 21 -5 9 -19 9 -54 1
-34 -8 -52 -8 -65 0 -13 8 -21 7 -33 -2 -21 -17 -21 -41 0 -41 14 0 14 -2 0
-15 -22 -23 -49 -19 -43 5 8 29 -8 33 -35 8 -21 -18 -23 -25 -14 -45 6 -13 24
-27 41 -32 17 -4 29 -13 27 -20 -1 -6 2 -11 8 -11 5 0 10 5 10 11 0 6 9 8 22
3 26 -8 48 -28 48 -43 0 -14 17 -14 25 -1 3 6 1 10 -4 10 -6 0 -11 11 -11 25
0 14 5 25 10 25 6 0 10 -7 10 -16 0 -11 6 -14 23 -9 19 5 20 4 5 -5 -32 -20
-19 -27 50 -25 94 1 103 -2 97 -35 -4 -22 1 -31 20 -44 24 -16 25 -15 25 4 0
13 7 20 19 20 35 0 71 -19 71 -37 1 -10 7 -29 15 -43 9 -18 10 -29 3 -38 -13
-15 -11 -17 18 -26 21 -6 21 -5 10 26 -6 18 -15 39 -19 46 -12 17 2 35 22 27
9 -4 22 -8 28 -9 7 -1 22 -12 33 -24 26 -28 33 -28 25 0 -6 17 -4 20 10 15 9
-4 23 -7 30 -7 8 0 17 -15 21 -35 7 -40 24 -57 24 -25 0 17 4 20 23 15 17 -5
19 -4 7 4 -12 8 -12 13 -3 22 9 9 15 9 27 0 8 -7 20 -10 26 -6 6 3 10 -3 10
-16 0 -17 3 -19 14 -10 16 13 83 -6 69 -20 -12 -12 -92 -15 -123 -6 -23 7 -24
7 -7 -7 15 -12 16 -18 7 -35 -9 -18 -14 -20 -33 -9 -36 20 -76 18 -83 -4 -3
-11 -8 -17 -11 -14 -4 3 -12 1 -19 -5 -7 -6 -28 -11 -46 -11 -41 -1 -54 -8
-37 -19 24 -15 1 -21 -43 -11 -23 5 -35 10 -25 11 21 1 23 19 2 27 -18 7 -43
-16 -37 -35 3 -10 0 -11 -17 -2 -11 7 -21 16 -21 22 0 6 6 7 13 3 6 -4 4 2 -6
12 -15 16 -19 17 -27 4 -5 -8 -7 -17 -4 -21 7 -13 -34 -21 -53 -11 -21 11
-111 28 -201 38 -34 4 -65 11 -68 15 -3 5 -26 9 -52 10 -40 0 -176 36 -147 38
17 2 -46 31 -66 31 -10 0 -21 5 -24 10 -3 6 -21 10 -39 10 -19 0 -39 6 -45 14
-11 13 -18 12 -57 -2 -24 -9 -44 -22 -44 -29 0 -17 27 -17 34 0 3 6 5 3 3 -8
-3 -30 -53 -32 -83 -4 -28 27 -30 46 -7 71 13 15 14 21 5 27 -7 4 -10 15 -7
23 9 23 -11 31 -37 17 -28 -15 -92 -22 -183 -19 -11 0 -36 5 -55 10 -25 7 -40
6 -56 -5 -12 -8 -25 -10 -30 -5 -13 12 -144 19 -144 7 0 -5 -7 -4 -15 3 -8 6
-19 9 -25 5 -5 -3 -10 1 -10 9 0 10 -9 16 -25 16 -14 0 -25 5 -25 10 0 6 -13
10 -30 10 -19 0 -33 7 -40 20 -10 18 -19 20 -72 17 -49 -3 -77 1 -135 23 -40
14 -71 28 -69 31 3 3 -9 6 -26 7 -17 1 -36 6 -42 10 -6 4 -20 7 -31 8 -67 3
-181 18 -250 34 -44 10 -83 16 -88 13 -4 -2 -42 3 -84 12 -58 13 -77 21 -80
37 -4 12 -11 17 -21 13 -8 -3 -20 -1 -26 4 -23 19 -134 42 -286 60 -190 23
-256 33 -265 42 -11 11 -28 12 -22 2 3 -5 1 -18 -4 -31 -8 -20 -13 -22 -53
-17 -26 4 -47 2 -50 -4 -4 -5 -28 -12 -54 -16 -26 -3 -63 -8 -83 -10 -31 -4
-38 -1 -47 20 -6 14 -18 25 -27 25 -8 0 -15 5 -15 11 0 6 -26 38 -57 70 -98
100 -96 95 -82 134 10 28 10 37 -3 57 -14 22 -14 27 13 73 15 27 35 50 45 51
46 7 141 142 159 224 15 74 155 277 235 341 21 17 46 50 56 75 22 52 36 59 20
9 -6 -19 -14 -35 -18 -35 -5 0 -8 -11 -8 -23 0 -20 8 -26 58 -40 31 -8 86 -21
122 -27 78 -14 110 -32 110 -63 0 -30 -67 -109 -89 -105 -9 1 -21 -1 -27 -5
-6 -3 -19 2 -29 13 -10 11 -28 20 -40 20 -12 0 -34 9 -48 20 -34 27 -77 26
-84 0 -4 -14 -11 -19 -23 -15 -23 7 -21 -16 3 -43 23 -25 21 -42 -4 -42 -17 0
-19 -3 -10 -14 14 -17 51 -28 51 -15 0 15 27 10 45 -7 12 -13 19 -14 30 -4 25
21 16 -5 -10 -30 -14 -13 -25 -18 -25 -11 0 7 -5 9 -11 6 -6 -4 -17 1 -24 11
-8 11 -15 15 -15 10 0 -5 7 -17 15 -26 14 -15 14 -20 1 -45 -8 -15 -18 -31
-23 -34 -26 -19 -129 -188 -120 -197 6 -6 97 95 97 107 0 5 9 9 20 9 12 0 20
7 20 16 0 8 7 22 15 30 8 8 18 20 22 27 5 7 30 30 58 52 27 22 58 48 69 59 15
15 20 16 27 5 8 -14 24 -5 24 14 0 7 8 13 18 15 29 6 18 -21 -28 -68 -25 -25
-45 -51 -45 -58 0 -7 -7 -20 -15 -28 -8 -9 -15 -21 -15 -27 0 -7 41 32 91 86
50 53 95 97 99 97 5 0 11 -8 13 -17 3 -10 5 -4 6 14 0 17 8 39 17 47 13 14 13
16 1 16 -9 0 -28 -8 -45 -17 -16 -9 -36 -13 -46 -10 -17 7 -17 8 0 35 10 15
30 50 45 77 20 38 31 50 48 49 17 -1 28 11 46 45 34 65 54 86 104 111 36 18
54 21 97 15 30 -3 56 -11 59 -16 15 -23 55 -7 92 37 71 86 83 96 105 91 23 -6
48 1 48 14 0 5 -8 9 -17 9 -15 0 -16 2 -3 10 8 5 27 10 41 10 23 0 32 13 82
113 31 62 75 132 98 157 23 25 52 62 65 82 13 20 32 39 44 43 11 3 20 13 20
21 0 8 5 12 11 9 6 -4 18 3 27 16 9 13 17 18 20 11 2 -7 11 -12 21 -12z m626
-318 c11 -6 56 -21 100 -32 86 -23 139 -50 155 -81 6 -10 16 -19 23 -19 20 0
87 -76 87 -99 0 -11 -8 -24 -17 -30 -16 -8 -15 -11 10 -20 15 -6 32 -22 37
-36 5 -14 14 -25 20 -25 6 0 16 -13 21 -30 6 -16 14 -30 19 -30 9 0 125 -105
183 -165 43 -44 147 -196 147 -214 0 -6 -7 -11 -15 -11 -9 0 -18 -12 -22 -30
-3 -17 -10 -33 -14 -36 -5 -3 -9 -14 -9 -25 0 -10 -3 -19 -6 -19 -12 0 -35 31
-29 40 3 5 -1 10 -10 10 -9 0 -22 13 -28 30 -10 25 -17 30 -46 30 -33 0 -34 1
-15 14 16 12 16 15 4 20 -8 3 -28 10 -43 16 -18 6 -26 6 -22 0 11 -18 -9 -10
-39 15 -22 18 -34 21 -47 14 -11 -6 -20 -5 -24 1 -3 5 3 10 15 10 26 0 17 18
-14 30 -16 6 -27 23 -36 54 -10 38 -17 46 -36 46 -12 0 -26 -5 -29 -11 -4 -6
-13 -8 -21 -5 -8 3 -14 1 -14 -4 0 -22 -20 -8 -26 18 -6 22 -76 119 -126 173
-7 8 -18 24 -25 34 -92 148 -109 190 -88 222 19 28 19 43 2 43 -19 0 -60 46
-53 59 4 6 -5 13 -21 17 -76 16 -93 25 -93 49 l0 22 63 -16 c34 -10 71 -23 82
-29z m-6035 -92 c0 -5 -4 -10 -10 -10 -5 0 -10 5 -10 10 0 6 5 10 10 10 6 0
10 -4 10 -10z m4457 -27 c0 -17 -5 -23 -21 -23 -12 0 -26 4 -31 9 -6 5 -21 11
-35 13 l-25 5 25 10 c14 6 39 10 56 9 25 -1 31 -5 31 -23z m-137 7 c0 -6 -10
-15 -22 -21 -32 -14 -58 -30 -98 -60 -19 -14 -42 -30 -50 -34 -13 -8 -13 -7 0
10 51 65 170 138 170 105z m478 -52 c46 -10 49 -15 28 -43 -13 -17 -15 -17
-60 15 -46 33 -62 59 -28 45 9 -4 36 -12 60 -17z m892 2 c0 -5 -4 -10 -10 -10
-5 0 -10 5 -10 10 0 6 5 10 10 10 6 0 10 -4 10 -10z m-820 -34 c0 -3 -4 -8
-10 -11 -5 -3 -10 -1 -10 4 0 6 5 11 10 11 6 0 10 -2 10 -4z m-500 -436 c0 -5
-4 -10 -10 -10 -5 0 -10 5 -10 10 0 6 5 10 10 10 6 0 10 -4 10 -10z m2014 -6
c7 -19 -1 -34 -19 -34 -18 0 -28 17 -21 35 7 20 32 19 40 -1z m-2154 -13 c0
-5 -7 -11 -15 -15 -15 -5 -20 5 -8 17 9 10 23 9 23 -2z m2350 -134 c0 -8 -3
-16 -6 -20 -9 -8 -54 14 -48 24 8 14 54 10 54 -4z m-340 -297 c0 -5 -7 -10
-16 -10 -8 0 -12 5 -9 10 3 6 10 10 16 10 5 0 9 -4 9 -10z m-4925 -144 c142
-67 236 -116 267 -138 15 -10 70 -39 123 -63 93 -44 162 -87 178 -112 4 -7 15
-13 22 -13 8 0 15 -4 15 -10 0 -5 6 -10 13 -10 7 0 29 -13 47 -30 18 -16 40
-30 48 -30 8 0 12 -6 9 -14 -4 -9 10 -21 44 -34 30 -13 49 -27 49 -37 0 -22
104 -125 163 -163 26 -16 67 -48 93 -71 25 -23 58 -44 73 -48 33 -8 70 -34 71
-50 0 -16 12 -17 26 -3 6 6 20 0 41 -19 17 -15 39 -31 48 -35 9 -3 15 -12 12
-19 -3 -8 3 -19 13 -25 12 -7 16 -18 13 -32 -4 -14 -1 -20 11 -20 9 0 16 -4
16 -9 0 -4 25 -34 55 -66 30 -32 55 -64 55 -70 0 -6 28 -41 63 -77 34 -36 62
-71 63 -77 1 -6 2 -18 3 -26 0 -8 8 -15 16 -15 8 0 15 -7 15 -15 0 -8 7 -15
15 -15 8 0 15 -9 15 -20 0 -11 7 -20 15 -20 8 0 15 -7 15 -15 0 -9 10 -15 23
-16 12 0 16 -3 10 -6 -17 -6 -16 -28 2 -43 8 -7 15 -20 15 -30 0 -9 11 -29 24
-45 l24 -28 73 29 c41 15 80 33 87 40 7 7 34 15 60 19 26 3 73 12 104 20 32 8
68 15 80 15 13 0 78 18 146 40 122 40 185 49 197 30 3 -5 16 -11 28 -11 17 -1
18 -2 5 -6 -33 -8 -19 -25 14 -18 25 6 30 4 25 -8 -7 -17 11 -37 33 -37 9 0
27 -10 39 -22 23 -20 23 -22 5 -35 -15 -11 -7 -13 62 -13 58 -1 74 -3 62 -11
-24 -13 -23 -25 2 -32 15 -4 20 0 20 14 0 10 7 19 15 19 8 0 15 -4 15 -10 0
-5 8 -10 18 -10 10 0 19 -7 19 -15 0 -11 -11 -15 -39 -15 -21 0 -38 -4 -38 -9
0 -6 -21 -13 -47 -17 -27 -3 -57 -11 -68 -17 -20 -10 -31 -13 -97 -23 -21 -4
-38 -10 -38 -15 0 -5 -6 -9 -14 -9 -8 0 -18 -5 -22 -12 -9 -13 121 -4 140 10
11 9 114 32 166 37 14 2 57 12 95 23 39 12 108 26 154 31 46 6 89 15 95 20 6
5 27 11 46 13 19 3 43 8 53 13 13 6 17 2 18 -16 1 -21 2 -21 6 -4 7 28 17 32
87 34 51 1 63 -2 73 -18 17 -28 4 -33 -81 -36 -40 -1 -83 -8 -96 -15 -18 -9
-25 -10 -28 -1 -5 16 -22 14 -22 -4 0 -8 -8 -15 -18 -15 -10 0 -23 -5 -29 -11
-6 -6 -27 -11 -47 -11 -20 0 -36 -5 -36 -10 0 -6 -12 -8 -31 -4 -17 3 -39 1
-49 -4 -23 -13 -50 -3 -51 19 0 9 -5 4 -11 -11 -7 -20 -17 -28 -34 -28 -13 0
-27 -1 -31 -2 -77 -18 -137 -31 -173 -38 -25 -4 -56 -13 -70 -19 -14 -6 -51
-15 -83 -20 -48 -7 -61 -5 -74 7 -14 15 -15 14 -9 -6 7 -20 4 -22 -28 -22 -24
0 -36 -5 -36 -14 0 -9 -17 -16 -47 -21 -27 -4 -50 -11 -53 -15 -3 -4 -18 -9
-35 -11 -16 -2 -35 -7 -40 -10 -6 -4 -24 -6 -40 -4 -17 2 -46 0 -65 -5 -19 -5
-57 -11 -85 -13 -42 -4 -51 -8 -53 -26 -3 -16 -10 -21 -34 -21 -17 0 -58 -13
-92 -29 -33 -15 -74 -33 -89 -40 -15 -6 -25 -16 -22 -21 12 -20 -31 -9 -56 14
-14 13 -35 28 -47 35 -13 7 -19 17 -16 26 4 8 1 15 -6 15 -6 0 -8 5 -5 10 3 6
-1 10 -9 10 -14 0 -37 32 -52 72 -3 10 -14 20 -24 23 -9 3 -29 27 -43 54 -15
27 -34 54 -42 61 -8 7 -15 16 -15 20 0 5 -12 22 -27 39 -45 48 -83 98 -83 107
0 5 -15 25 -33 44 -77 85 -135 158 -153 192 -32 63 -98 148 -115 148 -23 0
-65 42 -73 73 -3 15 -11 27 -17 27 -6 0 -7 -4 -4 -10 3 -5 0 -10 -8 -10 -17 0
-49 34 -40 43 8 8 -17 57 -29 57 -5 0 -1 -11 7 -24 15 -23 15 -24 -2 -19 -10
2 -40 34 -68 70 -27 36 -88 99 -135 140 -47 42 -98 92 -115 112 -16 20 -37 43
-45 52 -8 8 -28 32 -45 52 -16 20 -34 37 -39 37 -4 0 -41 33 -80 73 -98 98
-157 152 -184 166 -12 6 -21 15 -20 19 3 11 -26 52 -36 52 -12 0 -136 128
-136 140 0 4 -24 23 -52 41 -70 45 -103 80 -86 91 7 4 15 6 18 5 3 -2 50 -24
105 -51z m1208 27 c-7 -2 -19 -2 -25 0 -7 3 -2 5 12 5 14 0 19 -2 13 -5z
m1295 -229 c14 -25 3 -54 -22 -54 -11 0 -39 -3 -61 -6 -39 -6 -39 -6 -18 10
13 10 19 23 16 35 -5 19 0 22 64 30 7 0 16 -6 21 -15z m150 -22 c-32 -4 -38
-22 -9 -22 11 0 23 -5 26 -11 4 -6 13 -8 20 -5 7 2 31 -4 52 -16 l38 -20 -45
5 c-25 2 -62 12 -82 21 -60 29 -60 70 0 57 l27 -6 -27 -3z m-541 2 c-3 -3 -12
-4 -19 -1 -8 3 -5 6 6 6 11 1 17 -2 13 -5z m663 -44 c0 -5 -2 -10 -4 -10 -3 0
-8 5 -11 10 -3 6 -1 10 4 10 6 0 11 -4 11 -10z m-335 -30 c-3 -5 -1 -10 4 -10
6 0 11 -4 11 -9 0 -5 -34 -8 -75 -8 -41 0 -75 4 -75 9 0 4 7 8 15 8 8 0 15 5
15 10 0 6 25 10 56 10 34 0 53 -4 49 -10z m3005 -10 c0 -5 -5 -10 -11 -10 -5
0 -7 5 -4 10 3 6 8 10 11 10 2 0 4 -4 4 -10z m-3165 -20 c3 -5 -1 -10 -9 -10
-9 0 -16 5 -16 10 0 6 4 10 9 10 6 0 13 -4 16 -10z m-90 -10 c-3 -5 -12 -7
-20 -3 -21 7 -19 13 6 13 11 0 18 -4 14 -10z m3760 0 c3 -5 1 -10 -4 -10 -6 0
-11 5 -11 10 0 6 2 10 4 10 3 0 8 -4 11 -10z m-5925 -31 c0 -5 -4 -9 -10 -9
-5 0 -10 7 -10 16 0 8 5 12 10 9 6 -3 10 -10 10 -16z m55 -24 c1 -14 -4 -25
-10 -25 -20 0 -25 13 -12 28 9 12 9 16 -1 19 -6 3 -9 9 -6 15 10 15 29 -9 29
-37z m2325 25 c-36 -11 -52 -11 -45 0 3 6 21 10 38 9 31 -1 31 -1 7 -9z m154
-40 c20 0 26 -5 26 -21 0 -20 -4 -21 -46 -16 -26 2 -50 10 -54 17 -6 10 -50
17 -133 19 -10 1 -15 6 -12 11 3 6 29 8 56 6 27 -2 64 0 82 4 22 5 35 3 43 -6
6 -8 23 -14 38 -14z m-319 0 c-3 -5 -16 -10 -28 -9 -20 1 -20 2 3 9 14 4 26 8
28 9 2 1 0 -3 -3 -9z m88 -87 c-7 -2 -19 -2 -25 0 -7 3 -2 5 12 5 14 0 19 -2
13 -5z m224 -99 c-3 -3 -12 -4 -19 -1 -8 3 -5 6 6 6 11 1 17 -2 13 -5z m-1187
-35 c0 -6 -7 -6 -20 1 -11 6 -20 15 -20 21 0 6 7 6 20 -1 11 -6 20 -15 20 -21z
m750 27 c0 -11 -19 -15 -25 -6 -3 5 1 10 9 10 9 0 16 -2 16 -4z m-699 -26 c9
0 27 -9 40 -20 l24 -20 -30 15 c-36 18 -55 19 -55 3 0 -19 -14 1 -17 25 -3 17
-1 19 9 9 6 -6 20 -12 29 -12z m-1003 -39 c19 -17 30 -41 17 -41 -5 0 -55 50
-55 55 0 10 16 4 38 -14z m2041 10 c33 -5 57 -14 63 -24 5 -10 18 -17 28 -17
31 0 34 -20 3 -22 -48 -3 -76 1 -129 17 -54 17 -90 23 -138 24 -18 1 -26 5
-20 10 21 20 101 25 193 12z m-1008 -19 c-7 -2 -18 1 -23 6 -8 8 -4 9 13 5 13
-4 18 -8 10 -11z m69 -30 c0 -12 3 -12 15 -2 11 9 20 8 44 -9 16 -12 36 -21
44 -21 9 0 19 -5 22 -10 4 -6 11 -8 16 -4 6 3 13 -3 16 -15 3 -12 13 -21 23
-21 17 0 36 -28 26 -38 -11 -10 -81 27 -80 43 2 12 -4 15 -25 10 -17 -3 -36 2
-56 15 -16 11 -45 30 -62 41 -40 25 -41 29 -8 27 14 -1 25 -9 25 -16z m911
-32 c23 -6 39 -17 39 -25 0 -21 -97 -20 -138 1 -43 21 -40 34 8 34 25 0 40 5
41 13 0 9 2 9 6 0 2 -7 22 -17 44 -23z m529 6 c0 -3 -4 -8 -10 -11 -5 -3 -10
-1 -10 4 0 6 5 11 10 11 6 0 10 -2 10 -4z m-409 -23 c13 -16 12 -17 -3 -4 -10
7 -18 15 -18 17 0 8 8 3 21 -13z m4025 -19 c0 -10 -2 -23 -4 -28 -6 -11 -22
15 -22 37 0 25 25 16 26 -9z m-40 -11 c-10 -10 -19 5 -10 18 6 11 8 11 12 0 2
-7 1 -15 -2 -18z m-29 -43 c-1 -11 -6 -19 -12 -17 -5 2 -15 -3 -21 -11 -9 -12
-12 -12 -23 2 -11 13 -10 17 5 23 11 3 23 13 27 20 11 18 26 7 24 -17z m-4717
-16 c0 -2 -11 -4 -25 -4 -18 0 -25 5 -25 20 0 20 1 20 25 4 14 -9 25 -18 25
-20z m5627 12 c-7 -18 22 -31 37 -16 15 15 23 12 30 -12 5 -19 8 -21 16 -8 8
13 10 12 10 -2 0 -10 5 -18 11 -18 6 0 9 7 5 15 -3 8 -1 15 5 15 9 0 29 -42
29 -58 0 -4 -7 -16 -15 -26 -10 -14 -18 -16 -27 -9 -7 6 -26 13 -41 17 -25 6
-26 8 -12 22 20 20 19 27 -2 20 -22 -6 -57 22 -65 52 -4 16 -2 22 9 22 9 0 13
-6 10 -14z m-5551 -33 c-4 -4 10 -17 29 -29 49 -29 31 -37 -27 -12 -57 24 -67
42 -25 45 16 1 27 -1 23 -4z m-1296 -13 c0 -5 -4 -10 -10 -10 -5 0 -10 5 -10
10 0 6 5 10 10 10 6 0 10 -4 10 -10z m7100 -41 c0 -5 -4 -7 -10 -4 -6 3 -7 -1
-4 -9 3 -9 3 -16 -1 -16 -11 0 -34 27 -28 34 10 10 43 7 43 -5z m-6986 -53
c19 4 28 -3 56 -50 19 -31 38 -56 42 -56 4 0 8 -7 8 -15 0 -9 7 -27 16 -40 20
-31 11 -49 -17 -34 -12 6 -18 13 -15 16 3 4 -6 14 -22 23 -15 9 -36 34 -47 56
-11 21 -35 57 -52 78 -18 22 -33 47 -33 55 1 11 7 7 21 -11 15 -21 26 -27 43
-22z m1330 25 c36 -14 44 -33 9 -25 -15 4 -29 11 -31 16 -2 4 -15 8 -28 8 -13
0 -24 5 -24 11 0 11 26 8 74 -10z m5816 -21 c0 -5 -2 -10 -4 -10 -3 0 -8 5
-11 10 -3 6 -1 10 4 10 6 0 11 -4 11 -10z m75 -20 c3 -5 -1 -10 -9 -10 -9 0
-16 5 -16 10 0 6 4 10 9 10 6 0 13 -4 16 -10z m82 -12 c-3 -8 -6 -5 -6 6 -1
11 2 17 5 13 3 -3 4 -12 1 -19z m-107 -13 c5 3 10 -2 10 -12 0 -12 3 -14 8 -6
4 7 13 9 21 4 7 -5 10 -14 7 -20 -9 -15 -39 -14 -54 1 -9 9 -12 8 -12 -4 0 -9
5 -18 12 -20 7 -3 6 -7 -5 -11 -13 -5 -17 -1 -17 16 0 12 -3 33 -7 47 -6 22
-5 24 10 12 9 -8 21 -11 27 -7z m-76 -20 c4 -14 11 -25 16 -25 6 0 10 -8 10
-17 0 -14 -2 -15 -9 -4 -5 8 -18 12 -30 8 -12 -3 -19 -1 -15 4 3 6 0 16 -6 24
-6 8 -9 19 -5 25 11 18 33 10 39 -15z m-199 -14 c3 -5 1 -12 -5 -16 -5 -3 -10
1 -10 9 0 18 6 21 15 7z m-8715 -11 c-19 -13 -30 -13 -30 0 0 6 10 10 23 10
18 0 19 -2 7 -10z m1956 -134 c20 -21 17 -28 -6 -16 -11 6 -20 15 -20 20 0 14
9 12 26 -4z m-151 -26 c3 -5 1 -10 -4 -10 -6 0 -11 5 -11 10 0 6 2 10 4 10 3
0 8 -4 11 -10z m-1415 -4 c0 -2 -7 -6 -15 -10 -8 -3 -15 -1 -15 4 0 6 7 10 15
10 8 0 15 -2 15 -4z m1655 -45 c11 -14 30 -36 43 -47 39 -37 125 -176 142
-231 24 -76 38 -104 63 -123 15 -12 27 -28 27 -35 0 -8 9 -17 20 -20 11 -3 20
-10 20 -14 0 -4 16 -25 35 -47 19 -21 35 -45 35 -51 0 -7 5 -13 10 -13 6 0 10
-7 10 -15 0 -8 5 -15 10 -15 6 0 10 -7 10 -15 0 -7 6 -18 13 -22 17 -10 30
-43 17 -43 -6 0 -10 5 -10 10 0 6 -7 10 -15 10 -9 0 -12 -6 -9 -15 4 -8 15
-15 25 -15 25 0 69 -29 69 -44 0 -7 11 -19 25 -26 14 -8 36 -30 48 -49 12 -20
33 -46 47 -58 22 -19 23 -24 12 -43 -7 -11 -10 -25 -7 -30 15 -24 -18 -7 -52
28 -21 20 -51 49 -68 63 -29 25 -37 34 -73 91 -9 16 -23 28 -29 28 -20 0 -15
-13 17 -48 17 -18 30 -39 30 -46 0 -21 -38 -26 -59 -8 -32 29 -69 87 -63 101
2 8 1 11 -4 8 -14 -8 -40 15 -49 43 -4 14 -18 41 -31 60 -13 19 -24 45 -24 57
0 12 -8 27 -19 32 -10 6 -28 30 -40 53 -20 40 -20 44 -4 56 15 11 16 16 5 33
-12 19 -70 135 -110 219 -9 19 -35 59 -57 89 -58 77 -75 104 -75 119 0 21 41
3 65 -27z m3018 -38 c-7 -2 -21 -2 -30 0 -10 3 -4 5 12 5 17 0 24 -2 18 -5z
m-6483 -27 c0 -3 -4 -8 -10 -11 -5 -3 -10 -1 -10 4 0 6 5 11 10 11 6 0 10 -2
10 -4z m1840 -16 c0 -5 -5 -10 -11 -10 -5 0 -7 5 -4 10 3 6 8 10 11 10 2 0 4
-4 4 -10z m184 -151 c-3 -5 -10 -7 -15 -3 -5 3 -7 10 -3 15 3 5 10 7 15 3 5
-3 7 -10 3 -15z m1529 -39 c4 -17 3 -19 -9 -9 -8 6 -14 18 -14 26 0 20 16 8
23 -17z m17 -51 c0 -6 -4 -7 -10 -4 -5 3 -10 11 -10 16 0 6 5 7 10 4 6 -3 10
-11 10 -16z m-3560 -69 c0 -5 -7 -10 -15 -10 -8 0 -15 5 -15 10 0 6 7 10 15
10 8 0 15 -4 15 -10z m1857 4 c-3 -3 -12 -4 -19 -1 -8 3 -5 6 6 6 11 1 17 -2
13 -5z m1558 -24 c-3 -5 -10 -10 -16 -10 -5 0 -9 5 -9 10 0 6 7 10 16 10 8 0
12 -4 9 -10z m-2515 -8 c0 -5 -11 -14 -25 -20 -28 -13 -35 1 -7 17 21 13 32
14 32 3z m-3 -58 c-3 -3 -12 -4 -19 -1 -8 3 -5 6 6 6 11 1 17 -2 13 -5z m850
0 c-3 -3 -12 -4 -19 -1 -8 3 -5 6 6 6 11 1 17 -2 13 -5z m158 -4 c3 -5 -1 -10
-9 -10 -9 0 -16 5 -16 10 0 6 4 10 9 10 6 0 13 -4 16 -10z m3690 -50 c3 -5 1
-10 -4 -10 -6 0 -11 5 -11 10 0 6 2 10 4 10 3 0 8 -4 11 -10z m-5175 -4 c0 -9
-30 -14 -35 -6 -4 6 3 10 14 10 12 0 21 -2 21 -4z m155 -6 c-3 -5 -10 -10 -16
-10 -5 0 -9 5 -9 10 0 6 7 10 16 10 8 0 12 -4 9 -10z m-175 -24 c0 -11 -19
-15 -25 -6 -3 5 1 10 9 10 9 0 16 -2 16 -4z m-70 -10 c0 -3 -4 -8 -10 -11 -5
-3 -10 -1 -10 4 0 6 5 11 10 11 6 0 10 -2 10 -4z m1200 -11 c-7 -8 -16 -15
-21 -15 -5 0 -9 7 -9 15 0 9 9 15 21 15 18 0 19 -2 9 -15z m-580 -25 c0 -5 -4
-10 -10 -10 -5 0 -10 5 -10 10 0 6 5 10 10 10 6 0 10 -4 10 -10z m-2153 -16
c-3 -3 -12 -4 -19 -1 -8 3 -5 6 6 6 11 1 17 -2 13 -5z m2023 -4 c0 -5 -6 -10
-14 -10 -8 0 -22 -7 -30 -16 -9 -8 -20 -12 -26 -9 -15 9 -2 25 21 25 10 0 19
5 19 10 0 6 7 10 15 10 8 0 15 -4 15 -10z m3885 -19 c-6 -5 -21 -12 -35 -16
-22 -7 -23 -6 -11 9 7 9 23 16 34 16 13 0 17 -4 12 -9z m-3385 -5 c0 -3 -4 -8
-10 -11 -5 -3 -10 -1 -10 4 0 6 5 11 10 11 6 0 10 -2 10 -4z m-2180 -30 c0
-16 -18 -31 -27 -22 -8 8 5 36 17 36 5 0 10 -6 10 -14z m1110 -1 c0 -8 -7 -15
-15 -15 -8 0 -15 7 -15 15 0 8 7 15 15 15 8 0 15 -7 15 -15z m120 5 c0 -5 -4
-10 -10 -10 -5 0 -10 5 -10 10 0 6 5 10 10 10 6 0 10 -4 10 -10z m60 -11 c0
-6 -4 -7 -10 -4 -5 3 -10 11 -10 16 0 6 5 7 10 4 6 -3 10 -11 10 -16z m80 6
c0 -8 -7 -15 -15 -15 -16 0 -20 12 -8 23 11 12 23 8 23 -8z m-330 -5 c0 -5 5
-9 11 -7 6 1 14 -4 16 -10 8 -21 -21 -15 -35 7 -7 12 -8 20 -2 20 5 0 10 -4
10 -10z m800 -5 c0 -9 -9 -15 -24 -15 -35 0 -42 18 -9 23 16 2 29 5 31 6 1 0
2 -6 2 -14z m333 8 c-7 -2 -19 -2 -25 0 -7 3 -2 5 12 5 14 0 19 -2 13 -5z
m-1168 -13 c-3 -5 -10 -10 -16 -10 -5 0 -9 5 -9 10 0 6 7 10 16 10 8 0 12 -4
9 -10z m555 0 c0 -5 -2 -10 -4 -10 -3 0 -8 5 -11 10 -3 6 -1 10 4 10 6 0 11
-4 11 -10z m417 4 c-3 -3 -12 -4 -19 -1 -8 3 -5 6 6 6 11 1 17 -2 13 -5z m363
-8 c0 -3 -4 -8 -10 -11 -5 -3 -10 -1 -10 4 0 6 5 11 10 11 6 0 10 -2 10 -4z
m3127 -2 c-3 -3 -12 -4 -19 -1 -8 3 -5 6 6 6 11 1 17 -2 13 -5z m-4587 -34 c0
-5 -11 -10 -25 -10 -14 0 -25 5 -25 10 0 6 11 10 25 10 14 0 25 -4 25 -10z
m1206 -16 c17 -14 17 -15 1 -10 -10 3 -23 6 -28 6 -5 0 -9 5 -9 10 0 14 13 12
36 -6z m592 -6 c-6 -18 -28 -21 -28 -4 0 9 7 16 16 16 9 0 14 -5 12 -12z m96
-3 c3 -10 -1 -15 -13 -15 -10 0 -28 -9 -41 -20 -24 -21 -33 -24 -43 -14 -4 4
11 16 33 26 22 11 40 24 40 29 0 15 17 10 24 -6z m-577 -1 c-3 -3 -12 -4 -19
-1 -8 3 -5 6 6 6 11 1 17 -2 13 -5z m-411 -24 c11 0 10 -4 -3 -20 -10 -11 -25
-20 -35 -20 -10 0 -18 -5 -18 -11 0 -5 -4 -7 -10 -4 -19 12 -10 25 16 25 20 0
25 4 20 16 -3 9 -3 21 1 27 5 8 8 8 11 -1 2 -7 10 -12 18 -12z m123 11 c12 -8
9 -12 -15 -21 -16 -7 -37 -16 -46 -21 -24 -12 -38 -11 -38 2 0 6 7 9 15 5 9
-3 15 0 15 9 0 8 6 12 14 9 7 -3 16 2 19 10 7 18 16 20 36 7z m101 -11 c0 -5
-2 -10 -4 -10 -3 0 -8 5 -11 10 -3 6 -1 10 4 10 6 0 11 -4 11 -10z m-2065 -10
c3 -5 1 -10 -4 -10 -6 0 -11 5 -11 10 0 6 2 10 4 10 3 0 8 -4 11 -10z m1761
-8 c-10 -2 -22 0 -28 6 -6 6 0 7 19 4 21 -5 23 -7 9 -10z m264 8 c0 -5 -5 -10
-11 -10 -5 0 -7 5 -4 10 3 6 8 10 11 10 2 0 4 -4 4 -10z m-1520 -21 c0 -5 -4
-9 -10 -9 -5 0 -10 7 -10 16 0 8 5 12 10 9 6 -3 10 -10 10 -16z m40 1 c0 -5
-4 -10 -10 -10 -5 0 -10 5 -10 10 0 6 5 10 10 10 6 0 10 -4 10 -10z m681 -5
c-1 -15 -24 -12 -29 3 -3 9 2 13 12 10 10 -1 17 -7 17 -13z m489 11 c0 -3 -4
-8 -10 -11 -5 -3 -10 -1 -10 4 0 6 5 11 10 11 6 0 10 -2 10 -4z m664 -7 c-4
-8 3 -9 26 -4 23 5 30 4 26 -4 -4 -6 -15 -11 -24 -11 -15 0 -15 -2 -2 -11 12
-9 12 -10 -3 -5 -10 3 -23 6 -28 6 -5 0 -9 9 -9 20 0 11 5 20 11 20 5 0 7 -5
3 -11z m-1399 -9 c3 -5 1 -10 -4 -10 -6 0 -11 5 -11 10 0 6 2 10 4 10 3 0 8
-4 11 -10z m979 -9 c7 -10 -22 -37 -30 -28 -9 8 3 37 15 37 5 0 12 -4 15 -9z
m335 -15 c9 -10 9 -16 1 -21 -13 -8 -23 0 -26 20 -3 19 10 19 25 1z m240 -25
c-6 -2 -21 7 -33 19 l-21 23 33 -19 c18 -10 28 -20 21 -23z m-1937 7 c-7 -7
-12 -8 -12 -2 0 14 12 26 19 19 2 -3 -1 -11 -7 -17z m1224 6 c-3 -9 -6 -17 -6
-20 0 -2 -7 -1 -15 2 -12 5 -13 10 -4 20 16 19 33 18 25 -2z m3059 -21 c14
-16 28 -36 31 -45 3 -10 12 -18 20 -18 9 0 14 -11 14 -30 0 -24 5 -31 26 -36
17 -4 22 -9 14 -14 -7 -4 -9 -13 -6 -19 5 -7 -4 -11 -23 -11 -21 0 -31 5 -31
15 0 8 -5 15 -11 15 -11 0 -79 68 -79 80 0 4 -7 21 -16 38 -27 56 16 73 61 25z
m-2810 7 c3 -5 1 -10 -4 -10 -6 0 -11 5 -11 10 0 6 2 10 4 10 3 0 8 -4 11 -10z
m645 0 c0 -5 -4 -10 -10 -10 -5 0 -10 5 -10 10 0 6 5 10 10 10 6 0 10 -4 10
-10z m-291 -14 c13 0 26 -7 29 -15 3 -8 0 -11 -7 -7 -6 4 -42 7 -81 7 -38 0
-70 4 -70 9 0 10 67 19 90 12 8 -2 26 -5 39 -6z m-450 -12 c2 -2 2 -7 -2 -10
-8 -9 -67 6 -67 17 0 8 59 2 69 -7z m211 -13 c0 -5 -7 -11 -14 -14 -10 -4 -13
-1 -9 9 6 15 23 19 23 5z m315 -1 c3 -5 -1 -10 -10 -10 -9 0 -13 5 -10 10 3 6
8 10 10 10 2 0 7 -4 10 -10z m-520 -19 c3 -6 -9 -8 -27 -7 -18 2 -24 1 -14 -1
15 -4 16 -7 6 -13 -17 -10 -53 7 -45 21 8 12 72 12 80 0z m3095 -1 c18 -12 2
-12 -25 0 -13 6 -15 9 -5 9 8 0 22 -4 30 -9z m-3380 -8 c0 -13 -12 -22 -22
-16 -10 6 -1 24 13 24 5 0 9 -4 9 -8z m3383 -42 c16 -6 18 -9 5 -9 -19 -1 -48
25 -48 42 0 7 5 4 11 -6 6 -10 20 -22 32 -27z m-3326 -20 c-1 -18 -8 -30 -16
-30 -8 0 -11 6 -7 16 3 9 6 22 6 30 0 8 4 14 10 14 5 0 8 -13 7 -30z m193 20
c0 -5 -7 -10 -16 -10 -8 0 -12 5 -9 10 3 6 10 10 16 10 5 0 9 -4 9 -10z m-913
-16 c-3 -3 -12 -4 -19 -1 -8 3 -5 6 6 6 11 1 17 -2 13 -5z m1053 -4 c0 -5 -5
-10 -11 -10 -5 0 -7 5 -4 10 3 6 8 10 11 10 2 0 4 -4 4 -10z m4210 0 c0 -5 -4
-10 -10 -10 -5 0 -10 5 -10 10 0 6 5 10 10 10 6 0 10 -4 10 -10z m-4486 -24
c-6 -15 -24 -23 -24 -11 0 8 24 34 28 30 1 -1 0 -10 -4 -19z m3200 -57 c5 -4
14 -5 21 -3 7 3 34 -4 60 -16 26 -12 55 -18 66 -15 11 4 19 2 19 -4 0 -6 -9
-11 -19 -11 -11 0 -22 -4 -25 -9 -3 -5 -16 -7 -28 -3 -14 3 -19 2 -14 -6 5 -8
-3 -12 -23 -12 -16 0 -33 5 -36 10 -3 6 -17 10 -31 10 -13 0 -24 6 -24 13 0 8
-9 22 -20 32 -11 10 -17 22 -14 26 6 10 54 1 68 -12z m-3184 -29 c0 -5 -5 -10
-11 -10 -5 0 -7 5 -4 10 3 6 8 10 11 10 2 0 4 -4 4 -10z m-1150 -10 c0 -5 -4
-10 -10 -10 -5 0 -10 5 -10 10 0 6 5 10 10 10 6 0 10 -4 10 -10z m5667 -6 c-3
-3 -12 -4 -19 -1 -8 3 -5 6 6 6 11 1 17 -2 13 -5z m80 -10 c-3 -3 -12 -4 -19
-1 -8 3 -5 6 6 6 11 1 17 -2 13 -5z m-111 -31 c-2 -16 -1 -22 1 -15 2 6 17 12
31 12 15 0 22 -4 16 -8 -6 -4 -14 -15 -17 -26 -4 -10 -13 -16 -22 -12 -8 3
-17 0 -21 -6 -4 -7 -9 -6 -15 3 -4 7 -4 16 1 19 6 3 11 18 12 33 1 15 6 27 10
27 4 0 6 -12 4 -27z m-96 -3 c0 -5 -5 -10 -11 -10 -5 0 -7 5 -4 10 3 6 8 10
11 10 2 0 4 -4 4 -10z m-270 -14 c0 -3 -4 -8 -10 -11 -5 -3 -10 -1 -10 4 0 6
5 11 10 11 6 0 10 -2 10 -4z m270 -16 c0 -5 -5 -10 -11 -10 -5 0 -7 5 -4 10 3
6 8 10 11 10 2 0 4 -4 4 -10z m-1473 -23 c3 -4 -1 -7 -10 -7 -8 0 -22 -3 -31
-6 -10 -4 -16 -1 -16 8 0 14 44 18 57 5z m1541 -43 c-11 -23 -13 -24 -24 -9
-12 16 -31 4 -20 -13 3 -5 -4 -16 -16 -26 -20 -18 -21 -18 -14 10 10 39 34 64
62 64 22 0 23 -2 12 -26z m-3093 6 c3 -5 -3 -10 -14 -10 -12 0 -21 5 -21 10 0
6 6 10 14 10 8 0 18 -4 21 -10z m2778 -10 c9 0 17 -6 17 -14 0 -19 -23 -33
-28 -18 -2 7 -14 12 -27 12 -25 0 -39 12 -27 24 3 4 16 5 27 2 11 -3 28 -6 38
-6z m1607 1 c0 -6 -17 -7 -37 -4 -52 8 -54 13 -5 13 23 0 42 -4 42 -9z m-2088
-24 c-24 -7 -36 -7 -44 1 -9 9 -1 12 33 11 l44 -1 -33 -11z m688 -7 c0 -5 -7
-10 -16 -10 -8 0 -12 5 -9 10 3 6 10 10 16 10 5 0 9 -4 9 -10z m-70 -25 c0 -8
-4 -15 -9 -15 -13 0 -22 16 -14 24 11 11 23 6 23 -9z m1245 5 c8 -13 -5 -13
-25 0 -13 8 -13 10 2 10 9 0 20 -4 23 -10z m-1191 -8 c-6 -4 -16 -16 -22 -27
-11 -19 -11 -18 -12 8 0 21 5 27 23 27 12 0 17 -3 11 -8z m-121 -27 c-3 -8 0
-15 6 -15 6 0 11 7 11 15 0 13 2 13 14 3 19 -18 10 -35 -22 -43 -18 -4 -22 -9
-13 -14 9 -6 4 -13 -20 -25 -25 -12 -35 -13 -43 -5 -8 9 -8 10 1 5 9 -5 11 1
7 24 -5 23 -3 30 10 30 9 0 16 6 16 13 0 17 21 38 31 31 5 -2 6 -11 2 -19z
m850 18 c-7 -2 -19 -2 -25 0 -7 3 -2 5 12 5 14 0 19 -2 13 -5z m-1153 -93 c0
-5 -5 -10 -11 -10 -5 0 -7 5 -4 10 3 6 8 10 11 10 2 0 4 -4 4 -10z m127 -32
c-3 -8 -6 -5 -6 6 -1 11 2 17 5 13 3 -3 4 -12 1 -19z m898 12 c3 -5 1 -10 -4
-10 -6 0 -11 5 -11 10 0 6 2 10 4 10 3 0 8 -4 11 -10z m-1880 -20 c3 -5 1 -10
-4 -10 -6 0 -11 5 -11 10 0 6 2 10 4 10 3 0 8 -4 11 -10z m531 -45 c-13 -40
-21 -44 -29 -13 -4 14 0 26 11 34 27 21 30 17 18 -21z m-366 15 c0 -5 -4 -10
-10 -10 -5 0 -10 5 -10 10 0 6 5 10 10 10 6 0 10 -4 10 -10z m-123 -36 c-3 -3
-12 -4 -19 -1 -8 3 -5 6 6 6 11 1 17 -2 13 -5z m403 -34 c0 -5 -7 -10 -15 -10
-8 0 -15 5 -15 10 0 6 7 10 15 10 8 0 15 -4 15 -10z m46 -8 c7 -4 8 -15 3 -27
-7 -18 -8 -18 -8 -1 -1 12 -6 16 -16 12 -15 -5 -20 5 -8 17 8 9 15 9 29 -1z
m-68 -34 c-6 -18 -28 -21 -28 -4 0 9 7 16 16 16 9 0 14 -5 12 -12z"/>
<path d="M4676 17354 c7 -3 10 -13 7 -22 -4 -17 30 -62 47 -62 12 0 -6 49 -27
72 -9 10 -21 18 -27 17 -7 0 -7 -2 0 -5z"/>
<path d="M4735 17230 c4 -6 11 -8 16 -5 14 9 11 15 -7 15 -8 0 -12 -5 -9 -10z"/>
<path d="M4634 16889 c14 -34 46 -60 46 -37 0 7 -13 26 -30 41 l-30 28 14 -32z"/>
<path d="M6270 18040 c0 -5 5 -10 10 -10 6 0 10 5 10 10 0 6 -4 10 -10 10 -5
0 -10 -4 -10 -10z"/>
<path d="M7360 17990 c0 -5 5 -10 11 -10 5 0 7 5 4 10 -3 6 -8 10 -11 10 -2 0
-4 -4 -4 -10z"/>
<path d="M6400 17969 c0 -12 -10 -21 -27 -25 -16 -3 -34 -7 -40 -10 -7 -2 -13
1 -13 6 0 6 -8 10 -17 10 -15 0 -14 -2 3 -19 10 -10 24 -16 31 -14 6 3 21 -1
34 -7 17 -10 19 -14 8 -21 -11 -7 -10 -9 4 -9 9 0 17 4 17 9 0 13 44 0 53 -16
10 -17 47 -17 47 0 0 7 -12 20 -27 29 -17 11 -22 18 -13 18 10 1 9 4 -5 10
-19 9 -19 9 3 16 32 9 27 18 -18 31 -36 9 -40 8 -40 -8z"/>
<path d="M6520 17930 c0 -5 5 -10 11 -10 5 0 7 5 4 10 -3 6 -8 10 -11 10 -2 0
-4 -4 -4 -10z"/>
<path d="M6330 17861 c0 -11 39 -25 47 -18 3 3 2 10 -2 16 -8 13 -45 15 -45 2z"/>
<path d="M6515 17850 c-3 -5 -1 -10 4 -10 6 0 11 5 11 10 0 6 -2 10 -4 10 -3
0 -8 -4 -11 -10z"/>
<path d="M6630 17836 c0 -9 40 -13 46 -5 3 5 -6 9 -20 9 -14 0 -26 -2 -26 -4z"/>
<path d="M6440 17800 c0 -5 5 -10 10 -10 6 0 10 5 10 10 0 6 -4 10 -10 10 -5
0 -10 -4 -10 -10z"/>
<path d="M6540 17791 c0 -6 5 -13 10 -16 6 -3 10 1 10 9 0 9 -4 16 -10 16 -5
0 -10 -4 -10 -9z"/>
<path d="M6930 17775 c0 -9 5 -15 11 -13 6 2 11 8 11 13 0 5 -5 11 -11 13 -6
2 -11 -4 -11 -13z"/>
<path d="M6495 17770 c-3 -5 -1 -10 4 -10 6 0 11 5 11 10 0 6 -2 10 -4 10 -3
0 -8 -4 -11 -10z"/>
<path d="M5680 17637 c0 -16 29 -27 77 -27 30 0 59 19 31 21 -30 2 -64 7 -85
14 -17 5 -23 3 -23 -8z"/>
<path d="M5948 17603 c7 -3 16 -2 19 1 4 3 -2 6 -13 5 -11 0 -14 -3 -6 -6z"/>
<path d="M7004 17590 c-9 -9 -7 -17 7 -31 21 -21 37 -26 21 -6 -5 6 -11 20
-13 30 -3 14 -7 15 -15 7z"/>
<path d="M5850 17565 c0 -9 5 -15 11 -13 6 2 11 8 11 13 0 5 -5 11 -11 13 -6
2 -11 -4 -11 -13z"/>
<path d="M7240 17551 c0 -5 5 -13 10 -16 6 -3 10 -2 10 4 0 5 -4 13 -10 16 -5
3 -10 2 -10 -4z"/>
<path d="M6935 17530 c-3 -5 -1 -10 4 -10 6 0 11 5 11 10 0 6 -2 10 -4 10 -3
0 -8 -4 -11 -10z"/>
<path d="M5900 17510 c0 -5 5 -10 10 -10 6 0 10 5 10 10 0 6 -4 10 -10 10 -5
0 -10 -4 -10 -10z"/>
<path d="M6077 17513 c-4 -3 -7 -13 -7 -21 0 -12 3 -12 15 -2 8 7 15 16 15 21
0 11 -14 12 -23 2z"/>
<path d="M7335 17509 c-4 -6 -5 -12 -2 -15 2 -3 7 2 10 11 7 17 1 20 -8 4z"/>
<path d="M6780 17494 c0 -8 5 -12 10 -9 6 4 8 11 5 16 -9 14 -15 11 -15 -7z"/>
<path d="M5887 17474 c-8 -8 1 -24 14 -24 5 0 9 7 9 15 0 15 -12 20 -23 9z"/>
<path d="M7411 17415 c0 -5 8 -26 19 -45 16 -28 19 -31 20 -14 0 12 -9 32 -20
45 -10 13 -19 20 -19 14z"/>
<path d="M6119 17393 c-7 -57 -5 -93 4 -95 7 0 17 -2 22 -3 6 -2 15 -3 22 -4
7 -1 10 -8 6 -17 -3 -9 0 -20 8 -25 20 -13 29 -11 29 6 0 12 8 14 33 10 17 -4
36 -10 42 -16 27 -27 34 9 10 54 -8 15 -12 34 -8 42 4 11 -2 15 -20 15 -14 0
-27 7 -31 15 -7 20 -42 19 -50 -1 -10 -25 -7 -31 17 -39 14 -4 18 -8 9 -12 -8
-3 -19 0 -25 6 -14 14 -25 14 -30 -1 -2 -7 -2 0 0 15 3 15 -1 34 -7 42 -13 16
-29 20 -31 8z"/>
<path d="M6535 17380 c4 -6 11 -8 16 -5 14 9 11 15 -7 15 -8 0 -12 -5 -9 -10z"/>
<path d="M6456 17345 c4 -8 8 -15 10 -15 2 0 4 7 4 15 0 8 -4 15 -10 15 -5 0
-7 -7 -4 -15z"/>
<path d="M6655 17351 c-3 -5 -1 -12 5 -16 5 -3 10 1 10 9 0 18 -6 21 -15 7z"/>
<path d="M6045 17320 c4 -6 11 -8 16 -5 14 9 11 15 -7 15 -8 0 -12 -5 -9 -10z"/>
<path d="M5692 17295 c-11 -14 -29 -25 -41 -25 -12 0 -21 -6 -21 -15 0 -11 -7
-14 -25 -9 -15 4 -25 2 -25 -5 0 -6 3 -11 8 -12 4 0 31 -2 59 -4 49 -4 53 -2
59 20 6 24 18 29 94 37 24 3 24 4 -9 21 -47 24 -76 21 -99 -8z"/>
<path d="M6321 17294 c0 -11 3 -14 6 -6 3 7 2 16 -1 19 -3 4 -6 -2 -5 -13z"/>
<path d="M6885 17271 c-3 -15 -5 -33 -3 -39 2 -6 -6 -17 -17 -25 -11 -9 -16
-19 -12 -23 4 -5 12 -3 16 5 5 7 12 12 17 11 9 -1 34 87 26 95 -12 11 -21 3
-27 -24z"/>
<path d="M6063 17284 c-7 -3 -9 -12 -6 -20 8 -21 22 -17 20 6 -1 11 -1 20 -2
19 0 0 -5 -3 -12 -5z"/>
<path d="M6115 17260 c13 -15 22 -17 29 -10 12 12 -8 30 -33 30 -11 0 -10 -5
4 -20z"/>
<path d="M6140 17220 c-6 -11 -7 -20 -3 -21 4 0 18 -2 30 -3 18 -2 20 0 12 15
-15 28 -27 31 -39 9z"/>
<path d="M6013 17208 c3 -34 33 -72 51 -65 22 9 20 29 -5 61 -25 32 -48 34
-46 4z"/>
<path d="M6921 17214 c0 -11 3 -14 6 -6 3 7 2 16 -1 19 -3 4 -6 -2 -5 -13z"/>
<path d="M5300 17136 c0 -2 7 -9 15 -16 13 -11 14 -10 9 4 -5 14 -24 23 -24
12z"/>
<path d="M6890 17130 c0 -5 5 -10 11 -10 5 0 7 5 4 10 -3 6 -8 10 -11 10 -2 0
-4 -4 -4 -10z"/>
<path d="M7652 17106 c10 -23 38 -44 38 -28 -1 9 -37 52 -44 52 -3 0 -1 -11 6
-24z"/>
<path d="M6070 17110 c0 -5 5 -10 10 -10 6 0 10 5 10 10 0 6 -4 10 -10 10 -5
0 -10 -4 -10 -10z"/>
<path d="M6110 17080 c0 -5 7 -10 16 -10 8 0 12 5 9 10 -3 6 -10 10 -16 10 -5
0 -9 -4 -9 -10z"/>
<path d="M6720 16989 c0 -5 5 -7 10 -4 6 3 10 8 10 11 0 2 -4 4 -10 4 -5 0
-10 -5 -10 -11z"/>
<path d="M4945 16895 c4 -27 2 -33 -10 -29 -11 4 -19 -4 -27 -27 -7 -19 -11
-37 -10 -41 1 -5 -2 -8 -8 -8 -5 0 -10 -7 -10 -16 0 -12 6 -15 23 -10 12 3 29
6 37 6 12 0 16 17 18 80 2 49 -1 80 -7 80 -6 0 -8 -15 -6 -35z"/>
<path d="M6895 16301 c-3 -5 -1 -12 5 -16 5 -3 10 1 10 9 0 18 -6 21 -15 7z"/>
<path d="M6480 15840 c0 -5 5 -10 11 -10 5 0 7 5 4 10 -3 6 -8 10 -11 10 -2 0
-4 -4 -4 -10z"/>
<path d="M4755 15760 c3 -5 12 -7 19 -4 8 3 16 -2 19 -13 4 -14 5 -14 6 5 1
17 -4 22 -25 22 -14 0 -23 -4 -19 -10z"/>
<path d="M6196 15673 c-3 -3 -6 -15 -6 -25 0 -15 8 -18 44 -18 25 0 48 5 51
10 4 6 15 8 26 5 11 -4 19 -2 19 4 0 6 -20 11 -46 11 -25 0 -53 4 -63 10 -10
5 -21 6 -25 3z"/>
<path d="M5460 15663 c0 -4 4 -14 9 -22 10 -16 54 -5 48 12 -4 14 -57 23 -57
10z"/>
<path d="M5548 15653 c7 -3 16 -2 19 1 4 3 -2 6 -13 5 -11 0 -14 -3 -6 -6z"/>
<path d="M6041 15599 c-14 -5 -31 -7 -38 -5 -7 3 -13 2 -13 -2 0 -5 -12 -13
-27 -19 l-28 -10 30 -12 c26 -11 35 -10 65 7 19 11 50 23 68 27 17 3 32 11 32
16 0 12 -58 11 -89 -2z"/>
<path d="M5010 15493 c8 -4 20 -13 26 -21 8 -11 13 -12 18 -4 11 19 -3 32 -32
31 -16 0 -21 -3 -12 -6z"/>
<path d="M5350 15211 c0 -10 29 -25 45 -23 6 1 21 -8 35 -19 19 -15 20 -18 4
-10 -12 6 -26 6 -35 0 -11 -7 -10 -9 7 -9 25 0 78 -25 121 -57 17 -13 34 -20
37 -14 3 5 15 7 26 4 33 -9 23 20 -16 45 -20 12 -44 22 -55 22 -10 0 -19 5
-19 10 0 6 -9 10 -20 10 -11 0 -23 6 -26 13 -2 7 -14 14 -27 14 -12 1 -23 7
-25 13 -4 12 -52 14 -52 1z"/>
<path d="M5041 15014 c0 -11 3 -14 6 -6 3 7 2 16 -1 19 -3 4 -6 -2 -5 -13z"/>
<path d="M5356 14931 c-3 -4 -21 -7 -41 -5 -19 1 -37 -2 -41 -7 -3 -5 -23 -9
-44 -9 -31 0 -38 -3 -34 -15 4 -8 10 -13 14 -10 5 3 20 -6 33 -19 22 -22 29
-24 59 -16 43 13 51 12 42 -2 -5 -8 -2 -9 10 -5 10 4 22 7 26 7 5 0 14 8 19
18 7 13 3 24 -14 45 -13 15 -26 23 -29 18z"/>
<path d="M5103 14903 c-14 -3 -23 -12 -23 -22 0 -28 12 -33 33 -14 20 17 20
17 13 -2 -5 -11 -11 -29 -14 -40 -5 -18 -4 -18 11 -6 9 7 17 18 17 24 0 5 7
15 17 22 9 7 14 19 10 29 -6 16 -19 18 -64 9z"/>
<path d="M4640 16534 c0 -8 5 -12 10 -9 6 3 10 10 10 16 0 5 -4 9 -10 9 -5 0
-10 -7 -10 -16z"/>
<path d="M4586 16371 c-8 -12 3 -41 15 -41 5 0 9 11 9 25 0 25 -14 34 -24 16z"/>
<path d="M6555 15280 c3 -5 8 -10 11 -10 2 0 4 5 4 10 0 6 -5 10 -11 10 -5 0
-7 -4 -4 -10z"/>
<path d="M6890 14180 c0 -5 5 -10 10 -10 6 0 10 5 10 10 0 6 -4 10 -10 10 -5
0 -10 -4 -10 -10z"/>
<path d="M6005 13990 c3 -5 8 -10 11 -10 2 0 4 5 4 10 0 6 -5 10 -11 10 -5 0
-7 -4 -4 -10z"/>
<path d="M5995 13771 c-3 -5 -1 -12 5 -16 5 -3 10 1 10 9 0 18 -6 21 -15 7z"/>
<path d="M5560 13310 c0 -5 5 -10 11 -10 5 0 7 5 4 10 -3 6 -8 10 -11 10 -2 0
-4 -4 -4 -10z"/>
<path d="M6150 12960 c0 -5 5 -10 11 -10 5 0 7 5 4 10 -3 6 -8 10 -11 10 -2 0
-4 -4 -4 -10z"/>
<path d="M6045 12780 c-3 -5 -1 -10 4 -10 6 0 11 5 11 10 0 6 -2 10 -4 10 -3
0 -8 -4 -11 -10z"/>
<path d="M6120 12770 c0 -5 5 -10 10 -10 6 0 10 5 10 10 0 6 -4 10 -10 10 -5
0 -10 -4 -10 -10z"/>
<path d="M6220 12771 c0 -6 5 -13 10 -16 6 -3 10 1 10 9 0 9 -4 16 -10 16 -5
0 -10 -4 -10 -9z"/>
<path d="M6390 12833 c0 -5 5 -15 10 -23 8 -12 10 -11 10 8 0 12 -4 22 -10 22
-5 0 -10 -3 -10 -7z"/>
<path d="M1700 7910 c0 -5 5 -10 10 -10 6 0 10 5 10 10 0 6 -4 10 -10 10 -5 0
-10 -4 -10 -10z"/>
<path d="M1718 7873 c7 -3 16 -2 19 1 4 3 -2 6 -13 5 -11 0 -14 -3 -6 -6z"/>
<path d="M1681 7774 c0 -11 3 -14 6 -6 3 7 2 16 -1 19 -3 4 -6 -2 -5 -13z"/>
<path d="M1693 7682 c-44 -2 -63 -7 -67 -19 -4 -10 -2 -14 8 -10 7 3 23 -1 34
-9 20 -14 39 -4 28 14 -3 5 8 9 25 10 28 1 48 8 38 15 -2 1 -32 1 -66 -1z"/>
<path d="M1542 7568 c5 -15 58 -24 58 -10 0 5 -10 12 -22 16 -34 9 -40 7 -36
-6z"/>
<path d="M1615 7530 c-3 -5 3 -10 15 -10 12 0 18 5 15 10 -3 6 -10 10 -15 10
-5 0 -12 -4 -15 -10z"/>
<path d="M1295 7811 c-6 -11 9 -23 19 -14 9 9 7 23 -3 23 -6 0 -12 -4 -16 -9z"/>
<path d="M8795 7780 c3 -5 8 -10 11 -10 2 0 4 5 4 10 0 6 -5 10 -11 10 -5 0
-7 -4 -4 -10z"/>
<path d="M8256 4283 c4 -16 11 -32 17 -38 7 -7 8 -4 3 8 -3 10 -6 27 -6 38 0
10 -5 19 -10 19 -6 0 -8 -11 -4 -27z"/>
<path d="M7915 4090 c-3 -5 1 -10 10 -10 9 0 13 5 10 10 -3 6 -8 10 -10 10 -2
0 -7 -4 -10 -10z"/>
<path d="M7845 3964 c-33 -35 -63 -64 -67 -64 -4 0 -10 11 -14 25 -9 35 -29
25 -28 -12 1 -24 -4 -32 -27 -40 -21 -8 -29 -8 -29 0 0 8 -3 8 -11 0 -13 -13
-4 -47 9 -39 5 3 7 -9 4 -27 l-4 -32 21 29 c11 17 18 33 15 37 -5 9 25 21 36
14 5 -3 6 -13 3 -23 -5 -16 -5 -16 8 0 17 22 56 23 168 9 46 -6 86 -9 89 -6 3
3 -2 5 -12 5 -9 0 -27 6 -39 14 -12 8 -43 17 -68 20 -64 8 -85 16 -67 27 11 7
10 9 -1 9 -8 0 14 27 50 60 46 43 58 60 44 59 -11 -1 -47 -30 -80 -65z"/>
<path d="M8005 3930 c3 -5 11 -10 17 -10 6 0 19 -6 27 -14 16 -13 102 -38 109
-32 5 5 -128 66 -145 66 -8 0 -11 -4 -8 -10z"/>
<path d="M8127 3843 c-4 -3 -7 -14 -7 -24 0 -12 -5 -16 -15 -13 -8 4 -15 1
-15 -4 0 -14 40 -26 50 -15 4 4 10 20 14 36 6 26 -10 38 -27 20z"/>
<path d="M8220 3812 c7 -43 17 -62 30 -62 5 0 4 14 -1 32 -12 43 -12 41 13 35
18 -5 19 -4 7 7 -8 8 -24 17 -35 20 -20 6 -21 4 -14 -32z"/>
<path d="M8050 3820 c0 -5 7 -10 16 -10 8 0 12 5 9 10 -3 6 -10 10 -16 10 -5
0 -9 -4 -9 -10z"/>
<path d="M8156 3784 c-3 -9 -6 -17 -6 -18 0 -1 32 -26 70 -55 39 -30 70 -57
70 -62 0 -5 7 -9 15 -9 8 0 15 -5 15 -12 0 -6 3 -9 6 -6 3 4 -2 18 -11 32 -16
24 -16 26 -1 32 9 3 16 16 16 28 0 12 4 26 9 31 6 6 5 17 -4 28 -12 16 -14 14
-20 -22 -3 -21 -12 -46 -18 -55 -11 -14 -18 -11 -56 24 -25 22 -48 40 -53 40
-4 0 -8 6 -8 14 0 22 -17 28 -24 10z"/>
<path d="M8516 3760 c8 -43 14 -51 14 -19 0 13 -5 31 -10 39 -7 11 -8 5 -4
-20z"/>
<path d="M7625 3768 c-10 -34 -13 -85 -5 -103 10 -24 10 -25 13 53 2 61 0 74
-8 50z"/>
<path d="M8436 3713 c8 -59 19 -74 28 -37 7 28 -10 84 -25 84 -5 0 -6 -21 -3
-47z"/>
<path d="M8525 3700 c-8 -13 3 -50 16 -50 5 0 9 -4 9 -10 0 -5 -11 -10 -25
-10 -15 0 -25 -6 -25 -15 0 -8 6 -12 14 -9 23 9 26 -24 9 -96 -18 -73 -39 -98
-27 -32 3 20 6 39 6 42 0 22 -5 31 -24 41 -18 10 -20 9 -14 -6 3 -9 3 -22 -1
-28 -5 -7 -8 -19 -9 -27 -1 -8 -2 -25 -3 -37 0 -13 -6 -23 -12 -23 -8 0 -10
23 -6 78 4 63 3 72 -6 50 -11 -28 -31 -40 -21 -13 4 10 0 15 -11 15 -12 0 -15
-6 -10 -22 4 -13 9 -31 11 -40 3 -10 0 -26 -6 -38 -8 -16 -8 -21 3 -26 9 -3
14 -19 13 -44 0 -35 -4 -40 -39 -54 -20 -8 -40 -15 -43 -15 -2 0 -12 -7 -20
-16 -9 -8 -23 -15 -32 -15 -16 -1 -16 -1 0 -10 23 -14 56 -7 133 31 22 10 30
17 18 13 -13 -3 -23 -2 -23 3 0 12 80 93 92 93 18 0 1 -71 -22 -92 -11 -10
-20 -23 -20 -28 0 -6 -9 -10 -20 -10 -21 0 -24 -8 -14 -34 8 -20 24 -21 24 -2
0 7 8 16 18 18 19 5 63 86 83 153 6 22 14 47 18 55 4 8 8 52 10 98 2 64 0 82
-11 80 -7 -2 -12 4 -10 14 3 19 -14 33 -23 18z"/>
<path d="M7760 3670 c0 -5 5 -10 11 -10 5 0 15 -13 20 -29 8 -21 26 -36 74
-60 36 -17 70 -31 77 -31 7 0 22 -7 32 -15 22 -17 50 -20 41 -5 -3 6 -15 10
-26 10 -10 0 -19 7 -19 15 0 8 -8 15 -18 15 -33 0 -106 42 -143 81 -37 40 -49
47 -49 29z"/>
<path d="M7330 3636 c0 -8 5 -18 11 -21 6 -4 8 -13 5 -20 -5 -15 12 -24 32
-18 18 7 15 20 -8 26 -12 3 -20 14 -20 26 0 12 -4 21 -10 21 -5 0 -10 -6 -10
-14z"/>
<path d="M7277 3633 c-14 -13 -6 -43 14 -53 23 -13 41 -4 20 9 -8 5 -11 17 -6
30 6 21 -12 30 -28 14z"/>
<path d="M8376 3632 c-2 -4 -1 -14 5 -22 7 -12 9 -10 9 8 0 23 -5 28 -14 14z"/>
<path d="M7625 3583 c5 -68 22 -137 34 -141 6 -2 11 -12 11 -22 0 -10 7 -21
16 -24 22 -9 24 -8 24 9 0 8 -7 15 -15 15 -8 0 -18 17 -25 43 -6 23 -15 52
-20 65 -6 13 -10 41 -10 62 0 22 -4 40 -9 40 -6 0 -8 -21 -6 -47z"/>
<path d="M7720 3627 c0 -7 31 -67 35 -67 7 0 -17 60 -26 66 -5 3 -9 3 -9 1z"/>
<path d="M7471 3594 c0 -11 3 -14 6 -6 3 7 2 16 -1 19 -3 4 -6 -2 -5 -13z"/>
<path d="M8340 3606 c0 -2 7 -7 16 -10 8 -3 12 -2 9 4 -6 10 -25 14 -25 6z"/>
<path d="M7410 3554 c0 -8 5 -12 10 -9 6 3 10 10 10 16 0 5 -4 9 -10 9 -5 0
-10 -7 -10 -16z"/>
<path d="M7707 3564 c-7 -8 4 -44 14 -44 12 0 12 37 0 44 -4 3 -11 3 -14 0z"/>
<path d="M7787 3529 c7 -7 15 -10 18 -7 3 3 -2 9 -12 12 -14 6 -15 5 -6 -5z"/>
<path d="M6347 3492 c-30 -31 -35 -57 -12 -65 17 -7 30 10 30 38 0 11 5 19 11
18 7 -1 14 7 17 17 7 29 -15 25 -46 -8z"/>
<path d="M7725 3500 c3 -5 8 -10 11 -10 2 0 4 5 4 10 0 6 -5 10 -11 10 -5 0
-7 -4 -4 -10z"/>
<path d="M7840 3490 c0 -5 9 -10 21 -10 11 0 17 5 14 10 -3 6 -13 10 -21 10
-8 0 -14 -4 -14 -10z"/>
<path d="M7934 3444 c3 -9 6 -17 6 -19 0 -2 26 -16 58 -31 31 -16 59 -32 60
-36 2 -4 13 -8 25 -8 18 0 19 2 7 10 -22 14 12 24 56 17 20 -3 52 0 76 9 51
18 88 18 88 0 0 -13 -58 -64 -90 -78 -8 -4 -10 -7 -3 -7 7 -1 33 10 58 24 24
14 47 25 50 25 3 0 9 0 14 0 8 0 41 60 41 75 0 3 -26 3 -57 0 -32 -3 -71 -7
-88 -8 -46 -3 -265 25 -265 35 0 4 -9 8 -21 8 -15 0 -19 -4 -15 -16z m121 -24
c4 -6 -6 -10 -22 -9 -25 0 -26 1 -8 9 11 5 21 9 22 9 1 1 5 -3 8 -9z m104 -16
c17 -4 31 -11 31 -16 0 -9 -59 -1 -95 13 -18 7 -17 8 6 8 15 1 41 -2 58 -5z"/>
<path d="M6385 3360 c-30 -48 -63 -120 -70 -148 -7 -33 -7 -33 14 -15 12 9 21
24 21 32 0 8 12 38 26 68 14 30 24 59 21 66 -2 7 -6 6 -12 -3z"/>
<path d="M7730 3355 c7 -9 15 -13 17 -11 7 7 -7 26 -19 26 -6 0 -6 -6 2 -15z"/>
<path d="M6269 3278 c0 -2 -2 -13 -3 -26 -3 -28 14 -24 25 6 6 16 5 22 -6 22
-8 0 -15 -1 -16 -2z"/>
<path d="M7870 3272 c0 -11 33 -42 45 -42 4 0 3 6 -3 13 -6 6 -10 17 -11 22 0
13 -31 20 -31 7z"/>
<path d="M8305 3251 c-3 -5 -1 -12 5 -16 5 -3 10 1 10 9 0 18 -6 21 -15 7z"/>
<path d="M8520 3242 c0 -12 19 -26 26 -19 2 2 -2 10 -11 17 -9 8 -15 8 -15 2z"/>
<path d="M6232 3220 c0 -14 2 -19 5 -12 2 6 2 18 0 25 -3 6 -5 1 -5 -13z"/>
<path d="M8164 3229 c-7 -12 12 -29 34 -29 15 0 16 12 0 28 -15 15 -25 15 -34
1z"/>
<path d="M7960 3211 c0 -5 7 -12 16 -15 22 -9 24 -8 18 9 -7 16 -34 21 -34 6z"/>
<path d="M8216 3184 c-8 -22 1 -31 16 -16 9 9 9 15 1 23 -7 7 -12 5 -17 -7z"/>
<path d="M7790 3141 c0 -6 5 -13 10 -16 6 -3 10 1 10 9 0 9 -4 16 -10 16 -5 0
-10 -4 -10 -9z"/>
<path d="M7935 3051 c3 -5 1 -13 -5 -16 -14 -9 6 -35 26 -35 16 0 17 9 4 30
-6 9 -5 17 3 22 8 5 3 8 -11 8 -13 0 -21 -4 -17 -9z"/>
<path d="M9455 3000 c3 -5 11 -10 16 -10 6 0 7 5 4 10 -3 6 -11 10 -16 10 -6
0 -7 -4 -4 -10z"/>
<path d="M8934 2878 c-5 -8 -2 -9 9 -5 35 13 26 -13 -9 -28 -44 -18 -39 -32 7
-16 18 6 43 11 55 11 43 0 23 32 -28 44 -16 4 -30 1 -34 -6z"/>
<path d="M8850 2830 c0 -5 7 -10 15 -10 8 0 15 5 15 10 0 6 -7 10 -15 10 -8 0
-15 -4 -15 -10z"/>
<path d="M9060 2820 c0 -5 9 -10 21 -10 11 0 17 5 14 10 -3 6 -13 10 -21 10
-8 0 -14 -4 -14 -10z"/>
<path d="M9120 2810 c0 -5 5 -10 11 -10 5 0 7 5 4 10 -3 6 -8 10 -11 10 -2 0
-4 -4 -4 -10z"/>
<path d="M9740 2639 c0 -5 11 -9 25 -9 14 0 25 2 25 4 0 2 -11 6 -25 8 -14 3
-25 1 -25 -3z"/>
<path d="M9654 2575 c-10 -8 -14 -14 -9 -15 15 0 40 18 34 24 -3 3 -14 -1 -25
-9z"/>
<path d="M9810 2566 c0 -8 4 -17 9 -21 6 -3 9 4 8 15 -1 23 -17 28 -17 6z"/>
<path d="M9615 2501 c-3 -5 -1 -12 5 -16 5 -3 10 1 10 9 0 18 -6 21 -15 7z"/>
<path d="M8989 3830 c37 -32 55 -32 27 -1 -13 15 -14 20 -4 24 7 3 -3 6 -22 6
l-35 0 34 -29z"/>
<path d="M8970 3700 c0 -14 6 -20 23 -19 12 0 16 3 10 6 -7 2 -13 11 -13 19 0
8 -4 14 -10 14 -5 0 -10 -9 -10 -20z"/>
<path d="M9060 3710 c0 -5 5 -10 11 -10 5 0 7 5 4 10 -3 6 -8 10 -11 10 -2 0
-4 -4 -4 -10z"/>
<path d="M9117 3699 c-9 -12 -13 -25 -8 -29 5 -3 11 -14 14 -25 4 -16 5 -14 6
7 1 15 8 28 17 30 13 3 13 6 1 22 -13 18 -14 18 -30 -5z"/>
<path d="M4940 2295 c0 -8 5 -15 10 -15 6 0 10 7 10 15 0 8 -4 15 -10 15 -5 0
-10 -7 -10 -15z"/>
<path d="M4840 2060 c6 -11 15 -20 20 -20 6 0 5 9 -2 20 -7 11 -16 20 -21 20
-4 0 -3 -9 3 -20z"/>
<path d="M5202 1771 c2 -7 7 -12 11 -12 12 1 9 15 -3 20 -7 2 -11 -2 -8 -8z"/>
<path d="M5977 1666 c-4 -10 -1 -13 9 -9 7 3 14 9 14 14 0 14 -17 10 -23 -5z"/>
<path d="M6365 1640 c-4 -6 -4 -10 -1 -10 2 0 11 -3 20 -6 9 -3 16 -2 16 4 0
14 -28 23 -35 12z"/>
<path d="M6355 1600 c-3 -6 1 -7 9 -4 18 7 21 14 7 14 -6 0 -13 -4 -16 -10z"/>
<path d="M6578 1593 c7 -3 16 -2 19 1 4 3 -2 6 -13 5 -11 0 -14 -3 -6 -6z"/>
<path d="M6171 1544 c0 -11 3 -14 6 -6 3 7 2 16 -1 19 -3 4 -6 -2 -5 -13z"/>
<path d="M6240 1439 c0 -5 -5 -7 -12 -3 -6 4 -16 0 -22 -9 -16 -21 -106 -34
-107 -16 0 8 -4 3 -10 -9 -5 -13 -7 -28 -3 -33 9 -14 41 -10 48 6 3 8 12 15
21 15 22 0 95 38 95 50 0 6 -2 10 -5 10 -3 0 -5 -5 -5 -11z"/>
<path d="M6024 1394 c3 -9 6 -20 6 -25 0 -5 7 -9 15 -9 17 0 20 16 5 25 -6 4
-8 11 -5 16 4 5 -1 9 -10 9 -12 0 -15 -5 -11 -16z"/>
<path d="M5950 1360 c0 -5 5 -10 10 -10 6 0 10 5 10 10 0 6 -4 10 -10 10 -5 0
-10 -4 -10 -10z"/>
<path d="M5750 1345 c7 -8 19 -15 26 -15 8 0 14 -4 14 -10 0 -5 -15 -10 -33
-10 -31 0 -57 -14 -57 -32 0 -12 48 -10 56 3 3 6 17 8 29 5 13 -3 26 -2 29 2
10 17 -7 52 -25 52 -10 0 -21 5 -24 10 -3 6 -11 10 -17 10 -7 0 -6 -6 2 -15z"/>
<path d="M5876 1347 c3 -10 9 -15 12 -12 3 3 0 11 -7 18 -10 9 -11 8 -5 -6z"/>
<path d="M5913 1353 c-15 -5 -17 -23 -4 -23 5 0 11 7 15 15 3 8 4 15 3 14 -1
0 -8 -3 -14 -6z"/>
<path d="M5840 1319 c0 -5 5 -7 10 -4 6 3 10 8 10 11 0 2 -4 4 -10 4 -5 0 -10
-5 -10 -11z"/>
<path d="M5538 1253 c12 -2 30 -2 40 0 9 3 -1 5 -23 4 -22 0 -30 -2 -17 -4z"/>
<path d="M6236 2471 c5 -5 20 -12 34 -15 24 -7 24 -6 6 8 -21 17 -57 23 -40 7z"/>
<path d="M11280 2240 c0 -6 7 -10 15 -10 8 0 15 2 15 4 0 2 -7 6 -15 10 -8 3
-15 1 -15 -4z"/>
<path d="M4930 1450 c0 -7 9 -23 20 -37 11 -14 20 -39 20 -54 0 -19 5 -29 15
-29 8 0 15 -8 15 -18 0 -21 37 -65 52 -60 10 4 10 9 -6 51 -6 15 -14 27 -17
27 -8 0 -69 86 -69 96 0 3 -7 12 -15 20 -9 10 -15 11 -15 4z"/>
<path d="M5057 1220 c3 -11 9 -20 14 -20 5 0 14 -11 19 -25 10 -26 24 -32 35
-15 3 6 -1 17 -9 26 -9 8 -21 24 -26 35 -14 26 -40 25 -33 -1z"/>
<path d="M2105 7470 c-3 -5 1 -10 10 -10 9 0 13 5 10 10 -3 6 -8 10 -10 10 -2
0 -7 -4 -10 -10z"/>
<path d="M2212 7380 c4 -25 2 -29 -12 -25 -14 4 -19 -3 -23 -32 -7 -42 -3 -51
15 -35 7 5 24 12 38 14 25 3 26 1 29 -49 1 -31 21 -29 21 2 0 14 5 25 11 25
17 0 38 -32 39 -56 0 -27 14 -39 68 -55 50 -15 57 -10 41 25 -13 28 -24 33
-33 14 -3 -7 -3 -3 0 10 4 17 1 22 -16 22 -13 0 -24 9 -30 25 -10 26 -30 34
-30 13 0 -7 -12 10 -27 38 -21 42 -30 50 -49 48 -19 -2 -24 2 -24 22 0 13 -5
24 -11 24 -7 0 -10 -12 -7 -30z"/>
<path d="M1760 7144 c0 -20 28 -43 53 -44 17 0 22 16 11 44 -9 22 -64 22 -64
0z"/>
<path d="M1450 7104 c0 -3 10 -14 23 -25 55 -48 78 -44 32 5 -21 23 -55 36
-55 20z"/>
<path d="M1388 7043 c7 -3 16 -2 19 1 4 3 -2 6 -13 5 -11 0 -14 -3 -6 -6z"/>
<path d="M1446 7034 c-4 -9 -13 -14 -21 -10 -12 4 -15 -3 -15 -32 0 -21 -5
-43 -12 -50 -17 -17 -63 -180 -54 -190 3 -2 11 8 17 24 7 16 18 43 25 61 8 17
14 37 14 45 1 7 9 28 19 47 14 26 20 31 27 20 5 -8 10 -138 11 -289 4 -289 8
-360 24 -360 5 0 9 4 9 8 0 4 10 8 23 7 31 -1 97 -27 97 -38 0 -5 6 -4 14 2
12 10 39 9 91 -3 27 -7 85 -41 85 -51 0 -54 -71 -102 -197 -134 -115 -29 -115
-29 -113 22 5 85 0 147 -11 147 -9 0 -10 -20 -5 -69 3 -38 3 -82 0 -99 -5 -27
-10 -30 -57 -36 -29 -4 -61 -9 -72 -10 -11 -2 -36 -4 -55 -5 -26 -1 -31 -4
-19 -11 8 -5 40 -5 74 -1 33 5 71 5 85 1 43 -12 139 8 172 35 28 23 39 27 95
30 29 1 99 53 112 83 20 43 9 112 -18 112 -9 0 -40 9 -69 20 -38 15 -76 20
-141 20 l-89 0 -4 78 c-8 178 -9 500 -1 505 8 5 35 -47 103 -198 10 -22 22
-52 25 -67 4 -15 13 -32 21 -39 8 -6 14 -20 14 -30 0 -11 4 -19 8 -19 9 0 20
-21 44 -77 7 -18 16 -33 20 -33 9 0 -11 72 -26 90 -7 8 -25 49 -41 90 -15 41
-34 82 -41 91 -8 8 -14 21 -14 27 0 7 -22 60 -50 118 -27 58 -50 109 -50 114
0 12 -34 70 -41 70 -4 0 -10 -7 -13 -16z"/>
<path d="M1813 7014 c-3 -10 -1 -31 6 -48 24 -59 91 -278 91 -296 0 -23 59
-171 75 -189 8 -8 3 22 -12 75 -13 49 -28 103 -32 119 -4 17 -13 39 -18 50
-14 25 -53 149 -53 165 0 7 7 10 15 7 24 -10 29 13 8 41 -11 15 -27 42 -37 60
-18 35 -33 41 -43 16z"/>
<path d="M1916 6858 c3 -13 12 -36 20 -53 l13 -30 -4 28 c-11 61 -16 77 -26
77 -6 0 -8 -9 -3 -22z"/>
<path d="M2480 6790 c0 -5 5 -10 10 -10 6 0 10 5 10 10 0 6 -4 10 -10 10 -5 0
-10 -4 -10 -10z"/>
<path d="M2545 6765 c-22 -14 -51 -29 -64 -35 -13 -6 -36 -19 -50 -29 -15 -11
-51 -28 -82 -38 -30 -10 -69 -28 -86 -41 -18 -12 -48 -29 -67 -37 -20 -9 -36
-20 -36 -25 0 -6 1 -10 3 -10 3 0 190 95 385 194 39 21 72 39 72 42 0 11 -39
0 -75 -21z"/>
<path d="M1950 6736 c0 -9 5 -16 10 -16 6 0 10 4 10 9 0 6 -4 13 -10 16 -5 3
-10 -1 -10 -9z"/>
<path d="M1300 6671 c-7 -15 -7 -21 0 -21 12 0 25 28 17 36 -3 3 -10 -4 -17
-15z"/>
<path d="M2195 6649 c-16 -10 -24 -19 -17 -19 15 0 72 28 72 35 0 10 -26 3
-55 -16z"/>
<path d="M1980 6647 c0 -28 42 -109 51 -100 6 6 2 27 -10 55 -20 47 -41 70
-41 45z"/>
<path d="M1274 6613 c-4 -16 -12 -35 -19 -43 -7 -8 -15 -35 -19 -60 -4 -25
-10 -56 -13 -70 -10 -43 12 -9 40 61 31 81 43 139 28 139 -6 0 -14 -12 -17
-27z"/>
<path d="M2100 6589 c0 -5 5 -7 10 -4 6 3 10 8 10 11 0 2 -4 4 -10 4 -5 0 -10
-5 -10 -11z"/>
<path d="M2114 6534 c-18 -14 -18 -14 6 -3 31 14 36 19 24 19 -6 0 -19 -7 -30
-16z"/>
<path d="M2035 6499 c-16 -10 -23 -19 -15 -19 8 0 29 9 45 20 17 11 23 20 15
19 -8 0 -28 -9 -45 -20z"/>
<path d="M1199 6415 c0 -6 -2 -26 -4 -45 l-4 -35 15 34 c10 24 11 38 4 45 -6
6 -10 6 -11 1z"/>
<path d="M1770 6331 c0 -5 6 -14 14 -20 12 -10 13 -8 9 8 -5 21 -23 30 -23 12z"/>
<path d="M1325 6271 c-33 -10 -78 -27 -100 -38 -22 -11 -54 -27 -72 -34 -18
-8 -34 -23 -38 -36 -6 -27 3 -73 16 -73 5 0 7 11 3 25 -4 15 -1 32 7 41 18 22
168 94 196 94 12 0 25 5 28 11 4 6 17 14 29 19 37 15 -6 9 -69 -9z"/>
</g>
</svg>
