<?xml version="1.0" encoding="UTF-8"?>
<svg id="Layer_1" xmlns="http://www.w3.org/2000/svg" xmlns:xlink="http://www.w3.org/1999/xlink" version="1.1" viewBox="0 0 3000 1282.77">
  <!-- Generator: Adobe Illustrator 29.3.1, SVG Export Plug-In . SVG Version: 2.1.0 Build 151)  -->
  <defs>
    <style>
      .st0, .st1, .st2, .st3 {
        fill: none;
      }

      .st4, .st5, .st6 {
        fill: #92278f;
      }

      .st7 {
        fill: url(#linear-gradient2);
      }

      .st8 {
        fill: url(#linear-gradient1);
      }

      .st9 {
        fill: url(#linear-gradient9);
      }

      .st10 {
        fill: url(#linear-gradient3);
      }

      .st11 {
        fill: url(#linear-gradient6);
      }

      .st12 {
        fill: url(#linear-gradient8);
      }

      .st13 {
        fill: url(#linear-gradient7);
      }

      .st14 {
        fill: url(#linear-gradient4);
      }

      .st14, .st15, .st6, .st16, .st17 {
        opacity: .5;
      }

      .st18 {
        fill: url(#linear-gradient15);
      }

      .st19 {
        fill: url(#linear-gradient16);
      }

      .st20 {
        fill: url(#linear-gradient10);
      }

      .st21 {
        fill: url(#linear-gradient14);
      }

      .st22 {
        fill: url(#linear-gradient19);
      }

      .st23 {
        fill: url(#linear-gradient21);
      }

      .st24 {
        fill: url(#linear-gradient20);
      }

      .st25 {
        fill: url(#linear-gradient);
      }

      .st1 {
        stroke: #92278f;
        stroke-width: 2px;
      }

      .st1, .st26, .st17 {
        stroke-miterlimit: 10;
      }

      .st27 {
        fill: #00aeef;
      }

      .st26 {
        stroke: #e6e7e8;
      }

      .st26, .st17 {
        fill: #fff;
      }

      .st28 {
        clip-path: url(#clippath-1);
      }

      .st15 {
        fill: url(#linear-gradient12);
      }

      .st29 {
        fill: url(#linear-gradient11);
      }

      .st29, .st30, .st31 {
        opacity: .79;
      }

      .st30 {
        fill: url(#linear-gradient18);
      }

      .st31 {
        fill: url(#linear-gradient23);
      }

      .st2 {
        stroke-dasharray: 4.01 4.01;
      }

      .st2, .st32, .st33, .st34, .st3, .st35 {
        stroke: #231f20;
        stroke-linecap: round;
        stroke-linejoin: round;
      }

      .st5 {
        opacity: .29;
      }

      .st32 {
        fill: url(#linear-gradient13);
      }

      .st33 {
        fill: url(#linear-gradient22);
      }

      .st34 {
        fill: url(#linear-gradient17);
      }

      .st36 {
        fill: #231f20;
        font-family: BahijTheSansArabic-Plain, 'Bahij TheSansArabic';
        font-size: 54.7px;
      }

      .st37 {
        fill: #f7941d;
      }

      .st38 {
        clip-path: url(#clippath);
      }

      .st35 {
        fill: url(#linear-gradient5);
      }

      .st17 {
        stroke: #00aeef;
      }
    </style>
    <linearGradient id="linear-gradient" x1="172.1" y1="640.97" x2="498.62" y2="640.97" gradientUnits="userSpaceOnUse">
      <stop offset="0" stop-color="#00aeef"/>
      <stop offset=".5" stop-color="#caebfc"/>
      <stop offset="1" stop-color="#00aeef"/>
    </linearGradient>
    <linearGradient id="linear-gradient1" x1="335.36" y1="369.6" x2="335.36" y2="224.56" gradientUnits="userSpaceOnUse">
      <stop offset="0" stop-color="#f7941d"/>
      <stop offset=".05" stop-color="#f69e34"/>
      <stop offset=".18" stop-color="#f4b466"/>
      <stop offset=".32" stop-color="#f3c790"/>
      <stop offset=".45" stop-color="#f2d6b4"/>
      <stop offset=".58" stop-color="#f1e2cf"/>
      <stop offset=".72" stop-color="#f1ebe2"/>
      <stop offset=".86" stop-color="#f1f0ee"/>
      <stop offset="1" stop-color="#f1f2f2"/>
    </linearGradient>
    <linearGradient id="linear-gradient2" x1="472.66" y1="371.32" x2="472.66" y2="211.21" xlink:href="#linear-gradient1"/>
    <linearGradient id="linear-gradient3" x1="432.85" y1="839.67" x2="523.72" y2="722.58" gradientTransform="translate(-240.16 211.05) rotate(-4.83) scale(1.11 .9) skewX(2.34)" gradientUnits="userSpaceOnUse">
      <stop offset="0" stop-color="#caebfc"/>
      <stop offset="1" stop-color="#00aeef"/>
    </linearGradient>
    <clipPath id="clippath">
      <path class="st0" d="M489.33,317.97c6.33-8.71,9.8-18.1,9.8-27.9,0-45.15-73.32-81.75-163.76-81.75s-163.76,36.6-163.76,81.75c0,9.75,3.43,19.09,9.7,27.75-.76-1.06-1.49-2.12-2.17-3.2l156.13,269.94,156.32-269.91c-.7,1.12-1.46,2.22-2.26,3.32Z"/>
    </clipPath>
    <linearGradient id="linear-gradient4" x1="372.63" y1="382.26" x2="491.59" y2="382.26" xlink:href="#linear-gradient"/>
    <linearGradient id="linear-gradient5" x1="335.36" y1="281.76" x2="335.36" y2="281.76" xlink:href="#linear-gradient"/>
    <linearGradient id="linear-gradient6" x1="335.36" y1="623.4" x2="335.36" y2="623.4" xlink:href="#linear-gradient"/>
    <linearGradient id="linear-gradient7" x1="852.75" y1="640.97" x2="1179.27" y2="640.97" xlink:href="#linear-gradient"/>
    <linearGradient id="linear-gradient8" x1="1016.01" x2="1016.01" xlink:href="#linear-gradient1"/>
    <linearGradient id="linear-gradient9" x1="1153.31" y1="371.32" x2="1153.31" y2="211.21" xlink:href="#linear-gradient1"/>
    <linearGradient id="linear-gradient10" x1="1016.01" y1="623.4" x2="1016.01" y2="623.4" xlink:href="#linear-gradient"/>
    <linearGradient id="linear-gradient11" x1="1116.03" y1="362.38" x2="1116.03" y2="227.07" xlink:href="#linear-gradient1"/>
    <clipPath id="clippath-1">
      <path class="st0" d="M1169.98,317.97c6.33-8.71,9.8-18.1,9.8-27.9,0-45.15-73.32-81.75-163.76-81.75s-163.76,36.6-163.76,81.75c0,9.75,3.43,19.09,9.7,27.75-.76-1.06-1.49-2.12-2.17-3.2l156.13,269.94,156.32-269.91c-.7,1.12-1.46,2.22-2.26,3.32Z"/>
    </clipPath>
    <linearGradient id="linear-gradient12" x1="929.87" y1="388.7" x2="1187.64" y2="388.7" xlink:href="#linear-gradient"/>
    <linearGradient id="linear-gradient13" x1="1016.01" y1="281.76" x2="1016.01" y2="281.76" xlink:href="#linear-gradient"/>
    <linearGradient id="linear-gradient14" x1="1664.6" y1="640.97" x2="1991.12" y2="640.97" xlink:href="#linear-gradient"/>
    <linearGradient id="linear-gradient15" x1="1827.86" x2="1827.86" xlink:href="#linear-gradient1"/>
    <linearGradient id="linear-gradient16" x1="1827.86" y1="623.4" x2="1827.86" y2="623.4" xlink:href="#linear-gradient"/>
    <linearGradient id="linear-gradient17" x1="1827.86" y1="281.76" x2="1827.86" y2="281.76" xlink:href="#linear-gradient"/>
    <linearGradient id="linear-gradient18" x1="1827.86" x2="1827.86" xlink:href="#linear-gradient1"/>
    <linearGradient id="linear-gradient19" x1="2391.21" y1="640.96" x2="2717.73" y2="640.96" xlink:href="#linear-gradient"/>
    <linearGradient id="linear-gradient20" x1="2554.47" x2="2554.47" xlink:href="#linear-gradient1"/>
    <linearGradient id="linear-gradient21" x1="2554.47" y1="623.4" x2="2554.47" y2="623.4" xlink:href="#linear-gradient"/>
    <linearGradient id="linear-gradient22" x1="2554.47" y1="281.76" x2="2554.47" y2="281.76" xlink:href="#linear-gradient"/>
    <linearGradient id="linear-gradient23" x1="2554.47" x2="2554.47" xlink:href="#linear-gradient1"/>
  </defs>
  <rect class="st26" x="0" y="0" width="3000" height="1282.77"/>
  <text class="st36" transform="translate(220.01 1148.73)"><tspan x="0" y="0">القطع الزائد</tspan></text>
  <text class="st36" transform="translate(914.27 1148.73)"><tspan x="0" y="0">القطع المكافئ</tspan></text>
  <text class="st36" transform="translate(1668.44 1148.73)"><tspan x="0" y="0">القطع الناقص</tspan></text>
  <text class="st36" transform="translate(2482.6 1148.73)"><tspan x="0" y="0">الدائرة</tspan></text>
  <g>
    <g>
      <path class="st25" d="M335.36,959.66c-90.02,0-163.26-36.45-163.26-81.25,0-8.96,2.97-17.81,8.82-26.3l.54-.78h-.11l153.92-265.77,154.09,265.77h-.08l.53.78c5.85,8.49,8.82,17.34,8.82,26.3,0,44.8-73.24,81.25-163.26,81.25ZM184.13,322.27c25.51,30.23,84.47,50.05,151.23,50.05s125.69-19.79,151.21-50l-151.3,261.25-151.13-261.3Z"/>
      <path class="st27" d="M186.94,326.12c11.5,11.99,28.6,22.39,50.31,30.47,28.53,10.62,62.45,16.23,98.12,16.23s69.6-5.61,98.11-16.21c21.69-8.07,38.78-18.45,50.28-30.43l-148.49,256.4-148.33-256.45M335.26,586.56l153.22,264.27h-.17l1.08,1.57c5.79,8.41,8.73,17.16,8.73,26.02,0,44.52-73.01,80.75-162.76,80.75s-162.76-36.22-162.76-80.75c0-8.86,2.94-17.61,8.73-26.02l1.05-1.57h-.17l153.05-264.27M179.13,314.62l156.13,269.94,156.32-269.91c-20.89,33.15-82.92,57.16-156.22,57.16s-135.34-24.04-156.23-57.19h0ZM335.26,584.57l-154.78,267.27h.03c-5.74,8.34-8.91,17.28-8.91,26.59,0,45.15,73.32,81.75,163.76,81.75s163.76-36.6,163.76-81.75c0-9.31-3.16-18.25-8.91-26.59h0l-154.96-267.27h0Z"/>
    </g>
    <ellipse class="st17" cx="335.36" cy="878.42" rx="163.76" ry="81.75"/>
    <ellipse class="st8" cx="335.36" cy="290.07" rx="163.76" ry="81.75"/>
    <polygon class="st6" points="538.3 721.73 323.56 1030.65 323.56 440.28 538.3 131.37 538.3 721.73"/>
    <g>
      <path class="st7" d="M499.12,290.07c0-19.26-13.38-36.96-35.72-50.93-2.46,35.08-9.32,75.51-17.21,111.1,32.53-14.94,52.93-36.36,52.93-60.16Z"/>
      <path class="st10" d="M409.47,751.78c-9.66,6.88-22.57,26.15-28.02,60.06-5.23,32.48-9.34,83.74-7.27,145.99,0,0,90.2-129.77,90.2-129.77-1.86-8.03-3.9-15.56-6.1-22.55-13.52-43.03-32.74-65.2-48.81-53.74Z"/>
      <path class="st1" d="M464.37,828.07c-1.86-8.03-3.9-15.56-6.1-22.55-13.52-43.03-32.74-65.2-48.81-53.74-9.66,6.88-22.57,26.15-28.02,60.06-5.23,32.48-9.34,83.74-7.27,145.99"/>
    </g>
    <g class="st38">
      <path class="st1" d="M463.31,239.11c-5.28,76.03-31.07,177.17-43.45,200.08"/>
      <path class="st14" d="M418.69,440.51l1.21-2.1,71.68-123.76c-.7,1.12-1.46,2.22-2.26,3.32-.23.31-.48.62-.71.93-.64.85-1.3,1.69-2,2.53-.31.37-.63.74-.95,1.1-.69.8-1.41,1.59-2.15,2.38-.31.33-.62.66-.95.99-.89.91-1.82,1.82-2.78,2.71-.19.17-.36.35-.55.53-1.22,1.12-2.49,2.22-3.81,3.31-.01.01-.03.02-.04.03-1.27,1.04-2.59,2.06-3.94,3.07-.28.21-.56.41-.84.61-1.14.83-2.32,1.66-3.52,2.47-.31.21-.62.42-.93.62-1.32.87-2.68,1.74-4.07,2.58-.17.1-.33.21-.5.31-3.24,1.96-6.67,3.84-10.26,5.64-.19.1-.39.19-.59.29-1.49.74-3,1.46-4.54,2.17-.09.04-.17.08-.26.12-.32.15-.64.29-.97.44-1.62.73-3.28,1.45-4.96,2.14-.24.1-.48.2-.72.3-3.94,1.62-8.02,3.14-12.25,4.57-.16.05-.33.11-.49.16-1.88.63-3.79,1.24-5.72,1.83-.42.13-.85.26-1.28.38-1.76.53-3.54,1.04-5.34,1.53-.42.12-.84.23-1.27.35-2.11.57-4.24,1.12-6.41,1.64-.07.02-.14.04-.21.05-2.33.56-4.69,1.09-7.08,1.6-.22.05-.45.09-.67.14-2.04.43-4.11.83-6.2,1.22-.61.11-1.22.22-1.83.33-1.76.31-3.54.61-5.32.9-.67.11-1.34.21-2.02.32-1.9.29-3.81.56-5.74.81-.51.07-1.02.14-1.53.21-1.09.14-2.19.26-3.28.39v.02c11.47,67.89,30.41,96.58,46.05,70.82Z"/>
      <path class="st1" d="M419.85,439.19c-15.83,29.27-35.42.74-47.19-69.08"/>
    </g>
    <path class="st37" d="M171.6,290.07c-.09-26.05,22.22-45.01,43.48-56.3,66.52-35.02,174-35.03,240.56,0,15.45,8.27,30.23,19.51,38.41,35.36,3.29,6.47,5.11,13.69,5.07,20.95-.19-7.24-2.19-14.31-5.65-20.64-3.97-7.16-9.49-13.46-15.7-18.77-6.96-6.07-14.69-11.22-22.84-15.57-66.08-34.78-173.02-34.79-239.14,0-20.81,11.3-43.46,29.36-44.19,54.98h0Z"/>
    <path class="st27" d="M499.12,290.07c.09,26.05-22.22,45.01-43.48,56.3-66.52,35.02-174,35.03-240.56,0-15.45-8.27-30.23-19.51-38.41-35.36-3.29-6.47-5.11-13.69-5.07-20.95.19,7.24,2.19,14.31,5.65,20.64,3.97,7.16,9.49,13.46,15.7,18.77,6.96,6.07,14.69,11.22,22.84,15.57,66.08,34.78,173.02,34.79,239.14,0,20.81-11.3,43.46-29.36,44.19-54.98h0Z"/>
    <g>
      <line class="st35" x1="335.36" y1="192.45" x2="335.36" y2="371.07"/>
      <g class="st16">
        <line class="st11" x1="335.36" y1="371.07" x2="335.36" y2="875.74"/>
        <g>
          <line class="st3" x1="335.36" y1="371.07" x2="335.36" y2="373.07"/>
          <line class="st2" x1="335.36" y1="377.08" x2="335.36" y2="871.74"/>
          <line class="st3" x1="335.36" y1="873.74" x2="335.36" y2="875.74"/>
        </g>
      </g>
    </g>
  </g>
  <g>
    <g>
      <path class="st13" d="M1016.01,959.66c-90.02,0-163.26-36.45-163.26-81.25,0-8.96,2.97-17.81,8.82-26.3l.54-.78h-.11l153.92-265.77,154.09,265.77h-.08l.53.78c5.85,8.49,8.82,17.34,8.82,26.3,0,44.8-73.24,81.25-163.26,81.25ZM864.78,322.27c25.51,30.23,84.47,50.05,151.23,50.05s125.69-19.79,151.21-50l-151.3,261.25-151.13-261.3Z"/>
      <path class="st27" d="M867.59,326.12c11.5,11.99,28.61,22.39,50.31,30.47,28.53,10.62,62.45,16.23,98.12,16.23s69.6-5.61,98.11-16.21c21.69-8.07,38.78-18.45,50.28-30.43l-148.49,256.4-148.33-256.45M1015.92,586.56l153.22,264.27h-.17l1.08,1.57c5.79,8.41,8.73,17.16,8.73,26.02,0,44.52-73.01,80.75-162.76,80.75s-162.76-36.22-162.76-80.75c0-8.86,2.94-17.61,8.73-26.02l1.05-1.57h-.17l153.05-264.27M859.78,314.62l156.13,269.94,156.32-269.91c-20.89,33.15-82.92,57.16-156.22,57.16s-135.34-24.04-156.23-57.19h0ZM1015.91,584.57l-154.78,267.27h.03c-5.74,8.34-8.91,17.28-8.91,26.59,0,45.15,73.32,81.75,163.76,81.75s163.76-36.6,163.76-81.75c0-9.31-3.16-18.25-8.91-26.59h0l-154.96-267.27h0Z"/>
    </g>
    <ellipse class="st17" cx="1016.01" cy="878.42" rx="163.76" ry="81.75"/>
    <ellipse class="st12" cx="1016.01" cy="290.07" rx="163.76" ry="81.75"/>
    <path class="st9" d="M1179.77,290.07c0-19.26-13.38-36.96-35.72-50.93-2.46,35.08-9.32,75.51-17.21,111.1,32.53-14.94,52.93-36.36,52.93-60.16Z"/>
    <g class="st16">
      <line class="st20" x1="1016.01" y1="371.07" x2="1016.01" y2="875.74"/>
      <g>
        <line class="st3" x1="1016.01" y1="371.07" x2="1016.01" y2="373.07"/>
        <line class="st2" x1="1016.01" y1="377.08" x2="1016.01" y2="871.74"/>
        <line class="st3" x1="1016.01" y1="873.74" x2="1016.01" y2="875.74"/>
      </g>
    </g>
    <polygon class="st6" points="1070.89 189.08 931.62 360.13 886.73 415.27 1142.45 946.51 1326.65 708.69 1070.89 189.08"/>
    <path class="st29" d="M1052.29,211.92c11.39,40.1,23.2,109.05,23.2,152.53,0,0,95.89-15.37,104.28-74.38-4.28-56.5-111.71-78.32-127.48-78.15"/>
    <path class="st1" d="M1053.4,211.11c15.65,56.59,37.97,217.86,12.88,281.76"/>
    <g class="st28">
      <path class="st15" d="M929.87,362.22c17.74,24.06,88.51,134.2,139.25,130.39,0,0,154.59-247.06,110.65-202.54,0,42.96-56.62,70.79-113.25,79.76-47.2,7.47-99.38,4.42-136.65-7.6Z"/>
      <path class="st1" d="M931.62,360.13s95.25,147.63,140.22,131.61"/>
    </g>
    <path class="st37" d="M852.26,290.07c-.09-26.05,22.22-45.01,43.48-56.3,66.52-35.02,174-35.03,240.56,0,15.45,8.27,30.23,19.51,38.41,35.36,3.29,6.47,5.11,13.69,5.07,20.95-.19-7.24-2.19-14.31-5.65-20.64-3.97-7.16-9.49-13.46-15.7-18.77-6.96-6.07-14.69-11.22-22.84-15.57-66.08-34.78-173.02-34.79-239.14,0-20.81,11.3-43.46,29.36-44.19,54.98h0Z"/>
    <line class="st32" x1="1016.01" y1="192.45" x2="1016.01" y2="371.07"/>
    <path class="st27" d="M1179.44,290.51c.09,26.05-22.22,45.01-43.48,56.3-66.52,35.02-174,35.03-240.56,0-15.45-8.27-30.23-19.51-38.41-35.36-3.29-6.47-5.11-13.69-5.07-20.95.19,7.24,2.19,14.31,5.65,20.64,3.97,7.16,9.49,13.46,15.7,18.77,6.96,6.07,14.69,11.22,22.84,15.57,66.08,34.78,173.02,34.79,239.14,0,20.81-11.3,43.46-29.36,44.19-54.98h0Z"/>
  </g>
  <g>
    <g>
      <path class="st21" d="M1827.86,959.66c-90.02,0-163.26-36.45-163.26-81.25,0-8.96,2.97-17.81,8.82-26.3l.54-.78h-.11l153.92-265.77,154.09,265.77h-.08l.53.78c5.85,8.49,8.82,17.34,8.82,26.3,0,44.8-73.24,81.25-163.26,81.25ZM1676.63,322.27c25.51,30.23,84.47,50.05,151.23,50.05s125.69-19.79,151.21-50l-151.3,261.25-151.13-261.3Z"/>
      <path class="st27" d="M1679.44,326.12c11.5,11.99,28.61,22.39,50.31,30.47,28.53,10.62,62.45,16.23,98.12,16.23s69.6-5.61,98.11-16.21c21.69-8.07,38.78-18.45,50.28-30.43l-148.49,256.4-148.33-256.45M1827.76,586.56l153.22,264.27h-.17l1.08,1.57c5.79,8.41,8.73,17.16,8.73,26.02,0,44.52-73.01,80.75-162.76,80.75s-162.76-36.22-162.76-80.75c0-8.86,2.94-17.61,8.73-26.02l1.05-1.57h-.17l153.05-264.27M1671.63,314.62l156.13,269.94,156.32-269.91c-20.89,33.15-82.92,57.16-156.22,57.16s-135.34-24.04-156.23-57.19h0ZM1827.76,584.57l-154.78,267.27h.03c-5.74,8.34-8.91,17.28-8.91,26.59,0,45.15,73.32,81.75,163.76,81.75s163.76-36.6,163.76-81.75c0-9.31-3.16-18.25-8.91-26.59h0l-154.96-267.27h0Z"/>
    </g>
    <ellipse class="st17" cx="1827.86" cy="878.42" rx="163.76" ry="81.75"/>
    <ellipse class="st18" cx="1827.86" cy="290.07" rx="163.76" ry="81.75"/>
    <g class="st16">
      <line class="st19" x1="1827.86" y1="371.07" x2="1827.86" y2="875.74"/>
      <g>
        <line class="st3" x1="1827.86" y1="371.07" x2="1827.86" y2="373.07"/>
        <line class="st2" x1="1827.86" y1="377.08" x2="1827.86" y2="871.74"/>
        <line class="st3" x1="1827.86" y1="873.74" x2="1827.86" y2="875.74"/>
      </g>
    </g>
    <line class="st34" x1="1827.86" y1="192.45" x2="1827.86" y2="371.07"/>
    <polygon class="st6" points="1749.81 271.8 1601.14 369.41 1553.73 400.55 1896.06 649.84 2093.47 518.76 1749.81 271.8"/>
    <ellipse class="st30" cx="1827.86" cy="290.07" rx="163.76" ry="81.75"/>
    <path class="st27" d="M1991.29,290.51c.09,26.05-22.22,45.01-43.48,56.3-66.52,35.02-174,35.03-240.56,0-15.45-8.27-30.23-19.51-38.41-35.36-3.29-6.47-5.11-13.69-5.07-20.95.19,7.24,2.19,14.31,5.65,20.64,3.97,7.16,9.49,13.46,15.7,18.77,6.96,6.07,14.69,11.22,22.84,15.57,66.08,34.78,173.02,34.79,239.14,0,20.81-11.3,43.46-29.36,44.19-54.98h0Z"/>
    <path class="st37" d="M1664.1,290.07c-.09-26.05,22.22-45.01,43.48-56.3,66.52-35.02,174-35.03,240.56,0,15.45,8.27,30.23,19.51,38.41,35.36,3.29,6.47,5.11,13.69,5.07,20.95-.19-7.24-2.19-14.31-5.65-20.64-3.97-7.16-9.49-13.46-15.7-18.77-6.96-6.07-14.69-11.22-22.84-15.57-66.08-34.78-173.02-34.79-239.14,0-20.81,11.3-43.46,29.36-44.19,54.98h0Z"/>
    <path class="st6" d="M1874.46,496.01c-20.53,20.98-66.3,14.17-97.59-13.39-28.04-24.7-31.97-55.75-12.24-70.86,18.77-14.37,54.81-10.98,83.7,8.55,31.9,21.57,45.45,55.95,26.13,75.7Z"/>
    <path class="st4" d="M1874.46,496.01c-23.93,24.6-69.52,10.67-92.87-8.5-8.8-6.95-16.54-15.43-21.84-25.28,12.07,18.64,31.19,32.2,51.88,39.74,20.13,7.13,45.93,9.47,62.83-5.96h0Z"/>
  </g>
  <g>
    <g>
      <path class="st22" d="M2554.47,959.66c-90.02,0-163.26-36.45-163.26-81.25,0-8.96,2.97-17.81,8.82-26.3l.54-.78h-.11l153.92-265.77,154.09,265.77h-.08l.53.78c5.85,8.49,8.82,17.34,8.82,26.3,0,44.8-73.24,81.25-163.26,81.25ZM2403.24,322.27c25.51,30.23,84.47,50.05,151.23,50.05s125.69-19.79,151.21-50l-151.3,261.25-151.13-261.3Z"/>
      <path class="st27" d="M2406.04,326.12c11.5,11.99,28.61,22.39,50.31,30.47,28.53,10.62,62.45,16.23,98.12,16.23s69.6-5.61,98.11-16.21c21.69-8.07,38.78-18.45,50.28-30.43l-148.49,256.4-148.33-256.45M2554.37,586.56l153.22,264.27h-.17l1.08,1.57c5.79,8.41,8.73,17.16,8.73,26.02,0,44.52-73.01,80.75-162.76,80.75s-162.76-36.22-162.76-80.75c0-8.86,2.94-17.61,8.73-26.02l1.05-1.57h-.17l153.05-264.27M2398.24,314.62l156.13,269.94,156.32-269.91c-20.89,33.15-82.92,57.16-156.22,57.16s-135.34-24.04-156.23-57.19h0ZM2554.37,584.57l-154.78,267.27h.03c-5.74,8.34-8.91,17.28-8.91,26.59,0,45.15,73.32,81.75,163.76,81.75s163.76-36.6,163.76-81.75c0-9.31-3.16-18.25-8.91-26.59h0l-154.96-267.27h0Z"/>
    </g>
    <ellipse class="st17" cx="2554.47" cy="878.42" rx="163.76" ry="81.75"/>
    <ellipse class="st24" cx="2554.47" cy="290.07" rx="163.76" ry="81.75"/>
    <g class="st16">
      <line class="st23" x1="2554.47" y1="371.07" x2="2554.47" y2="875.74"/>
      <g>
        <line class="st3" x1="2554.47" y1="371.07" x2="2554.47" y2="373.07"/>
        <line class="st2" x1="2554.47" y1="377.08" x2="2554.47" y2="871.74"/>
        <line class="st3" x1="2554.47" y1="873.74" x2="2554.47" y2="875.74"/>
      </g>
    </g>
    <line class="st33" x1="2554.47" y1="192.45" x2="2554.47" y2="371.07"/>
    <polygon class="st6" points="2414.16 311.12 2313.25 425.12 2280.91 461.66 2702.68 594.1 2834.97 439.79 2414.16 311.12"/>
    <ellipse class="st31" cx="2554.47" cy="290.07" rx="163.76" ry="81.75"/>
    <path class="st27" d="M2717.89,290.51c.09,26.05-22.22,45.01-43.48,56.3-66.52,35.02-174,35.03-240.56,0-15.45-8.27-30.23-19.51-38.41-35.36-3.29-6.47-5.11-13.69-5.07-20.95.19,7.24,2.19,14.31,5.65,20.64,3.97,7.16,9.49,13.46,15.7,18.77,6.96,6.07,14.69,11.22,22.84,15.57,66.08,34.78,173.02,34.79,239.14,0,20.81-11.3,43.46-29.36,44.19-54.98h0Z"/>
    <path class="st37" d="M2390.71,290.07c-.09-26.05,22.22-45.01,43.48-56.3,66.52-35.02,174-35.03,240.56,0,15.45,8.27,30.23,19.51,38.41,35.36,3.29,6.47,5.11,13.69,5.07,20.95-.19-7.24-2.19-14.31-5.65-20.64-3.97-7.16-9.49-13.46-15.7-18.77-6.96-6.07-14.69-11.22-22.84-15.57-66.08-34.78-173.02-34.79-239.14,0-20.81,11.3-43.46,29.36-44.19,54.98h0Z"/>
    <path class="st5" d="M2623.12,458.98c-8.57,27.73-57.12,41.49-98.43,30.39-33.8-9.09-47.37-31.58-36.28-50.31,10.32-17.42,40.81-29.46,73.08-27.74,38.33,2.05,69.37,22.62,61.63,47.66Z"/>
    <path class="st4" d="M2620.12,465.71c-6.24,11.09-17.85,18.03-29.5,22.38-23.73,8.41-50.6,8.13-74.2-.55-11.56-4.48-23.2-11.7-28.77-23.17,3.07,5.45,7.61,9.92,12.73,13.42,30.34,21.22,97.36,20.58,119.74-12.07h0Z"/>
  </g>
</svg>