<svg id="Group_7" data-name="Group 7" xmlns="http://www.w3.org/2000/svg" xmlns:xlink="http://www.w3.org/1999/xlink" width="216" height="42.068" viewBox="0 0 216 42.068">
  <defs>
    <clipPath id="clip-path">
      <rect id="Rectangle_1" data-name="Rectangle 1" width="216" height="42.068" fill="#fff"/>
    </clipPath>
  </defs>
  <g id="Group_1" data-name="Group 1" clip-path="url(#clip-path)">
    <path id="Path_1" data-name="Path 1" d="M557.253,0a21.034,21.034,0,1,0,21.1,21.034A21.091,21.091,0,0,0,557.253,0m-19.83,21.034a19.83,19.83,0,1,1,19.83,19.773,19.823,19.823,0,0,1-19.83-19.773" transform="translate(-362.349)" fill="#fff"/>
    <path id="Path_2" data-name="Path 2" d="M564.276,13.78c-.466.059-.929.139-1.381.236.069.2.135.4.2.6a60.141,60.141,0,0,1,1.792,8.03,28.526,28.526,0,0,0-3.239-7.344,1.191,1.191,0,0,0-1.444-.465,15.652,15.652,0,0,0-1.506.693q.454.5.873,1.05a29.977,29.977,0,0,1,3.556,6.443,20.809,20.809,0,0,0-5.354-6,1.2,1.2,0,0,0-1.447.007,16.638,16.638,0,0,0-1.43,1.22,14.811,14.811,0,0,1,1.819,1,19.731,19.731,0,0,1,5.5,5.621,18.632,18.632,0,0,0-7.581-5.23,1.21,1.21,0,0,0-1.36.388,16.959,16.959,0,0,0-1.176,1.7,16.455,16.455,0,0,1,8.443,4c.24.208.473.426.7.648-.251-.18-.5-.353-.762-.516a19.236,19.236,0,0,0-8.141-2.949,1.2,1.2,0,0,0-1.218.7,16.792,16.792,0,0,0-.734,2.017,15.646,15.646,0,0,1,9.195,1.737c.271.135.536.284.8.437A18.9,18.9,0,0,0,550.8,27.2h-.014a1.169,1.169,0,0,0-.929,1,16.147,16.147,0,0,0-.132,2.367h0a15.634,15.634,0,0,1,9.835-1.178,7.712,7.712,0,0,1,6.234,5.289l-.118,5.344a14.454,14.454,0,0,0-3.507-1.778,22.155,22.155,0,0,0-10.781-.679c.135.277.278.548.428.814a1.2,1.2,0,0,0,1.239.6,24.923,24.923,0,0,1,3.214-.333,18.133,18.133,0,0,1,5.56.655,11.8,11.8,0,0,1,4.6,2.4,11.8,11.8,0,0,1,4.6-2.4,18.343,18.343,0,0,1,5.56-.655,24.7,24.7,0,0,1,3.2.329,1.2,1.2,0,0,0,1.235-.6c.15-.267.292-.541.428-.818a22.113,22.113,0,0,0-10.771.679,14.426,14.426,0,0,0-3.517,1.785l-.115-5.334a7.71,7.71,0,0,1,6.238-5.306,15.648,15.648,0,0,1,9.832,1.175h0A16.586,16.586,0,0,0,583,28.195a1.173,1.173,0,0,0-.932-1h-.007a18.392,18.392,0,0,0-9.584.634,16.182,16.182,0,0,1,6.537-2.222,13.091,13.091,0,0,1,3.455.017,16.445,16.445,0,0,0-.731-2.007,1.193,1.193,0,0,0-1.218-.7,19.208,19.208,0,0,0-8.134,2.949c-.254.159-.5.329-.748.5A17.194,17.194,0,0,1,577.7,22.5a14.133,14.133,0,0,1,3.058-.77,16.8,16.8,0,0,0-1.169-1.691,1.2,1.2,0,0,0-1.357-.388,18.575,18.575,0,0,0-7.507,5.126,19.036,19.036,0,0,1,5.427-5.521,14.7,14.7,0,0,1,1.813-1,16.476,16.476,0,0,0-1.43-1.22,1.209,1.209,0,0,0-1.444-.01,20.5,20.5,0,0,0-5.333,5.94,24.434,24.434,0,0,1,4.4-7.434,15.194,15.194,0,0,0-1.489-.683,1.194,1.194,0,0,0-1.444.461,28.84,28.84,0,0,0-3.229,7.188,59.846,59.846,0,0,1,1.767-7.878c.063-.2.132-.4.2-.6-.456-.1-.915-.177-1.381-.236a1.176,1.176,0,0,0-1.294.908,51.149,51.149,0,0,0-.856,5.233,51.129,51.129,0,0,0-.856-5.237,1.173,1.173,0,0,0-1.145-.915.743.743,0,0,0-.149.01M552.677,39.757c.226.326.463.641.71.95a1.218,1.218,0,0,0,1.089.447c.595-.066,1.193-.111,1.792-.135a18.12,18.12,0,0,1,5.559.655,11.8,11.8,0,0,1,4.6,2.4,11.8,11.8,0,0,1,4.6-2.4,18.341,18.341,0,0,1,5.559-.655c.595.021,1.19.066,1.781.132a1.227,1.227,0,0,0,1.089-.447c.247-.309.487-.624.709-.95a21.311,21.311,0,0,0-9.48.856,13.5,13.5,0,0,0-4.258,2.357,13.383,13.383,0,0,0-4.258-2.357,19.557,19.557,0,0,0-6.485-1.036,25.546,25.546,0,0,0-3.006.18m1.844,2.225a16.141,16.141,0,0,0,1.249,1.14,1.187,1.187,0,0,0,.783.267,16.858,16.858,0,0,1,5.27.662,12.6,12.6,0,0,1,4.6,2.4,12.357,12.357,0,0,1,4.6-2.4,17.541,17.541,0,0,1,5.264-.662,1.177,1.177,0,0,0,.779-.267,16.3,16.3,0,0,0,1.252-1.144,20.221,20.221,0,0,0-7.636,1.009,13.479,13.479,0,0,0-4.258,2.357,13.381,13.381,0,0,0-4.258-2.357,19.582,19.582,0,0,0-6.491-1.036c-.386,0-.773.01-1.155.028m10.833,4.935a14.914,14.914,0,0,0-3.179-1.549,18.676,18.676,0,0,0-4.62-.957,16.631,16.631,0,0,0,7.8,2.506m5.333-1.549a15.054,15.054,0,0,0-3.176,1.549A16.619,16.619,0,0,0,575.29,44.4a18.6,18.6,0,0,0-4.606.957" transform="translate(-371.519 -9.306)" fill="#fff"/>
    <path id="Path_3" data-name="Path 3" d="M262.133,109.894v-.4c.888-.124,1.013-.249.821-.812s-.458-1.251-.764-2.054h-3.066c-.239.64-.43,1.185-.611,1.738-.306.85-.191,1.013.888,1.127v.4h-3.152v-.4c.926-.144,1.127-.239,1.633-1.481l3-7.288.5-.124c.917,2.474,1.834,4.957,2.78,7.412.458,1.232.659,1.385,1.586,1.481v.4Zm-1.4-7.374H260.7c-.459,1.156-.908,2.35-1.337,3.477h2.617Z" transform="translate(-173.18 -67.988)" fill="#fff"/>
    <path id="Path_4" data-name="Path 4" d="M291.045,111.38c.468-.764,1.051-1.509,1.71-1.509a.807.807,0,0,1,.86.716.833.833,0,0,1-.5.755.348.348,0,0,1-.382-.038.852.852,0,0,0-.621-.287c-.363,0-.793.41-1.1,1.156v2.493c0,.917.067,1,1.175,1.089v.373H288.8v-.373c.86-.086.984-.172.984-1.089v-2.894c0-.888-.077-.946-.869-1.06V110.4a9.345,9.345,0,0,0,2.1-.573v1.557Z" transform="translate(-195.179 -74.221)" fill="#fff"/>
    <path id="Path_5" data-name="Path 5" d="M311.388,116.389a1.126,1.126,0,0,1-.726-.277,1.261,1.261,0,0,1-.344-.592,4.752,4.752,0,0,1-1.643.869,1.726,1.726,0,0,1-1.757-1.719c0-.7.382-1.117,1.156-1.366a9.007,9.007,0,0,0,2.2-.907v-.248c0-1-.459-1.538-1.137-1.538a.813.813,0,0,0-.6.248,2.181,2.181,0,0,0-.43.946.444.444,0,0,1-.459.344.7.7,0,0,1-.649-.621c0-.21.181-.382.458-.573a6.555,6.555,0,0,1,2.168-.984,1.911,1.911,0,0,1,1.185.354,2.1,2.1,0,0,1,.678,1.767V114.6c0,.621.248.831.506.831a1.112,1.112,0,0,0,.506-.153l.143.372Zm-1.117-3.505c-.287.143-.86.411-1.156.545-.554.239-.86.516-.86,1.031a1,1,0,0,0,.974,1.06,1.7,1.7,0,0,0,1.041-.458Z" transform="translate(-207.423 -74.321)" fill="#fff"/>
    <path id="Path_6" data-name="Path 6" d="M329.116,102.466a1.681,1.681,0,0,1,.64-.162,2.893,2.893,0,0,1,2.856,2.932,3.529,3.529,0,0,1-3.62,3.486,5.382,5.382,0,0,1-2.168-.5v-7.718c0-.879-.048-.974-.936-1.06v-.334a13.131,13.131,0,0,0,2.168-.487v4.288Zm-1.06,4.451a1.094,1.094,0,0,0,.086.478,1.3,1.3,0,0,0,1.222.773c1.127,0,1.872-.926,1.872-2.56a2.231,2.231,0,0,0-2.13-2.5,2.667,2.667,0,0,0-1.051.239Z" transform="translate(-220.244 -66.654)" fill="#fff"/>
    <path id="Path_7" data-name="Path 7" d="M350.309,110.551v-.372c.888-.086.993-.172.993-1.146v-2.808c0-.879-.048-.946-.889-1.089V104.8a10.625,10.625,0,0,0,2.12-.535v4.766c0,.964.1,1.041,1,1.146v.372Zm.745-8.2a.781.781,0,0,1,.784-.784.749.749,0,0,1,.745.784.758.758,0,0,1-.764.754.784.784,0,0,1-.764-.754" transform="translate(-236.748 -68.645)" fill="#fff"/>
    <path id="Path_8" data-name="Path 8" d="M369.1,114.937a3.441,3.441,0,0,1-2.436,1.452,2.847,2.847,0,0,1-2.923-2.914,3.3,3.3,0,0,1,1.442-2.712,3.959,3.959,0,0,1,2.188-.793h.019a2.041,2.041,0,0,1,1.28.372.494.494,0,0,1,.229.43.694.694,0,0,1-.5.64c-.086,0-.153-.038-.277-.162a2.138,2.138,0,0,0-1.452-.6c-.879,0-1.681.706-1.681,2.187a2.222,2.222,0,0,0,3.868,1.786Z" transform="translate(-245.827 -74.321)" fill="#fff"/>
    <path id="Path_9" data-name="Path 9" d="M388.331,116.389a1.127,1.127,0,0,1-.726-.277,1.258,1.258,0,0,1-.344-.592,4.755,4.755,0,0,1-1.643.869,1.726,1.726,0,0,1-1.758-1.719c0-.7.382-1.117,1.156-1.366a9.008,9.008,0,0,0,2.2-.907v-.248c0-1-.458-1.538-1.137-1.538a.811.811,0,0,0-.6.248,2.177,2.177,0,0,0-.43.946.444.444,0,0,1-.459.344.7.7,0,0,1-.649-.621c0-.21.181-.382.458-.573a6.553,6.553,0,0,1,2.168-.984,1.909,1.909,0,0,1,1.184.354,2.1,2.1,0,0,1,.678,1.767V114.6c0,.621.248.831.506.831a1.11,1.11,0,0,0,.506-.153l.143.372Zm-1.117-3.505c-.287.143-.86.411-1.156.545-.554.239-.86.516-.86,1.031a1,1,0,0,0,.974,1.06,1.7,1.7,0,0,0,1.041-.458Z" transform="translate(-259.424 -74.321)" fill="#fff"/>
    <path id="Path_10" data-name="Path 10" d="M422.914,101.249a4.064,4.064,0,0,1,2.416.583,2.33,2.33,0,0,1,.936,1.987,2.871,2.871,0,0,1-2.789,2.865,4.125,4.125,0,0,1-.668.019l-1.07-.267v2.13c0,1.194.124,1.27,1.423,1.366v.4h-3.993v-.4c1.137-.1,1.261-.21,1.261-1.375v-5.511c0-1.251-.124-1.309-1.184-1.375v-.42Zm-1.175,4.7a3.162,3.162,0,0,0,1.022.172,2.207,2.207,0,0,0-.086-4.4,1.313,1.313,0,0,0-.783.172c-.1.1-.153.248-.153.64Z" transform="translate(-283.286 -68.427)" fill="#fff"/>
    <path id="Path_11" data-name="Path 11" d="M444.827,110.551v-.372c.888-.086.994-.172.994-1.146v-2.808c0-.879-.048-.946-.889-1.089V104.8a10.624,10.624,0,0,0,2.12-.535v4.766c0,.964.1,1.041,1,1.146v.372Zm.745-8.2a.781.781,0,0,1,.783-.784.749.749,0,0,1,.745.784.758.758,0,0,1-.764.754.784.784,0,0,1-.764-.754" transform="translate(-300.626 -68.645)" fill="#fff"/>
    <path id="Path_12" data-name="Path 12" d="M463.619,114.937a3.441,3.441,0,0,1-2.436,1.452,2.847,2.847,0,0,1-2.923-2.914,3.3,3.3,0,0,1,1.442-2.712,3.959,3.959,0,0,1,2.188-.793h.019a2.041,2.041,0,0,1,1.28.372.493.493,0,0,1,.229.43.694.694,0,0,1-.5.64c-.086,0-.153-.038-.277-.162a2.138,2.138,0,0,0-1.452-.6c-.879,0-1.681.706-1.681,2.187a2.222,2.222,0,0,0,3.868,1.786Z" transform="translate(-309.704 -74.321)" fill="#fff"/>
    <path id="Path_13" data-name="Path 13" d="M482.006,108.588c-.65-.707-1.538-1.863-2.283-2.751-.172-.21-.287-.287-.411-.287a.579.579,0,0,0-.21.019v1.519c0,.926.124.993,1.031,1.1v.372h-3.286v-.372c.946-.105,1.041-.2,1.041-1.1v-6.572c0-.907-.086-.984-.946-1.07v-.334a12.664,12.664,0,0,0,2.159-.487v6.581a1.7,1.7,0,0,0,.879-.487,8.719,8.719,0,0,0,.974-1.222c.286-.42.229-.535-.42-.611V102.5l2.98-.124v.363a2.893,2.893,0,0,0-1.872.812,16.716,16.716,0,0,0-1.194,1.289c.3.43,1.767,2.1,2.216,2.579a2.03,2.03,0,0,0,1.4.764v.372Z" transform="translate(-322.267 -66.654)" fill="#fff"/>
    <path id="Path_14" data-name="Path 14" d="M504.929,111.832c-.277-.821-.774-1.4-1.471-1.4a.866.866,0,0,0-.878.926c0,.573.535.908,1.175,1.156,1.079.43,1.815.936,1.815,1.92a2.13,2.13,0,0,1-2.378,1.958,2.933,2.933,0,0,1-1.643-.458,7.649,7.649,0,0,1-.248-1.719l.392-.057c.267.936.907,1.767,1.748,1.767a.954.954,0,0,0,.974-.946c0-.573-.372-.888-1.1-1.213-.822-.372-1.806-.85-1.806-1.958a1.978,1.978,0,0,1,2.2-1.834,3.031,3.031,0,0,1,1.28.249,7.915,7.915,0,0,1,.325,1.5Z" transform="translate(-338.791 -74.32)" fill="#fff"/>
    <path id="Path_15" data-name="Path 15" d="M6.157,48.254v.275a.185.185,0,0,1-.2.2H1.432V37.312c0-1.627-.118-1.8-1.432-1.941v-.294a23.446,23.446,0,0,0,4.236-.8V48.058H5.961a.185.185,0,0,1,.2.2" transform="translate(0 -23.163)" fill="#fff"/>
    <path id="Path_16" data-name="Path 16" d="M25.216,40.666c-.569.765-1.2,1.765-1.706,2.589h5.961C32.138,43.254,34,45,34,47.078a3.791,3.791,0,0,1-1.314,2.942,4.912,4.912,0,0,0,2.079.49h.1a.185.185,0,0,1,.2.2v.275a.185.185,0,0,1-.2.2h-.294a5.99,5.99,0,0,1-2.706-.588,5.2,5.2,0,0,1-2.392.588H18.039a.185.185,0,0,1-.2-.2v-.275a.185.185,0,0,1,.2-.2H28.863c1.549,0,2.235-1.647,2.137-3.295s-.961-3.294-2.471-3.294H20.549v-.667c.667-1.118,1.628-2.687,2.314-3.589,1.039-1.392,2.1-1.706,4.922-1.765l.078.255c-.784.275-1.177.589-2.647,2.51" transform="translate(-12.059 -25.615)" fill="#fff"/>
    <path id="Path_17" data-name="Path 17" d="M71.956,54.484V54.19a23.48,23.48,0,0,0,4.235-.8v7.589h1.726a.185.185,0,0,1,.2.2v.275a.185.185,0,0,1-.2.2H69.936a.185.185,0,0,1-.2-.2v-.275a.185.185,0,0,1,.2-.2h3.451V56.425c0-1.628-.118-1.8-1.431-1.941M71.5,62.955a1.315,1.315,0,0,1,1.353,1.333,1.344,1.344,0,0,1-1.373,1.334,1.361,1.361,0,0,1-1.334-1.334A1.339,1.339,0,0,1,71.5,62.955m3.627,0a1.315,1.315,0,0,1,1.353,1.333,1.344,1.344,0,0,1-1.373,1.334,1.36,1.36,0,0,1-1.333-1.334,1.338,1.338,0,0,1,1.353-1.333m7.781,0a1.315,1.315,0,0,1,1.353,1.333,1.344,1.344,0,0,1-1.373,1.334,1.36,1.36,0,0,1-1.333-1.334,1.338,1.338,0,0,1,1.353-1.333" transform="translate(-47.132 -36.08)" fill="#fff"/>
    <path id="Path_18" data-name="Path 18" d="M96.573,54.484V54.19a23.466,23.466,0,0,0,4.235-.8v8.255H94.553a.185.185,0,0,1-.2-.2v-.275a.185.185,0,0,1,.2-.2H98V56.425c0-1.628-.118-1.8-1.432-1.941" transform="translate(-63.769 -36.08)" fill="#fff"/>
    <path id="Path_19" data-name="Path 19" d="M121.978,48.724V37.311c0-1.627-.118-1.8-1.431-1.941v-.294a23.411,23.411,0,0,0,4.235-.8V48.724Z" transform="translate(-81.469 -23.162)" fill="#fff"/>
    <path id="Path_20" data-name="Path 20" d="M138.3,64.8a9.09,9.09,0,0,1-4.294,2.079l-.157-.294c2.235-.922,3.392-1.785,3.392-6.118v-4.04c0-1.628-.118-1.8-1.431-1.941V54.19a23.475,23.475,0,0,0,4.235-.8v4.961c0,2.8-.1,4.824-1.745,6.451" transform="translate(-90.461 -36.08)" fill="#fff"/>
    <path id="Path_21" data-name="Path 21" d="M160.689,39.893V28.481c0-1.627-.118-1.8-1.431-1.941v-.294a23.407,23.407,0,0,0,4.235-.8V39.893ZM164.278,24.5l-.275.294h-4.667V24.4h1.2a1.719,1.719,0,0,1-.784-1.471,1.892,1.892,0,0,1,2.078-1.726,9.153,9.153,0,0,1,1.961.275c.039.177.2,1.275.2,1.392l-.157.039a1.606,1.606,0,0,0-1.745-1.333c-.647,0-.98.647-.98,1.51,0,1.079.451,1.314.922,1.314h2.216Z" transform="translate(-107.631 -14.332)" fill="#fff"/>
    <path id="Path_22" data-name="Path 22" d="M196.378,60.9c0,2.118.725,4.079,2.843,4.137,2.078.079,2.49-1.51,2.49-3.568v-5.04c0-1.628-.118-1.8-1.432-1.941v-.294a23.485,23.485,0,0,0,4.236-.8v7.589h1.726a.185.185,0,0,1,.2.2v.275a.185.185,0,0,1-.2.2h-1.726c0,2.745-2.785,3.981-5.412,3.981-3.334,0-5.432-1.745-5.432-4.118,0-2.628,2.588-3.922,4.53-4.549l.059.255a3.953,3.953,0,0,0-1.882,3.686" transform="translate(-130.889 -36.08)" fill="#fff"/>
    <path id="Path_23" data-name="Path 23" d="M235.035,57.028V55.106c0-3.275,2.961-4.8,5.176-4.8,3.118,0,5.314,2.02,5.314,4.471,0,3.177-2.823,4.785-5.314,4.785a6.083,6.083,0,0,1-3.02-.745,2.866,2.866,0,0,1-2.2.745h-2.961a.185.185,0,0,1-.2-.2v-.275a.185.185,0,0,1,.2-.2h1.628c.549,0,1.294-.294,1.373-1.863m2.628.961a4.891,4.891,0,0,0,2.745.9c1.2,0,2.117-.922,2.117-3.725,0-2.2-.824-4.2-2.51-4.2-1.275,0-2.177,1.373-2.177,3.49v2.235a4.137,4.137,0,0,1-.176,1.294" transform="translate(-156.683 -33.995)" fill="#fff"/>
    <path id="Path_24" data-name="Path 24" d="M239.407,52.145h9.353V47.6c0-1.628-.117-1.8-1.431-1.941v-.294a23.475,23.475,0,0,0,4.235-.8v8.255H239.6c-2.49,0-5.314-1.608-5.314-4.784,0-1.627-.118-1.8-1.431-1.941v-.294a23.485,23.485,0,0,0,4.236-.8v3.432c0,2.8,1.117,3.726,2.313,3.726m2.1-11.824a1.315,1.315,0,0,1,1.353,1.333,1.344,1.344,0,0,1-1.373,1.334,1.361,1.361,0,0,1-1.333-1.334,1.339,1.339,0,0,1,1.353-1.333m-34.512,0a1.315,1.315,0,0,1,1.353,1.333,1.344,1.344,0,0,1-1.373,1.334,1.361,1.361,0,0,1-1.334-1.334,1.339,1.339,0,0,1,1.353-1.333m38.14,0a1.315,1.315,0,0,1,1.352,1.333,1.343,1.343,0,0,1-1.372,1.334,1.361,1.361,0,0,1-1.333-1.334,1.339,1.339,0,0,1,1.353-1.333" transform="translate(-138.976 -27.25)" fill="#fff"/>
    <path id="Path_25" data-name="Path 25" d="M354.966,48.724V37.311c0-1.627-.117-1.8-1.431-1.941v-.294a23.411,23.411,0,0,0,4.235-.8V48.724Z" transform="translate(-238.928 -23.162)" fill="#fff"/>
    <path id="Path_26" data-name="Path 26" d="M371.291,64.8A9.087,9.087,0,0,1,367,66.877l-.157-.294c2.235-.922,3.392-1.785,3.392-6.118v-4.04c0-1.628-.117-1.8-1.431-1.941V54.19a23.469,23.469,0,0,0,4.235-.8v4.961c0,2.8-.1,4.824-1.745,6.451" transform="translate(-247.92 -36.08)" fill="#fff"/>
    <path id="Path_27" data-name="Path 27" d="M398.4,48.254v.275a.185.185,0,0,1-.2.2h-4.53V37.312c0-1.627-.117-1.8-1.431-1.941v-.294a23.441,23.441,0,0,0,4.236-.8V48.058H398.2a.185.185,0,0,1,.2.2" transform="translate(-265.089 -23.163)" fill="#fff"/>
    <path id="Path_28" data-name="Path 28" d="M412.242,43.937v-.294a23.478,23.478,0,0,0,4.236-.8v7.589H418.2a.185.185,0,0,1,.2.2V50.9a.185.185,0,0,1-.2.2h-7.981a.185.185,0,0,1-.2-.2v-.275a.185.185,0,0,1,.2-.2h3.451V45.878c0-1.628-.117-1.8-1.431-1.941m.451-6.157a1.315,1.315,0,0,1,1.353,1.334,1.343,1.343,0,0,1-1.372,1.333,1.36,1.36,0,0,1-1.333-1.333,1.339,1.339,0,0,1,1.353-1.334m3.628,0a1.315,1.315,0,0,1,1.353,1.334,1.343,1.343,0,0,1-1.372,1.333,1.361,1.361,0,0,1-1.334-1.333,1.339,1.339,0,0,1,1.353-1.334m8.338,0a1.315,1.315,0,0,1,1.353,1.334,1.343,1.343,0,0,1-1.372,1.333,1.361,1.361,0,0,1-1.333-1.333,1.339,1.339,0,0,1,1.353-1.334" transform="translate(-277.107 -25.533)" fill="#fff"/>
    <path id="Path_29" data-name="Path 29" d="M434.644,59.2v-.275a.185.185,0,0,1,.2-.2h9.079a2.928,2.928,0,0,1-.725-2.2v-.863c0-3.039-1.412-4-2.922-4a4.861,4.861,0,0,0-2.9,1.078l-.216-.313a6.649,6.649,0,0,1,4.666-2.373c2.412,0,4.177,2.059,4.177,4.784V56.57c0,1.8.784,2.157,1.373,2.157h.039a.185.185,0,0,1,.2.2V59.2a.186.186,0,0,1-.2.2H434.84a.185.185,0,0,1-.2-.2" transform="translate(-293.744 -33.832)" fill="#fff"/>
    <path id="Path_30" data-name="Path 30" d="M476.611,57.028V55.106c0-3.275,2.961-4.8,5.176-4.8,3.118,0,5.314,2.02,5.314,4.471,0,3.177-2.823,4.785-5.314,4.785a6.083,6.083,0,0,1-3.02-.745,2.866,2.866,0,0,1-2.2.745h-2.961a.185.185,0,0,1-.2-.2v-.275a.185.185,0,0,1,.2-.2h1.628c.549,0,1.294-.294,1.373-1.863m2.628.961a4.891,4.891,0,0,0,2.745.9c1.2,0,2.117-.922,2.117-3.725,0-2.2-.824-4.2-2.51-4.2-1.275,0-2.177,1.373-2.177,3.49v2.235a4.136,4.136,0,0,1-.176,1.294" transform="translate(-319.947 -33.995)" fill="#fff"/>
  </g>
</svg>
