<?xml version="1.0" encoding="UTF-8"?>
<!DOCTYPE svg PUBLIC "-//W3C//DTD SVG 1.1//EN" "http://www.w3.org/Graphics/SVG/1.1/DTD/svg11.dtd">
<svg xmlns="http://www.w3.org/2000/svg" version="1.1" width="480px" height="245px" style="shape-rendering:geometricPrecision; text-rendering:geometricPrecision; image-rendering:optimizeQuality; fill-rule:evenodd; clip-rule:evenodd" xmlns:xlink="http://www.w3.org/1999/xlink">
<g><path style="opacity:1" fill="#2a456a" d="M -0.5,-0.5 C 4.5,-0.5 9.5,-0.5 14.5,-0.5C 14.3433,0.873441 14.51,2.20677 15,3.5C 31.1921,29.0785 43.8588,56.4118 53,85.5C 54.5862,87.6705 55.9196,90.0038 57,92.5C 61.8012,106.708 66.1345,121.041 70,135.5C 70.6667,132.833 70.6667,130.167 70,127.5C 65.8133,104.192 61.8133,80.8586 58,57.5C 52.8471,38.2276 48.3471,18.8942 44.5,-0.5C 60.1667,-0.5 75.8333,-0.5 91.5,-0.5C 95.7517,27.4292 99.585,55.4292 103,83.5C 107.301,55.3612 112.134,27.3612 117.5,-0.5C 133.167,-0.5 148.833,-0.5 164.5,-0.5C 160.218,13.6274 156.718,27.9607 154,42.5C 151.841,48.152 149.841,53.8187 148,59.5C 144.076,81.2645 139.743,102.931 135,124.5C 134.333,126.833 134.333,129.167 135,131.5C 141.182,111.79 148.515,92.4567 157,73.5C 168.875,48.0802 182.042,23.4135 196.5,-0.5C 214.5,-0.5 232.5,-0.5 250.5,-0.5C 251.848,0.60064 253.348,1.60064 255,2.5C 255.667,3.16667 255.667,3.83333 255,4.5C 218.023,45.8343 189.689,92.501 170,144.5C 176.258,133.648 183.258,123.314 191,113.5C 195.345,106.993 200.512,101.326 206.5,96.5C 204.576,100.017 202.909,103.684 201.5,107.5C 198.52,113.272 197.853,119.272 199.5,125.5C 202.511,143.68 212.844,155.514 230.5,161C 250.329,164.18 265.496,157.347 276,140.5C 280.719,129.759 281.553,118.759 278.5,107.5C 280.03,108.067 281.53,108.733 283,109.5C 300.675,98.8246 319.509,90.6579 339.5,85C 345.705,84.0688 351.372,85.4021 356.5,89C 362.009,94.5107 367.176,100.344 372,106.5C 376.311,113.124 380.144,119.958 383.5,127C 363.92,130.729 344.587,135.395 325.5,141C 282.386,156.814 243.553,179.981 209,210.5C 208.312,211.332 208.479,211.998 209.5,212.5C 249.21,186.638 292.21,168.138 338.5,157C 352.688,154.79 366.855,152.623 381,150.5C 394.305,152.799 402.972,160.466 407,173.5C 409.571,184.211 412.738,194.711 416.5,205C 403.178,204.238 389.844,203.404 376.5,202.5C 323.312,202.878 273.646,215.878 227.5,241.5C 228.167,241.833 228.833,242.167 229.5,242.5C 275.911,228.634 323.245,224.467 371.5,230C 383.683,233.065 396.016,235.399 408.5,237C 413.678,237.749 417.678,240.249 420.5,244.5C 280.167,244.5 139.833,244.5 -0.5,244.5C -0.5,194.167 -0.5,143.833 -0.5,93.5C 12.0017,108.513 23.1683,124.513 33,141.5C 33.1667,140.833 33.3333,140.167 33.5,139.5C 25.3218,119.789 16.4884,100.122 7,80.5C 4.97149,76.4204 2.47149,72.7537 -0.5,69.5C -0.5,46.1667 -0.5,22.8333 -0.5,-0.5 Z"/></g>
<g><path style="opacity:1" fill="#17355d" d="M 14.5,-0.5 C 24.5,-0.5 34.5,-0.5 44.5,-0.5C 48.3471,18.8942 52.8471,38.2276 58,57.5C 61.8133,80.8586 65.8133,104.192 70,127.5C 70.6667,130.167 70.6667,132.833 70,135.5C 66.1345,121.041 61.8012,106.708 57,92.5C 55.9196,90.0038 54.5862,87.6705 53,85.5C 43.8588,56.4118 31.1921,29.0785 15,3.5C 14.51,2.20677 14.3433,0.873441 14.5,-0.5 Z"/></g>
<g><path style="opacity:1" fill="#17355d" d="M 91.5,-0.5 C 100.167,-0.5 108.833,-0.5 117.5,-0.5C 112.134,27.3612 107.301,55.3612 103,83.5C 99.585,55.4292 95.7517,27.4292 91.5,-0.5 Z"/></g>
<g><path style="opacity:1" fill="#17355d" d="M 164.5,-0.5 C 175.167,-0.5 185.833,-0.5 196.5,-0.5C 182.042,23.4135 168.875,48.0802 157,73.5C 148.515,92.4567 141.182,111.79 135,131.5C 134.333,129.167 134.333,126.833 135,124.5C 139.743,102.931 144.076,81.2645 148,59.5C 149.841,53.8187 151.841,48.152 154,42.5C 156.718,27.9607 160.218,13.6274 164.5,-0.5 Z"/></g>
<g><path style="opacity:1" fill="#17355d" d="M 250.5,-0.5 C 286.167,-0.5 321.833,-0.5 357.5,-0.5C 418.126,54.1011 458.792,120.768 479.5,199.5C 479.5,214.5 479.5,229.5 479.5,244.5C 459.833,244.5 440.167,244.5 420.5,244.5C 417.678,240.249 413.678,237.749 408.5,237C 396.016,235.399 383.683,233.065 371.5,230C 323.245,224.467 275.911,228.634 229.5,242.5C 228.833,242.167 228.167,241.833 227.5,241.5C 273.646,215.878 323.312,202.878 376.5,202.5C 389.844,203.404 403.178,204.238 416.5,205C 412.738,194.711 409.571,184.211 407,173.5C 402.972,160.466 394.305,152.799 381,150.5C 366.855,152.623 352.688,154.79 338.5,157C 292.21,168.138 249.21,186.638 209.5,212.5C 208.479,211.998 208.312,211.332 209,210.5C 243.553,179.981 282.386,156.814 325.5,141C 344.587,135.395 363.92,130.729 383.5,127C 380.144,119.958 376.311,113.124 372,106.5C 367.176,100.344 362.009,94.5107 356.5,89C 351.372,85.4021 345.705,84.0688 339.5,85C 319.509,90.6579 300.675,98.8246 283,109.5C 281.53,108.733 280.03,108.067 278.5,107.5C 276.597,102.932 274.264,98.5984 271.5,94.5C 271.414,93.5041 271.748,92.6708 272.5,92C 288.333,81.2472 304.666,71.2472 321.5,62C 324.096,60.8644 326.763,60.031 329.5,59.5C 328.564,56.0406 326.564,53.2072 323.5,51C 314.741,42.904 305.407,35.5707 295.5,29C 287.555,27.4165 280.222,28.7499 273.5,33C 252.16,48.3345 232.66,65.8345 215,85.5C 214.517,86.448 214.351,87.448 214.5,88.5C 212.167,91.5 209.5,94.1667 206.5,96.5C 200.512,101.326 195.345,106.993 191,113.5C 183.258,123.314 176.258,133.648 170,144.5C 189.689,92.501 218.023,45.8343 255,4.5C 255.667,3.83333 255.667,3.16667 255,2.5C 253.348,1.60064 251.848,0.60064 250.5,-0.5 Z"/></g>
<g><path style="opacity:1" fill="#2a456a" d="M 357.5,-0.5 C 369.5,-0.5 381.5,-0.5 393.5,-0.5C 429.025,35.8353 457.691,76.8353 479.5,122.5C 479.5,148.167 479.5,173.833 479.5,199.5C 458.792,120.768 418.126,54.1011 357.5,-0.5 Z"/></g>
<g><path style="opacity:1" fill="#17355d" d="M 393.5,-0.5 C 422.167,-0.5 450.833,-0.5 479.5,-0.5C 479.5,40.5 479.5,81.5 479.5,122.5C 457.691,76.8353 429.025,35.8353 393.5,-0.5 Z"/></g>
<g><path style="opacity:1" fill="#2b466b" d="M 271.5,94.5 C 253.965,78.2722 234.965,76.2722 214.5,88.5C 214.351,87.448 214.517,86.448 215,85.5C 232.66,65.8345 252.16,48.3345 273.5,33C 280.222,28.7499 287.555,27.4165 295.5,29C 305.407,35.5707 314.741,42.904 323.5,51C 326.564,53.2072 328.564,56.0406 329.5,59.5C 326.763,60.031 324.096,60.8644 321.5,62C 304.666,71.2472 288.333,81.2472 272.5,92C 271.748,92.6708 271.414,93.5041 271.5,94.5 Z"/></g>
<g><path style="opacity:1" fill="#18365d" d="M -0.5,69.5 C 2.47149,72.7537 4.97149,76.4204 7,80.5C 16.4884,100.122 25.3218,119.789 33.5,139.5C 33.3333,140.167 33.1667,140.833 33,141.5C 23.1683,124.513 12.0017,108.513 -0.5,93.5C -0.5,85.5 -0.5,77.5 -0.5,69.5 Z"/></g>
<g><path style="opacity:1" fill="#5e718e" d="M 201.5,107.5 C 199.935,113.378 199.268,119.378 199.5,125.5C 197.853,119.272 198.52,113.272 201.5,107.5 Z"/></g>
<g><path style="opacity:1" fill="#e1e5ea" d="M 271.5,94.5 C 274.264,98.5984 276.597,102.932 278.5,107.5C 281.553,118.759 280.719,129.759 276,140.5C 265.496,157.347 250.329,164.18 230.5,161C 212.844,155.514 202.511,143.68 199.5,125.5C 199.268,119.378 199.935,113.378 201.5,107.5C 202.909,103.684 204.576,100.017 206.5,96.5C 209.5,94.1667 212.167,91.5 214.5,88.5C 234.965,76.2722 253.965,78.2722 271.5,94.5 Z"/></g>
<g><path style="opacity:1" fill="#344d71" d="M 244.5,83.5 C 254.397,84.4113 262.397,88.7446 268.5,96.5C 266.745,97.0722 265.078,97.9055 263.5,99C 264.056,99.3826 264.389,99.8826 264.5,100.5C 260.756,101.721 257.09,102.887 253.5,104C 255.983,101.594 258.65,99.4271 261.5,97.5C 260.788,95.9541 259.622,94.9541 258,94.5C 254.012,97.1542 250.679,100.488 248,104.5C 248.971,99.9837 251.138,95.9837 254.5,92.5C 253.032,90.6671 251.365,90.3338 249.5,91.5C 247.747,94.0048 246.247,96.6714 245,99.5C 244.397,96.3436 244.897,93.3436 246.5,90.5C 244.955,89.5481 243.288,89.2148 241.5,89.5C 240.5,101.5 239.5,101.5 238.5,89.5C 236.712,89.2148 235.045,89.5481 233.5,90.5C 235.103,93.3436 235.603,96.3436 235,99.5C 233.365,96.2094 231.365,93.2094 229,90.5C 227.605,90.7804 226.438,91.4471 225.5,92.5C 228.513,96.2018 230.679,100.202 232,104.5C 230.188,101.72 228.021,99.2198 225.5,97C 222.862,94.892 220.528,95.0586 218.5,97.5C 221.5,100 224.5,102.5 227.5,105C 224.525,104.021 221.525,102.688 218.5,101C 214.604,99.7507 213.27,100.917 214.5,104.5C 217.779,105.473 220.779,106.973 223.5,109C 220.039,108.428 216.539,107.594 213,106.5C 210.46,107.207 209.293,108.873 209.5,111.5C 227.986,113.599 227.986,114.766 209.5,115C 207.396,116.836 207.062,119.002 208.5,121.5C 209.183,121.137 209.85,120.804 210.5,120.5C 216.13,119.708 221.797,119.375 227.5,119.5C 237.786,122.739 241.119,129.405 237.5,139.5C 234.912,137.408 231.912,136.075 228.5,135.5C 225.585,134.878 222.585,134.544 219.5,134.5C 216.41,134.522 213.743,135.188 211.5,136.5C 212.614,137.885 213.614,139.385 214.5,141C 223.69,140.589 232.19,142.756 240,147.5C 247.907,142.567 256.407,140.234 265.5,140.5C 266.401,139.71 267.068,138.71 267.5,137.5C 267.804,136.85 268.137,136.183 268.5,135.5C 259.091,133.379 250.258,134.712 242,139.5C 241.506,137.866 241.34,136.199 241.5,134.5C 248.948,129.936 256.281,125.103 263.5,120C 258.806,119.436 254.14,119.603 249.5,120.5C 252.186,119.009 255.186,118.343 258.5,118.5C 262.92,118.689 267.253,119.356 271.5,120.5C 271.675,118.379 271.341,116.379 270.5,114.5C 272.696,114.435 274.696,113.768 276.5,112.5C 275.691,110.929 275.357,109.262 275.5,107.5C 281.048,125.132 276.714,139.965 262.5,152C 242.213,164.212 224.38,161.379 209,143.5C 196.695,123.278 199.529,105.444 217.5,90C 220.411,88.2389 223.411,86.7389 226.5,85.5C 232.378,83.9349 238.378,83.2683 244.5,83.5 Z"/></g>
<g><path style="opacity:1" fill="#dce1e7" d="M 217.5,144.5 C 225.358,143.667 232.858,145.334 240,149.5C 246.897,145.201 254.397,143.368 262.5,144C 261.833,144.667 261.167,145.333 260.5,146C 252.647,145.174 245.813,147.341 240,152.5C 234.029,147.733 227.196,145.566 219.5,146C 218.956,145.283 218.289,144.783 217.5,144.5 Z"/></g>
<g><path style="opacity:1" fill="#42597a" d="M 236.5,140.5 C 237.531,141.355 238.697,142.022 240,142.5C 247.178,138.08 255.012,136.414 263.5,137.5C 260.833,138.167 258.167,138.833 255.5,139.5C 249.651,139.672 244.484,141.672 240,145.5C 232.692,140.413 224.526,137.913 215.5,138C 222.732,137.019 229.732,137.852 236.5,140.5 Z"/></g>
<g><path style="opacity:1" fill="#dbe0e6" d="M 228.5,135.5 C 231.912,136.075 234.912,137.408 237.5,139.5C 236.833,139.5 236.5,139.833 236.5,140.5C 229.732,137.852 222.732,137.019 215.5,138C 224.526,137.913 232.692,140.413 240,145.5C 244.484,141.672 249.651,139.672 255.5,139.5C 259.042,139.187 262.375,139.521 265.5,140.5C 256.407,140.234 247.907,142.567 240,147.5C 232.19,142.756 223.69,140.589 214.5,141C 213.614,139.385 212.614,137.885 211.5,136.5C 217.358,136.822 223.025,136.489 228.5,135.5 Z"/></g>
<g><path style="opacity:1" fill="#8695aa" d="M 263.5,137.5 C 264.833,137.5 266.167,137.5 267.5,137.5C 267.068,138.71 266.401,139.71 265.5,140.5C 262.375,139.521 259.042,139.187 255.5,139.5C 258.167,138.833 260.833,138.167 263.5,137.5 Z"/></g>
<g><path style="opacity:1" fill="#f3f4f6" d="M 228.5,135.5 C 223.025,136.489 217.358,136.822 211.5,136.5C 213.743,135.188 216.41,134.522 219.5,134.5C 222.585,134.544 225.585,134.878 228.5,135.5 Z"/></g>
<g><path style="opacity:1" fill="#1a375f" d="M 241.5,134.5 C 240.555,127.719 243.221,123.053 249.5,120.5C 254.14,119.603 258.806,119.436 263.5,120C 256.281,125.103 248.948,129.936 241.5,134.5 Z"/></g>
<g><path style="opacity:1" fill="#5e728e" d="M 270.5,110.5 C 271.043,110.56 271.376,110.893 271.5,111.5C 268.553,112.321 265.553,112.821 262.5,113C 263.416,113.278 264.082,113.778 264.5,114.5C 260.775,114.595 257.109,114.762 253.5,115C 258.985,112.337 264.652,110.837 270.5,110.5 Z"/></g>
<g><path style="opacity:1" fill="#526785" d="M 267.5,104.5 C 266.737,105.268 265.737,105.768 264.5,106C 264.728,106.399 265.062,106.565 265.5,106.5C 261.929,107.968 258.262,109.135 254.5,110C 258.136,106.534 262.469,104.701 267.5,104.5 Z"/></g>
<g><path style="opacity:1" fill="#1e3a61" d="M 268.5,96.5 C 272.01,99.3577 274.343,103.024 275.5,107.5C 275.357,109.262 275.691,110.929 276.5,112.5C 274.696,113.768 272.696,114.435 270.5,114.5C 268.5,114.5 266.5,114.5 264.5,114.5C 264.082,113.778 263.416,113.278 262.5,113C 265.553,112.821 268.553,112.321 271.5,111.5C 271.376,110.893 271.043,110.56 270.5,110.5C 270.033,107.703 268.367,106.369 265.5,106.5C 265.062,106.565 264.728,106.399 264.5,106C 265.737,105.768 266.737,105.268 267.5,104.5C 266.974,102.77 265.974,101.436 264.5,100.5C 264.389,99.8826 264.056,99.3826 263.5,99C 265.078,97.9055 266.745,97.0722 268.5,96.5 Z"/></g>
<g><path style="opacity:1" fill="#f0f2f4" d="M 264.5,100.5 C 265.974,101.436 266.974,102.77 267.5,104.5C 262.469,104.701 258.136,106.534 254.5,110C 258.262,109.135 261.929,107.968 265.5,106.5C 268.367,106.369 270.033,107.703 270.5,110.5C 264.652,110.837 258.985,112.337 253.5,115C 257.109,114.762 260.775,114.595 264.5,114.5C 266.5,114.5 268.5,114.5 270.5,114.5C 271.341,116.379 271.675,118.379 271.5,120.5C 267.253,119.356 262.92,118.689 258.5,118.5C 255.186,118.343 252.186,119.009 249.5,120.5C 243.221,123.053 240.555,127.719 241.5,134.5C 241.34,136.199 241.506,137.866 242,139.5C 250.258,134.712 259.091,133.379 268.5,135.5C 268.137,136.183 267.804,136.85 267.5,137.5C 266.167,137.5 264.833,137.5 263.5,137.5C 255.012,136.414 247.178,138.08 240,142.5C 238.697,142.022 237.531,141.355 236.5,140.5C 236.5,139.833 236.833,139.5 237.5,139.5C 241.119,129.405 237.786,122.739 227.5,119.5C 225.359,118.837 223.025,118.503 220.5,118.5C 216.859,118.315 213.526,118.981 210.5,120.5C 209.85,120.804 209.183,121.137 208.5,121.5C 207.062,119.002 207.396,116.836 209.5,115C 227.986,114.766 227.986,113.599 209.5,111.5C 209.293,108.873 210.46,107.207 213,106.5C 216.539,107.594 220.039,108.428 223.5,109C 220.779,106.973 217.779,105.473 214.5,104.5C 213.27,100.917 214.604,99.7507 218.5,101C 221.525,102.688 224.525,104.021 227.5,105C 224.5,102.5 221.5,100 218.5,97.5C 220.528,95.0586 222.862,94.892 225.5,97C 228.021,99.2198 230.188,101.72 232,104.5C 230.679,100.202 228.513,96.2018 225.5,92.5C 226.438,91.4471 227.605,90.7804 229,90.5C 231.365,93.2094 233.365,96.2094 235,99.5C 235.603,96.3436 235.103,93.3436 233.5,90.5C 235.045,89.5481 236.712,89.2148 238.5,89.5C 239.5,101.5 240.5,101.5 241.5,89.5C 243.288,89.2148 244.955,89.5481 246.5,90.5C 244.897,93.3436 244.397,96.3436 245,99.5C 246.247,96.6714 247.747,94.0048 249.5,91.5C 251.365,90.3338 253.032,90.6671 254.5,92.5C 251.138,95.9837 248.971,99.9837 248,104.5C 250.679,100.488 254.012,97.1542 258,94.5C 259.622,94.9541 260.788,95.9541 261.5,97.5C 258.65,99.4271 255.983,101.594 253.5,104C 257.09,102.887 260.756,101.721 264.5,100.5 Z"/></g>
<g><path style="opacity:1" fill="#76879f" d="M 227.5,119.5 C 221.797,119.375 216.13,119.708 210.5,120.5C 213.526,118.981 216.859,118.315 220.5,118.5C 223.025,118.503 225.359,118.837 227.5,119.5 Z"/></g>
<g><path style="opacity:1" fill="#6e8099" d="M 244.5,83.5 C 238.378,83.2683 232.378,83.9349 226.5,85.5C 232.272,82.5197 238.272,81.8531 244.5,83.5 Z"/></g>
<g><path style="opacity:1" fill="#d1d7df" d="M 251.5,148.5 C 252.873,148.343 254.207,148.51 255.5,149C 252.205,151.407 248.538,152.407 244.5,152C 246.925,150.787 249.259,149.621 251.5,148.5 Z"/></g>
<g><path style="opacity:1" fill="#d1d7df" d="M 224.5,149.5 C 228.249,148.847 231.916,149.681 235.5,152C 231.438,152.879 227.771,152.046 224.5,149.5 Z"/></g>
</svg>
